<svg xmlns="http://www.w3.org/2000/svg" viewBox="0 0 96.38 96.38"><defs><style>.cls-1{fill:#ffed00;}.cls-2{fill:#134295;}.cls-3{fill:#fff;}.cls-4{fill:#e30613;}.cls-5{fill:#009640;}</style></defs><g id="Capa_2" data-name="Capa 2"><g id="Capa_1-2" data-name="Capa 1"><path class="cls-1" d="M96.38,48.19A48.19,48.19,0,1,1,48.19,0,48.2,48.2,0,0,1,96.38,48.19"/><path class="cls-2" d="M93,48.3A45,45,0,0,1,3.18,50.64l.12,0c2,.19,6.55-1.5,9.63-5.93,1.78,0,2.78-.31,4.87-2.4.59-1.21,4.73-8,7.32-12.28l.34,6A25.62,25.62,0,1,0,42.35,23.18a3,3,0,0,1,.08-1.25s2-.46,2.26-1.6c2.33.6,4.56,1.13,6.13.83,11.32-.33,19.58,8.53,23.65,15.68a6.3,6.3,0,0,0,2.71,1.82c1.54.36,4.44,0,5.27.41,2.37,2.81,2.28,5.14,3.56,6.42s2.72.73,3.5.73c.39.69,2.37,1.45,3.53,1.84Z"/><path class="cls-3" d="M73.67,48.16A25.62,25.62,0,1,1,48.05,22.54,25.63,25.63,0,0,1,73.67,48.16"/><path class="cls-4" d="M55.8,25.94a23.57,23.57,0,0,1-.13,44.65Z"/><path class="cls-5" d="M40.27,26.06a23.56,23.56,0,0,0,0,44.53Z"/><path d="M43.26,16.05c1.16-2.15,4.73-2.4,4.73-2.4l1.86.18c-2.21,0-3,1.81-4.54,2.87-.23-.68-1.45-.51-2.05-.65m4.86,34.23a2,2,0,1,0-2-2,2,2,0,0,0,2,2m0,22.15a24.1,24.1,0,1,1,24.1-24.1,24.1,24.1,0,0,1-24.1,24.1m-9.4-3.18a22.59,22.59,0,0,0,8.9,2V50.83Zm-8.28-6.31a23,23,0,0,0,7.38,5.88l8.88-18.36a3.15,3.15,0,0,1-.29-.22ZM25.93,54a22.79,22.79,0,0,0,3.94,8.17l16-12.69Zm-.24-10.27a23.33,23.33,0,0,0-.46,4.61A22.61,22.61,0,0,0,25.71,53l19.84-4.51c0-.07,0-.15,0-.23Zm4.19-9.24a22.82,22.82,0,0,0-4,8.27L45.74,47.3l0-.12Zm7.88-6.6A23.08,23.08,0,0,0,30.5,33.7L46.38,46.38l.21-.17Zm9.9-2.48a22.94,22.94,0,0,0-9,2.05l8.82,18.34.18,0Zm10.16,2.13a22.85,22.85,0,0,0-9.17-2.13V45.76a3,3,0,0,1,.32.09Zm7.93,6.09a22.87,22.87,0,0,0-7-5.65L49.88,46.25Zm4.68,9.24a22.78,22.78,0,0,0-4.06-8.47l-16,12.7a1.85,1.85,0,0,1,.13.29ZM70.61,53a22.32,22.32,0,0,0,.48-4.66,23,23,0,0,0-.44-4.5l-20,4.53v.07Zm-4.28,9.32A22.57,22.57,0,0,0,70.39,54l-20-4.57a1.3,1.3,0,0,1-.08.17Zm-7.78,6.47a23.09,23.09,0,0,0,7.16-5.7l-16-12.77,0,0Zm-9.9,2.47a22.72,22.72,0,0,0,9-2L48.78,50.77l-.13,0Zm-.6,2a25,25,0,1,0-25-25,25,25,0,0,0,25,25m0,1.17A26.21,26.21,0,0,1,24.81,36l-.2-3.52C24.32,33,19.18,41.4,18.37,43c-1.61,1.62-2.78,2.6-5.07,2.67C11,48.82,6.86,52,2.69,51.57L2.6,48.7a45.59,45.59,0,0,1,91.18-.1v.95s-1.68-.62-2.53-1a6.78,6.78,0,0,1-2-1.34c-5.24.54-4.38-3.9-7.15-7.27-1.51-.41-3.41,0-5-.34A6.94,6.94,0,0,1,74,37.51c-4.61-8.07-12.81-15.69-23-15.41a26.21,26.21,0,0,1-2.87,52.27M26,34A26.28,26.28,0,0,1,38.39,23.79l-.59-.27c-7-3.27-1.57-8.93,2.59-8.81.12-4.06,4.4-4.34,7.51-4.35a2.92,2.92,0,0,1,.37-.34,1.6,1.6,0,0,0-.79-.72c-1.81-.46-3.54.23-5.31-.08-.92,2.42-5.22,4.63-9.73,6-.84,3.21-4,6.46-6.17,8.92a5.7,5.7,0,0,0-.84,1.05c-.34,1.5.36,2.69.45,3.69A20,20,0,0,1,30,24.73s.44-.35.86-.67l.56-.41c.8-.58,1.16.41.66.77l-.18.13a19.28,19.28,0,0,0-6,6.3ZM38.57,23.72a26,26,0,0,1,3.14-1,4,4,0,0,1,.12-.68A9.88,9.88,0,0,1,39,21.43a3.2,3.2,0,0,0-.41,2.29m5.56-1.47A25,25,0,0,1,47.61,22c-.82-.15-1.68-.36-2.53-.57a3.14,3.14,0,0,1-.95.86M91.82,47.33l.62.29a43.93,43.93,0,0,0-12-29.3c-.66,1.6-1.46,5.13.3,7.24a17.75,17.75,0,0,1,4.41,6c.23,2.2,1.76,6.29,2.46,8.16,1.15,3,2.31,5.73,2.53,6.28l-.07,0a4.06,4.06,0,0,0,1.75,1.27M79.65,17.5l-.31-.3a7.17,7.17,0,0,1-3.66.94c-.34,1.77-.08,8.13,1.24,9.69,1.53,1.37,5.19,4.1,7.06,3.66a15.74,15.74,0,0,0-3.93-5.21c-1.4-1.63-1.83-6.39-.4-8.78m-1.05-1A44.19,44.19,0,0,0,58.5,5.63c1.86,2.4,2.09,4.12,1,5.21A15.63,15.63,0,0,1,69,14.31a14.5,14.5,0,0,0,2,1.35c3.4,2.22,6.29,1.47,7.54.82M56.93,5.28a45,45,0,0,0-8.74-.86,44.47,44.47,0,0,0-9.86,1.1,6.23,6.23,0,0,0,5,2.8c1.59,0,2.68-.41,4.37,0a2.61,2.61,0,0,1,1.45,1.24,7.27,7.27,0,0,1,2.07-.23,9.35,9.35,0,0,0,4.07-.42v.71a3.47,3.47,0,0,1-.58,1.43,10.2,10.2,0,0,0,2.54-.15v0h.23c2.25-.6,2.23-2.44-.57-5.59m-19.57.48a44,44,0,0,0-18.53,9.8c1,.33,2.72.23,3.23-.42,1.65-1.5,10.64-7.93,15.67-8.75a4.13,4.13,0,0,1-.37-.63M18,16.29A44.18,44.18,0,0,0,11.47,24c2.12.86,8-.72,8.29-.84a17.08,17.08,0,0,0,3.43-2.38c.34-1.49.66-3,.29-3.9a5.74,5.74,0,0,1-1.8-.27l0-.07A5.3,5.3,0,0,1,18,16.29M11,24.74a44.12,44.12,0,0,0-7,23.94L4,50.31c3.36-.27,6.69-3.22,8.5-5.74l-.13-.09c2.56-3.73,3.64-8.26,5-12.49,1.18-3.59,2.54-6.84,5.4-7.5a4.92,4.92,0,0,1,.08-2.2l-.44.33a10.32,10.32,0,0,1-2.32,1.45,14.92,14.92,0,0,1-9.14.67m2.66,19.62c1.17-.08,2-.48,3.67-2.11C18,40.8,22.06,34.17,24.59,30l.39-.64-.13-.05c.2-.44-.49-1.89-.5-3.36a2.91,2.91,0,0,1-1-.58c-2.47.31-3.76,3-5.06,6.91s-2.4,8.38-4.7,12.06m31-24.47c1.77.47,4.47,1.22,6.19.9C61.53,20.46,70.16,28.22,75,36.73a5.54,5.54,0,0,0,2.35,1.57,20.07,20.07,0,0,0,3.39.16A4.51,4.51,0,0,1,79.53,37c-.74-1.29-1-3.22-.53-6.33a21.44,21.44,0,0,1-3-2.31c-4.75-.65-7.13-4.65-6.55-12.5-1.19-.78-2.27-1.73-3.52-2.41a15.6,15.6,0,0,0-8.62-1.61,12.34,12.34,0,0,1-3.27.15,7,7,0,0,1-1.6,1.65c-.29.17-.5.12-.62,0a.15.15,0,0,1-.09-.15.8.8,0,0,1,0-.61l.89-.75a14.23,14.23,0,0,0,1.37-1.82,21.94,21.94,0,0,1-2.81,0c-1.12,0-2.14,0-2.83,1h-.26c-2.62,0-6.8,0-6.77,3.61a3.83,3.83,0,0,1,1.44,3.58,2.14,2.14,0,0,1,1.77,1.35M82.68,38.73l.22.09c1.64,1.94,2,3.41,3,5.52.85,1.81,1.68,1.58,3.11,1.51-.44-1.06-1.37-3.3-2.3-5.75a50.35,50.35,0,0,1-2.42-7.67c-1.23.3-2.85-.31-4.36-1.17-.43,2.76-.41,5.38,2.21,6.9l.67.38ZM23.87,24.53a.17.17,0,0,1,0-.07,2.31,2.31,0,0,0,.62.49c.57-1.4,5.44-5.54,6.82-9.35a33,33,0,0,1-6.8,1.23c.58,2.43-1.36,6.77-.71,7.49Zm-1.08-8.71C27.2,16.41,39.65,12.69,41.2,9a7.65,7.65,0,0,1-2.68-1.65,36.43,36.43,0,0,0-15.73,8.51M75.51,27.27a23.7,23.7,0,0,1-.81-9.19,9.78,9.78,0,0,1-4.14-1.56l-.11-.06c-.26,4.29.19,9.6,5.06,10.81m-33.2-7.78a2.32,2.32,0,0,1-.47.39,10.92,10.92,0,0,1-1.81.85c2.52.73,3.43.13,3.59-.2s0-1.06-1.31-1m-1.56-3.75c-4.64-.84-6.83,4.16-3.22,6.5.41-2.8,4.22-2.5,4.4-4a3.57,3.57,0,0,0-1.18-2.47"/><path class="cls-3" d="M61.24,76.36l2.56-1.43,4.63,8.25-2.55,1.44ZM60,84.3l2.61-1,1,2.45-2.61,1Zm-9.87,1.86,2.7-.71a2,2,0,0,0,.56.94,1.57,1.57,0,0,0,1.38.32,1.47,1.47,0,0,0,.89-.48.86.86,0,0,0-.25-1.32,3.77,3.77,0,0,0-1.57-.24,6.35,6.35,0,0,1-2.92-.6,2.29,2.29,0,0,1-1.16-1.63A2.45,2.45,0,0,1,49.89,81a2.89,2.89,0,0,1,1-1.25A6,6,0,0,1,53.15,79a4.72,4.72,0,0,1,2.85.12A2.92,2.92,0,0,1,57.52,81l-2.67.7a1.41,1.41,0,0,0-.63-.82,1.46,1.46,0,0,0-1-.1,1.22,1.22,0,0,0-.71.36.67.67,0,0,0-.15.57.52.52,0,0,0,.29.35,2.32,2.32,0,0,0,1,.16,12.2,12.2,0,0,1,2.85.28,2.91,2.91,0,0,1,1.39.8,2.62,2.62,0,0,1,.64,1.3,3,3,0,0,1-.17,1.74,3.15,3.15,0,0,1-1.15,1.42,5.84,5.84,0,0,1-2.16.83,4.75,4.75,0,0,1-3.46-.26,3.75,3.75,0,0,1-1.49-2.12M46,86.57l2.8,0,0,2.64-2.8,0Zm-3.2-1.51,2.38,1.23A4.64,4.64,0,0,1,44,87.92a3.69,3.69,0,0,1-1.55.82,5.27,5.27,0,0,1-2.13,0,6.1,6.1,0,0,1-2.39-.9A4,4,0,0,1,36.56,86a5.28,5.28,0,0,1-.17-3,4.93,4.93,0,0,1,1.88-3.33,4.76,4.76,0,0,1,3.7-.59,4.76,4.76,0,0,1,2.64,1.22,4.31,4.31,0,0,1,1.09,2.46l-2.65.09a2.11,2.11,0,0,0-.16-.67,1.67,1.67,0,0,0-1.24-.94,1.73,1.73,0,0,0-1.65.51,3.41,3.41,0,0,0-.73,1.76,3.49,3.49,0,0,0,.08,2.21,1.64,1.64,0,0,0,1.21.82,1.66,1.66,0,0,0,1.33-.23,2.87,2.87,0,0,0,.86-1.24M32,83.32l2.61,1-1,2.45-2.61-1Zm-4.55-1.1-2.8-1.8-1.23,1.07-2.52-1.61,8.1-6,2.68,1.72-2.1,9.88L27,83.78ZM28,80.16l1-3.43L26.23,79Zm41-.51L71.28,78l1.57,2.11-2.24,1.68Z"/></g></g></svg>