<svg xmlns="http://www.w3.org/2000/svg" viewBox="0 0 81.98 104.88"><defs><style>.cls-1{fill:#ee7226;}.cls-1,.cls-2{fill-rule:evenodd;}.cls-3{fill:#ffed00;}.cls-4{fill:#fff;}</style></defs><g id="Capa_2" data-name="Capa 2"><g id="Capa_1-2" data-name="Capa 1"><path d="M6.42,47.49c0-7,4-13.32,10.29-17.82S31.56,22.43,41,22.43s18,2.75,24.29,7.24,10.3,10.79,10.3,17.82-4,13.35-10.3,17.84S50.41,72.57,41,72.57s-18-2.76-24.27-7.24S6.42,54.54,6.42,47.49m1.92,0c0,6.27,3.56,12,9.49,16.27S31.92,70.64,41,70.64,58.24,68,64.15,63.76s9.49-10,9.49-16.27-3.56-12-9.49-16.25S50.05,24.36,41,24.36,23.73,27,17.83,31.24s-9.49,10-9.49,16.25m71.72,0c0-8-4.3-15.38-11.36-20.78S51.82,17.93,41,17.93s-20.64,3.38-27.71,8.78S1.93,39.47,1.93,47.49c0,7.37,3.61,14.19,9.66,19.41s14.8,9,24.53,9.92l1,.16v8.7H14.49V96.33H37.14V103h7.7V96.31H67.48V85.69H44.84V77l1-.16c9.75-.92,18.4-4.59,24.54-9.92s9.68-12,9.68-19.41M35.22,78.66c-9.82-1.06-18.57-4.82-24.89-10.3S0,55.52,0,47.49c0-8.76,4.69-16.64,12.1-22.31S29.77,16,41,16s21.45,3.5,28.89,9.18S82,38.73,82,47.49c0,8-4,15.35-10.34,20.87a45.48,45.48,0,0,1-24.87,10.3v5.1H69.41V98.24H46.77v6.64H35.22V98.25H12.56V83.75H35.22Z"/><path class="cls-1" d="M17.27,30.45c-6.11,4.37-9.89,10.4-9.89,17s3.78,12.7,9.89,17.06,14.47,7,23.71,7,17.64-2.7,23.73-7,9.89-10.4,9.89-17.06-3.78-12.67-9.89-17-14.48-7-23.73-7-17.63,2.69-23.71,7.05m52-4.5C76.53,31.48,81,39.1,81,47.49c0,7.7-3.78,14.77-10,20.14S55.89,76.84,46,77.78l-.16,0v6.93H68.44V97.28H45.8v6.64H36.18V97.29H13.53V84.71H36.18V77.8l-.17,0c-9.92-.94-18.74-4.68-25-10.15S1,55.19,1,47.49C1,39.1,5.45,31.48,12.68,26S30,17,41,17,62,20.4,69.28,26"/><path class="cls-2" d="M58,33.72l0,0,0,0m.52.61-.1-.12.1.12m.43.55s0,0,0,0a33.76,33.76,0,0,0,2-4.53,13.65,13.65,0,0,0,.84-3.68,43,43,0,0,0-.19-4.93l0-.67-.6.3L59.81,22a30.34,30.34,0,0,0-3.09-8.33,23,23,0,0,0-7.1-7.83,31.31,31.31,0,0,0-11.73-5A51.72,51.72,0,0,0,26.34,0H25.9V3.76A8.43,8.43,0,0,1,24.24,8a13.62,13.62,0,0,0-.93-1.74L23.2,6l-5.34-.53a2.52,2.52,0,0,0-.48,0c-1.58,0-3,1.27-4,3.31a17.79,17.79,0,0,0-1.54,7.58,17.81,17.81,0,0,0,1.54,7.59c1,2.05,2.42,3.31,4,3.31a2.38,2.38,0,0,0,.46,0l.34,0v1.28a9.24,9.24,0,0,1-1.08,4.72A5.68,5.68,0,0,1,14,35.65a3.67,3.67,0,0,0-1.3.7,1.59,1.59,0,0,0-.59,1.25v2.45a.92.92,0,0,0,.5.79,2.18,2.18,0,0,0,.93.26h0c1.84.14,3.84.26,6,.38a23.43,23.43,0,0,0-1,4.32A22.7,22.7,0,1,0,59,34.88"/><path class="cls-3" d="M25.76,19.29a23.56,23.56,0,0,0,.18-2.94,21.78,21.78,0,0,0-.68-5.49l.75-.09a8.26,8.26,0,0,1,.67,6,14.24,14.24,0,0,1-.92,2.56M22.67,6.86a16.08,16.08,0,0,1,1.74,4.21,21.64,21.64,0,0,1,.64,5.28,21.55,21.55,0,0,1-.64,5.27,16.13,16.13,0,0,1-1.73,4.21l-2.82.28a8.27,8.27,0,0,0,1.66-2.47,18.16,18.16,0,0,0,1.4-7.3,18,18,0,0,0-1.4-7.26,8.17,8.17,0,0,0-1.65-2.5ZM17.13,8.35c1.61,0,2.92,3.58,2.92,8s-1.31,8-2.92,8-2.91-3.58-2.91-8,1.31-8,2.91-8m.25-2c1.21,0,2.35,1.07,3.19,2.82A16.86,16.86,0,0,1,22,16.34a16.87,16.87,0,0,1-1.46,7.19c-.84,1.74-2,2.82-3.19,2.82s-2.34-1.08-3.2-2.82a16.89,16.89,0,0,1-1.44-7.19,16.87,16.87,0,0,1,1.44-7.18c.86-1.75,2-2.82,3.2-2.82m-.25,1.11c-2.09,0-3.8,4-3.8,8.86s1.71,8.86,3.8,8.86,3.81-4,3.81-8.86-1.71-8.86-3.81-8.86M58.38,34.16a22.5,22.5,0,0,0-3.77-3.59l1.79-.81,4.4-2a15.52,15.52,0,0,1-.66,2.37,31.4,31.4,0,0,1-1.76,4.06m-5.56-3.75a2.9,2.9,0,0,1-2.94-.05,1.69,1.69,0,0,1-.51-.6,1.34,1.34,0,0,1-.15-.71c0-.64.55-1.34,1.7-1.87,3.29-1.53,6.14-2.89,8.23-3.89.63-.3,1.18-.58,1.63-.78L61,26.63c-1.26.61-2.85,1.35-5,2.31-1.07.5-2.26,1-3.21,1.47m-2.27-4A3.28,3.28,0,0,0,48.33,29a2.16,2.16,0,0,0,.12.87c-3.31,1.9-5.79,3.33-7.78,4.58a33.12,33.12,0,0,0-5.18,3.83.56.56,0,0,0-.22.36.61.61,0,0,0,.2.4.53.53,0,0,0,.38.22.51.51,0,0,0,.38-.2,32.25,32.25,0,0,1,5-3.69c2-1.25,4.47-2.69,7.77-4.59a2,2,0,0,0,.34.3,3,3,0,0,0,1.09.49L35.07,41.25c-4.08-.15-8-.29-11.57-.47s-7-.36-9.93-.57a1.09,1.09,0,0,1-.52-.14L13,37.6a.77.77,0,0,1,.29-.59,3,3,0,0,1,1-.52,6.48,6.48,0,0,0,3.62-2.87,9.85,9.85,0,0,0,1.19-5.17V27.08l1.63-.16v2.89h3.83a2.69,2.69,0,0,0,1.84-.67,4.35,4.35,0,0,0,1.08-1.61L29.35,23a3,3,0,0,1,1.18-1.3l.17-.14a3.51,3.51,0,0,0,1-1.09,3.87,3.87,0,0,0,.47-2V15.5A4.7,4.7,0,0,0,31,12.65a5.73,5.73,0,0,0-2.89-2.08H26.92c-.1-.16-.18-.33-.27-.49l-.13-.21H25c-.1-.31-.2-.62-.32-.92,1.1-1.71,2.14-3.42,2.14-5.19V.9a50.31,50.31,0,0,1,10.93.84A30.27,30.27,0,0,1,49.12,6.56,22.21,22.21,0,0,1,56,14.08a29.8,29.8,0,0,1,3,8.29l-.21.1c-2.13,1-5,2.42-8.22,3.91M15.61,37.5c-.21-.06-.44-.11-.53.33s.12.48.33.53a50,50,0,0,0,8.46,1.15c2.87.16,5.83.14,9,0,.22,0,.44,0,.42-.45s-.22-.44-.45-.43c-3.1.08-6,.11-8.88-.05a51,51,0,0,1-8.31-1.12m6-8.58V26.83L23,26.68h.21l.12-.19A16.14,16.14,0,0,0,25.22,22a16.3,16.3,0,0,0,2.33-5.1,9.45,9.45,0,0,0-.24-5.47h.82a5.14,5.14,0,0,1,2.2,1.75,3.86,3.86,0,0,1,1,2.29v2.95A3.07,3.07,0,0,1,31,20a3.12,3.12,0,0,1-.8.82L30,21a3.93,3.93,0,0,0-1.47,1.69l-1.9,4.53a3.4,3.4,0,0,1-.84,1.29,1.77,1.77,0,0,1-1.25.45Z"/><path d="M31.93,88.76v1.55h1.75a.82.82,0,0,0,.51-.24.77.77,0,0,0,.19-.54.81.81,0,0,0-.16-.5.69.69,0,0,0-.49-.23,8,8,0,0,0-1.08,0Zm0,2.68v1.8h1.16a5,5,0,0,0,.87,0,.78.78,0,0,0,.47-.27.86.86,0,0,0,.17-.57.9.9,0,0,0-.13-.51.8.8,0,0,0-.4-.32A4.8,4.8,0,0,0,33,91.44Zm-1.27-3.8h2.51a7.21,7.21,0,0,1,1.11.07,1.33,1.33,0,0,1,.64.28,1.5,1.5,0,0,1,.49.56,1.57,1.57,0,0,1,.2.79,1.81,1.81,0,0,1-.24.87,1.58,1.58,0,0,1-.65.58,1.68,1.68,0,0,1,.89.62,1.72,1.72,0,0,1,.3,1,2,2,0,0,1-.2.9,1.72,1.72,0,0,1-.55.7,1.67,1.67,0,0,1-.84.32c-.21,0-.72,0-1.52,0H30.66ZM38,90.49H39a4.79,4.79,0,0,0,1.14-.08.72.72,0,0,0,.36-.28,1,1,0,0,0,.12-.51.84.84,0,0,0-.16-.55A.73.73,0,0,0,40,88.8c-.11,0-.42,0-.92,0H38Zm-1.26,3.89V87.64h2.66a4.27,4.27,0,0,1,1.46.19,1.36,1.36,0,0,1,.72.64,1.94,1.94,0,0,1,.28,1,1.87,1.87,0,0,1-.41,1.26,1.94,1.94,0,0,1-1.25.62,2.6,2.6,0,0,1,.68.57,7.55,7.55,0,0,1,.73,1.1l.76,1.31H40.9L40,92.91a8.73,8.73,0,0,0-.67-1,.84.84,0,0,0-.38-.28,1.72,1.72,0,0,0-.64-.07H38v2.81Zm20.49-2.66-.87-2.5-.84,2.5Zm2.33,2.66H58.22l-.55-1.54h-2.5l-.52,1.54H53.31l2.44-6.74h1.33ZM22,91.9l1.23.42A3,3,0,0,1,22.33,94a2.76,2.76,0,0,1-3.71-.39,3.64,3.64,0,0,1-.8-2.51,3.86,3.86,0,0,1,.8-2.61,2.74,2.74,0,0,1,2.12-.93,2.55,2.55,0,0,1,1.88.73,2.94,2.94,0,0,1,.64,1.25L22,89.82a1.5,1.5,0,0,0-.45-.83,1.32,1.32,0,0,0-.87-.31,1.4,1.4,0,0,0-1.13.55A2.76,2.76,0,0,0,19.11,91a3,3,0,0,0,.43,1.81,1.36,1.36,0,0,0,1.11.55,1.23,1.23,0,0,0,.87-.34A1.89,1.89,0,0,0,22,91.9M42.9,94.38V87.64h4.48v1.14H44.16v1.49h3v1.14h-3v1.83H47.5v1.14ZM48,92.18l1.23-.13a1.73,1.73,0,0,0,.46,1,1.57,1.57,0,0,0,1.83,0,.87.87,0,0,0,.32-.65.72.72,0,0,0-.14-.41,1.06,1.06,0,0,0-.45-.29c-.15-.06-.5-.15-1-.3a3.17,3.17,0,0,1-1.43-.67,1.87,1.87,0,0,1-.3-2.31,1.79,1.79,0,0,1,.78-.68,2.87,2.87,0,0,1,1.23-.24,2.53,2.53,0,0,1,1.78.56,2.07,2.07,0,0,1,.63,1.49l-1.27.06a1,1,0,0,0-1.15-1,1.34,1.34,0,0,0-.85.24.48.48,0,0,0-.21.41.53.53,0,0,0,.19.41,3.18,3.18,0,0,0,1.16.45,5.9,5.9,0,0,1,1.37.49,1.8,1.8,0,0,1,.69.68,2.2,2.2,0,0,1,.24,1.07,2,2,0,0,1-.29,1.08,1.9,1.9,0,0,1-.84.77,3.5,3.5,0,0,1-1.37.24,2.61,2.61,0,0,1-1.83-.59A2.65,2.65,0,0,1,48,92.18m12.2,2.2V87.69h1.27v5.52h2.72v1.17ZM23.87,91.05a4.65,4.65,0,0,1,.28-1.73,3.29,3.29,0,0,1,.59-.92,2.37,2.37,0,0,1,.8-.61,3.22,3.22,0,0,1,1.35-.27,2.83,2.83,0,0,1,2.22.92A3.74,3.74,0,0,1,29.94,91a3.69,3.69,0,0,1-.82,2.55,2.78,2.78,0,0,1-2.2.93,2.84,2.84,0,0,1-2.23-.93,3.62,3.62,0,0,1-.82-2.52m1.3,0a2.65,2.65,0,0,0,.49,1.72,1.57,1.57,0,0,0,1.24.6,1.55,1.55,0,0,0,1.25-.59A2.74,2.74,0,0,0,28.64,91a2.61,2.61,0,0,0-.48-1.72,1.52,1.52,0,0,0-1.26-.58,1.54,1.54,0,0,0-1.25.59A2.64,2.64,0,0,0,25.17,91"/><path class="cls-4" d="M41.55,41.46V38.22l8.75-5.5,4.59,3.69-1.68,6.73L47.5,45Zm-6.39.7.26-.08,5-3.15v2.53l-6,3.53-5.74-1.85-.31-1.24,6.75.26m3,27.93a20.55,20.55,0,0,1-3.12-.64l1.21-1.71h9.35l1.22,1.72a21.42,21.42,0,0,1-8.66.63m7.32-3.49h-9.1l-1.66-7.35,2.62-3.73h7.18l2.61,3.73Zm0-11.73,2.83-9,5.2-1.68,5.76,3.59-2.78,9.77L48,58.49Zm-11.83-9,2.74,9-2.47,3.55-8.49-.91-2.78-9.77,5.78-3.59Zm-12.16,2L24.37,58l-1.76,2a21.64,21.64,0,0,1-3.14-12.81ZM57.56,58l2.89-10.11,2-.71a21,21,0,0,1-.12,4.33,21.6,21.6,0,0,1-3,8.53ZM52.09,31.59a4.87,4.87,0,0,0,1.1-.36l.24-.11a21.85,21.85,0,0,1,4.29,4l-2,.48-4.41-3.54Z"/></g></g></svg>