<svg xmlns="http://www.w3.org/2000/svg" viewBox="0 0 102.21 101.15"><defs><style>.cls-1{fill:#25368c;}.cls-2{fill:#fff;}.cls-3{fill:#13110c;}.cls-4{fill:#fac78f;}.cls-5{fill:none;stroke:#fff;stroke-width:0.82px;}.cls-6{fill:#d22417;}</style></defs><g id="Capa_2" data-name="Capa 2"><g id="Capa_1-2" data-name="Capa 1"><path class="cls-1" d="M49.8,100.59c-.33-.18-33.17-17.94-42.87-49.66-7.62-24.88.42-43.61.5-43.8l.15-.32.34.09A53.37,53.37,0,0,0,20.57,8.27,58.09,58.09,0,0,0,49.79.6L50,.48l.2.12A58.09,58.09,0,0,0,79.42,8.27,53.27,53.27,0,0,0,92.07,6.9l.34-.09.15.32c.08.19,8.12,18.92.5,43.8-9.7,31.72-42.54,49.48-42.87,49.66l-.19.1Z"/><path class="cls-2" d="M50,1A58.09,58.09,0,0,0,79.42,8.68,53.8,53.8,0,0,0,92.18,7.3s8.15,18.48.49,43.51C82.9,82.74,50,100.23,50,100.23S17.09,82.74,7.32,50.81c-7.66-25,.49-43.51.49-43.51A53.8,53.8,0,0,0,20.57,8.68,58.14,58.14,0,0,0,50,1M50,0l-.42.24a57.62,57.62,0,0,1-29,7.62A54,54,0,0,1,8,6.51l-.68-.19L7.06,7C7,7.16-1.12,26,6.54,51.05c9.75,31.88,42.74,49.72,43.07,49.9l.39.2.38-.2c.33-.18,33.32-18,43.08-49.9C101.11,26,93,7.16,92.93,7l-.28-.65L92,6.51A54,54,0,0,1,79.42,7.86a57.62,57.62,0,0,1-29-7.62Z"/><path class="cls-3" d="M34.21,23.23s-1.12-2.86.5-3.48,1.49-5,8.21-3.12,9.34.75,12.57,3.37,5.85,6.72,5.23,10.2c0,0,1.37-.37,1.25,1.62s1.49,3.86.49,6.35c0,0,1.75-.25,5.48,9.34A55.89,55.89,0,0,0,77,63.07H32.71s2-3.74,8.47-5.73c0,0,1.59-2.85.75-4.23-.57-.93-6,.21-9.59-.18-1.92-.21-2.75-.57-2.61-3,.05-.91.73-1.19.76-3,0-1.11-.89-.17-.89-2.5,0-.29,0-.63.06-1.06,0,0,1.75-2.09.44-3.15,0,0-2.18.13-2.43-1.33s3.11-5,3.52-6.23.71-2.61.71-2.61a5.33,5.33,0,0,1,1.59-3.64s-1.74-2.06.72-3.18"/><path class="cls-4" d="M33.71,26.84s-1.49,1.74-1.49,3a12.27,12.27,0,0,1-.75,3.24s-3.36,5-3.36,5.6,1.24,1,1.62,1a4.15,4.15,0,0,1,2,.25c.74.38.74-1.24.74-1.24a7.18,7.18,0,0,1,1.14,2.22,3.48,3.48,0,0,0-2.88-.6s.87.87-.12,2.86a6.81,6.81,0,0,1,3.48,1.49l.13.5a24.93,24.93,0,0,0-4.11-.75s-.37,1.12.62,1.37c0,0,2.24.38,1.25,1.5A4.85,4.85,0,0,0,30.22,50c-.24,1.61.13,2.49,2.87,2.49a52.54,52.54,0,0,0,8.09-.5c2-.38,5-3.11,5-3.11S43,56.11,42.38,61a3.84,3.84,0,0,1-1.2-2.66,20.86,20.86,0,0,0-6.84,4.41l31.24-.18s-9.84-4.48-13.07-11l-.25,1.62a12,12,0,0,1-2.49-6.59l-2.12-.38L45.91,43.4h2.24s.25-1-1.62-2c0,0,1.12-.75-1.12-3.61,0,0,1.12-2-1.37-4.48s-4.11-4.49-10.33-6.48"/><path class="cls-3" d="M38.81,31.7a5.25,5.25,0,0,0-3.11-2.12c-2-.37-2.74.25-2.74.25a3.45,3.45,0,0,0,2,4.48s.38-2.61,1-2.24a2,2,0,0,0,1.25.25S37,30.7,38.81,31.7"/><path class="cls-3" d="M42.55,39.79l-4.11,4.6s1.87-2.36-.25-3.85c0,0,1.25-1.12,4.36-.75"/><path class="cls-2" d="M48.77,38.29s1.5,1.37,2.37,6.23l.12-1.87L54,45.39l-3-7.47s.38,2.12-2.24.37"/><path class="cls-2" d="M33.71,26s8.71,3.61,14.56,6.6A37.61,37.61,0,0,1,59.73,41l-1-3.48s1.87,1,2.86.37-.49-7.1-.49-7.1.12,1.87-3.86-.12S39.14,19.22,35.45,20.37c-2,.62-.37,2.86-.37,2.86S32.34,24,33.71,26"/><path class="cls-4" d="M35,80.18s11.52,10,15.25,10.4c0,0,11.89-6.85,14.63-10.52Z"/><path class="cls-5" d="M86.64,15.86S67.12,19.52,50,9.49c-17.12,10-36.64,6.37-36.64,6.37S8.42,30,14.74,50.67c8.07,26.38,35.26,40,35.26,40S77.18,77.05,85.25,50.67C91.57,30,86.64,15.86,86.64,15.86Z"/><rect class="cls-6" x="0.41" y="62.76" width="101.39" height="17.36"/><rect class="cls-5" x="0.41" y="62.76" width="101.39" height="17.36"/><path class="cls-2" d="M12.21,68.75a2.13,2.13,0,0,0-2.16-2c-1.82,0-3,1.33-3,4.44s1.08,4.44,2.76,4.44a2.5,2.5,0,0,0,2.54-2.16l2.4.53c-.1.62-.92,3.59-5.11,3.59-3.19,0-5.3-2.2-5.3-6.4s2.35-6.4,5.73-6.4a4.29,4.29,0,0,1,4.54,3.47Z"/><path class="cls-2" d="M15.69,71.19c0-4.2,2.35-6.4,5.73-6.4s5.73,2.2,5.73,6.4-2.35,6.4-5.73,6.4-5.73-2.2-5.73-6.4m8.75,0c0-3.11-1.2-4.44-3-4.44s-3,1.33-3,4.44,1.2,4.44,3,4.44,3-1.34,3-4.44"/><polygon class="cls-2" points="28.76 65.08 31.33 65.08 31.33 75.27 36.18 75.27 36.18 77.3 28.76 77.3 28.76 65.08"/><path class="cls-2" d="M36.76,71.19c0-4.2,2.35-6.4,5.73-6.4s5.73,2.2,5.73,6.4-2.35,6.4-5.73,6.4-5.73-2.2-5.73-6.4m8.75,0c0-3.11-1.2-4.44-3-4.44s-3,1.33-3,4.44,1.2,4.44,3,4.44,3-1.34,3-4.44"/><path class="cls-2" d="M62,68.75a2.14,2.14,0,0,0-2.17-2c-1.81,0-3,1.33-3,4.44s1.08,4.44,2.76,4.44a2.51,2.51,0,0,0,2.54-2.16l2.4.53c-.11.62-.93,3.59-5.11,3.59-3.19,0-5.3-2.2-5.3-6.4s2.34-6.4,5.72-6.4a4.3,4.3,0,0,1,4.55,3.47Z"/><path class="cls-2" d="M65.5,71.19c0-4.2,2.35-6.4,5.73-6.4S77,67,77,71.19s-2.35,6.4-5.73,6.4-5.73-2.2-5.73-6.4m8.75,0c0-3.11-1.2-4.44-3-4.44s-3,1.33-3,4.44,1.2,4.44,3,4.44,3-1.34,3-4.44"/><polygon class="cls-2" points="78.57 65.08 81.14 65.08 81.14 75.27 86 75.27 86 77.3 78.57 77.3 78.57 65.08"/><path class="cls-2" d="M86.58,71.19c0-4.2,2.35-6.4,5.73-6.4S98,67,98,71.19s-2.35,6.4-5.73,6.4-5.73-2.2-5.73-6.4m8.75,0c0-3.11-1.2-4.44-3-4.44s-3,1.33-3,4.44,1.2,4.44,3,4.44,3-1.34,3-4.44"/><rect class="cls-2" x="49.75" y="70.62" width="2.98" height="1.49"/><path class="cls-2" d="M63,52.86A20.71,20.71,0,0,0,69.68,60s-3-4.67-6.72-7.1"/></g></g></svg>