<svg xmlns="http://www.w3.org/2000/svg" viewBox="0 0 68.54 89.72"><defs><style>.cls-1{fill:#fefefe;}.cls-2{fill:#1d1d1b;}.cls-3{fill:#f2dc00;}.cls-4{fill:#db0720;}</style></defs><g id="Capa_2" data-name="Capa 2"><g id="Capa_1-2" data-name="Capa 1"><path class="cls-1" d="M65,24.24q-30.69,0-61.38,0c0,2.92,0,5.83,0,8.74H64.93c0-2.91,0-5.82,0-8.74M10.14,30.1a.93.93,0,0,0,1.15.69c.54-.16.61-.81.68-1.28.37,0,.75,0,1.13.08A2.28,2.28,0,0,1,12,31.64a2.84,2.84,0,0,1-1.5.19,2.63,2.63,0,0,1-1.74-2.52,5.16,5.16,0,0,1,.5-3.08,2.14,2.14,0,0,1,3.15-.47,2.74,2.74,0,0,1,.75,1.79l-1.08.2c-.14-.48-.16-1.09-.64-1.36a.87.87,0,0,0-1.22.62,5.25,5.25,0,0,0,0,3.09m7.7-.13a1.74,1.74,0,0,1-.92,1.65,2.69,2.69,0,0,1-2.51-.15,2.21,2.21,0,0,1-.69-1.83c0-1.42,0-2.83,0-4.24H14.9c0,1.52-.05,3.05,0,4.56a1,1,0,0,0,.62.87h.59c.25-.16.58-.33.55-.69.05-1.58.12-3.16.09-4.74h1.07c0,1.53,0,3.06,0,4.58m3.94,1.76c-.3-.84-.67-1.67-.91-2.53l-.85,0c0,.85,0,1.71,0,2.56H18.81V25.4c.81,0,1.62,0,2.43,0a1.64,1.64,0,0,1,1.53,1.26,2.36,2.36,0,0,1-.22,1.63c-.18.23-.42.41-.62.63.38.93.78,1.85,1.17,2.78H21.78m1.89,0c.1-2.1,0-4.21,0-6.31h1.21c0,2.11,0,4.21,0,6.32H23.67m3.81-1a1.35,1.35,0,0,0,1.19,0A8.78,8.78,0,0,0,29,29.52a7.43,7.43,0,0,1,1.15.09,3.06,3.06,0,0,1-.79,1.77,2.42,2.42,0,0,1-1.92.45,2.68,2.68,0,0,1-1.73-2.52,4.66,4.66,0,0,1,.64-3.25,2.14,2.14,0,0,1,3.09-.23,3.6,3.6,0,0,1,.73,1.71l-1.14.21c-.12-.49-.15-1.11-.66-1.37a.8.8,0,0,0-1.08.4,4.66,4.66,0,0,0-.34,2,3.47,3.47,0,0,0,.49,1.87M35.19,29a3.42,3.42,0,0,1-.78,2.28,2.24,2.24,0,0,1-2.7.25,2.44,2.44,0,0,1-1-1.57,6.34,6.34,0,0,1,.08-3.09,2.18,2.18,0,0,1,1.71-1.56,2.15,2.15,0,0,1,2.18.93A4.94,4.94,0,0,1,35.19,29m6.62.89A1.79,1.79,0,0,1,41,31.57a2.32,2.32,0,0,1-3.12-.75,40.75,40.75,0,0,1-.16-5.42h1.17c0,1.42,0,2.84,0,4.26.05.4.05,1,.52,1.1s1.25,0,1.27-.6c.15-1.58,0-3.17.07-4.75h1.1c0,1.49,0,3,0,4.48M47,31.72H45.93c-.73-1.52-1.41-3.06-2.13-4.59,0,1.53,0,3.06,0,4.58h-1c0-2.11,0-4.22,0-6.32h1.37c.63,1.37,1.24,2.75,1.89,4.11V25.39h1c0,2.11,0,4.21,0,6.32m1,0V25.4H49.2c0,2.1,0,4.21,0,6.32H48m5.15-.24a8.06,8.06,0,0,1-2.94.24V25.4c1,.05,2.19-.19,3.15.36a3,3,0,0,1,1.27,2.38,3.41,3.41,0,0,1-1.48,3.34m6.67-2.34A3.32,3.32,0,0,1,59,31.28a2.21,2.21,0,0,1-3.13-.15,3.78,3.78,0,0,1-.68-2,5.64,5.64,0,0,1,.36-2.6,2,2,0,0,1,1.57-1.22,2.1,2.1,0,0,1,2.18.95,5,5,0,0,1,.49,2.89"/><path class="cls-1" d="M32.16,26.75a5.52,5.52,0,0,0-.24,2.88c.06.61.47,1.38,1.2,1.18s.72-1.19.84-1.82a5.69,5.69,0,0,0-.3-2.21.84.84,0,0,0-1.5,0"/><path class="cls-1" d="M56.78,26.74a6.14,6.14,0,0,0-.25,2.92c.13.41.21,1,.69,1.12a.86.86,0,0,0,1.14-.64,5.37,5.37,0,0,0-.08-3.34.84.84,0,0,0-1.5-.06"/><path class="cls-1" d="M20,26.37q0,.91,0,1.83A3,3,0,0,0,21.41,28c.2-.43.39-1,0-1.39s-.94-.2-1.41-.25"/><path class="cls-1" d="M51.41,26.4v4.32a1.68,1.68,0,0,0,1.46-.45,3.39,3.39,0,0,0,.29-2.93,1.59,1.59,0,0,0-1.75-.94"/><path class="cls-1" d="M9,36.36v48c1.92,0,3.84,0,5.76,0q0-24,0-48H9"/><path class="cls-1" d="M26,36.35c-1.93,0-3.86,0-5.8,0,0,4.41,0,8.82,0,13.24A17.91,17.91,0,0,1,26,44.52c0-2.72,0-5.44,0-8.17"/><path class="cls-1" d="M37.17,42.56c0-2.07,0-4.13,0-6.2H31.23c0,2.1,0,4.19,0,6.29a18.44,18.44,0,0,1,5.93-.09"/><path class="cls-1" d="M48.09,36.36H42.57v7.93a17.86,17.86,0,0,1,5.6,4.47c0-2.08-.1-4.16,0-6.25-.09-2,.09-4.1,0-6.15"/><path class="cls-1" d="M59.49,36.36h-6q0,24,0,48c2,0,4,0,6,0q0-24,0-48"/><path class="cls-1" d="M29.09,44.56a15.44,15.44,0,0,1,12.61.91c-.13-.44-.27-.88-.44-1.31a19.11,19.11,0,0,0-5.82-1.34A18.31,18.31,0,0,0,28.15,44a9,9,0,0,0,.94.57"/><path class="cls-1" d="M30.74,50.87c2.69,0,5.38,0,8.07,0,1.1-1.32,2.18-2.65,3.33-3.93-.07-.28-.15-.54-.23-.81a14.92,14.92,0,0,0-12.86-1.06,19.56,19.56,0,0,0-1.55,2.18c1.12,1.17,2.18,2.4,3.24,3.62"/><path class="cls-1" d="M39.06,51.27c.74,2.23,1.53,4.44,2.25,6.67q3.18,1.35,6.41,2.56c.55-.66,1.17-1.26,1.68-2a15,15,0,0,0-3.33-8.85,4.09,4.09,0,0,0-1.22-.92c-.82-.49-1.62-1-2.46-1.5-1.08,1.36-2.23,2.66-3.33,4"/><path class="cls-1" d="M22.94,49.36a14.86,14.86,0,0,0-3.4,6.86,11.35,11.35,0,0,0-.23,2.4c.64.85,1.34,1.64,2,2.47,2.28-1.09,4.61-2.1,6.92-3.16.68-2,1.31-4.12,2-6.17,0-.25.3-.56,0-.77-1-1.17-2.09-2.32-3.1-3.51-1.41.61-2.84,1.2-4.21,1.88"/><path class="cls-1" d="M46.37,49.35a15.62,15.62,0,0,1,3.49,8.82h1.85a17.52,17.52,0,0,0-3.64-8.81h-1.7"/><path class="cls-1" d="M17.2,58.67c.54-.15,1.07-.33,1.61-.47a15.74,15.74,0,0,1,3.37-8.68l-1.44,0a17.92,17.92,0,0,0-3.54,9.11"/><path class="cls-1" d="M21.56,67.27a15.45,15.45,0,0,0,7.58,6.2c1.78-1,3.56-2,5.35-3.06,0-2.53,0-5.06,0-7.59-1.93-1.39-3.86-2.77-5.78-4.17-.16-.09-.34-.32-.54-.2-2.24,1-4.48,2-6.73,3,0,1.71,0,3.42,0,5.14a1.05,1.05,0,0,0,.12.63"/><path class="cls-1" d="M47.66,61.1,47.58,61c-2.07-.87-4.19-1.64-6.26-2.53L35,62.81c0,2.54,0,5.07,0,7.61,1.65,1,3.24,2,4.91,2.91a15.32,15.32,0,0,0,7.81-7c0-1.74,0-3.48,0-5.22"/><path class="cls-1" d="M40.18,73.69C39.61,74.78,39,75.86,38.52,77A17.46,17.46,0,0,0,50.45,66.9H47.9a15.77,15.77,0,0,1-7.72,6.79"/><path class="cls-1" d="M28.84,73.82a15.47,15.47,0,0,1-7.67-6.32c-.8,0-1.59,0-2.38,0A17.49,17.49,0,0,0,31,77.1c-.47-.87-1-1.7-1.5-2.57-.18-.27-.31-.62-.65-.71"/><path class="cls-1" d="M20.18,70.68c0,4.56,0,9.12,0,13.69,1.93,0,3.87,0,5.81,0,0-2.88,0-5.75,0-8.63a18.18,18.18,0,0,1-5.8-5.06"/><path class="cls-1" d="M48.14,76.53c-.09-1.67,0-3.35,0-5A17.9,17.9,0,0,1,42.57,76v8.41q2.79,0,5.58,0c0-2.61,0-5.23,0-7.84"/><path class="cls-1" d="M31.23,77.6v6.76a3.5,3.5,0,0,1,3,1.26,3.94,3.94,0,0,1,2.93-1.26h0c0-2.22,0-4.43,0-6.65a18,18,0,0,1-5.94-.1"/><path class="cls-2" d="M25,0c6.2,0,12.4,0,18.59,0,0,1.25.08,2.51-.07,3.76H40.81c0,.79,0,1.58,0,2.36,1.61.19,3.23.32,4.82.61,1.39.21,2.75.54,4.13.77.24-.86.56-1.68.84-2.52-.65-.15-1.29-.33-1.94-.46.34-1.17.69-2.33,1-3.5,6,1.39,12,3.39,17.21,6.86C66.13,9,65.2,10,64.35,11.07l-.68-.39c-1.82,2.75-3.67,5.47-5.48,8.23-.2.35-.54-.11-.78-.2a34,34,0,0,0-11.2-3.79,65.74,65.74,0,0,0-12.13-1h-.63a61.43,61.43,0,0,0-14.8,1.73,26.72,26.72,0,0,0-8.29,3.44C8.54,16.28,6.6,13.5,4.74,10.66l-.87.39C3.08,10,2.23,9,1.51,7.87A44.69,44.69,0,0,1,13.1,2.52a50.73,50.73,0,0,1,5.64-1.45c.26,1.17.76,2.27,1,3.45-.64.17-1.28.3-1.92.45.3.86.61,1.71.9,2.58a62.39,62.39,0,0,1,8.58-1.41c0-.8,0-1.61,0-2.41H25C25,2.49,25,1.24,25,0m.47.47V3.25c5.88.06,11.76,0,17.63,0,0-.93,0-1.87,0-2.81H25.42M10.23,4c.42.85.87,1.68,1.27,2.53a58.87,58.87,0,0,1,7.66-2.35c-.23-.87-.54-1.71-.75-2.58A59.45,59.45,0,0,0,10.23,4m39.06.19a48.05,48.05,0,0,1,7.59,2.38c.42-.86.85-1.72,1.3-2.57a64.23,64.23,0,0,0-8.13-2.41,25.82,25.82,0,0,0-.76,2.6M27.74,3.73c0,.81,0,1.61,0,2.41a80.43,80.43,0,0,1,12.61,0c0-.79,0-1.58,0-2.37-4.2,0-8.4,0-12.6,0M2.16,8C2.79,8.83,3.35,9.7,4,10.45a5.77,5.77,0,0,0,1.49-.79,38.23,38.23,0,0,1,5.6-2.93c-.46-.85-.88-1.72-1.32-2.59A41,41,0,0,0,2.16,8m56.4-3.84c-.41.85-.84,1.7-1.28,2.54a41.15,41.15,0,0,1,5.16,2.65,20.67,20.67,0,0,0,1.81,1.09c.66-.82,1.35-1.62,2-2.45a35.92,35.92,0,0,0-7.7-3.83M5.15,10.44c.45.67.88,1.33,1.33,2A38.38,38.38,0,0,1,18.24,7.67c-.29-.87-.58-1.74-.91-2.61A42.32,42.32,0,0,0,5.15,10.44M51.07,5.07c-.28.87-.61,1.73-.89,2.61A38.67,38.67,0,0,1,62,12.43c.43-.67.87-1.33,1.32-2A42.2,42.2,0,0,0,51.07,5.07M24.37,7c.11,1,.3,2,.44,3A74,74,0,0,1,34,9.38V6.31A75.43,75.43,0,0,0,24.37,7m10.08-.65V9.38a71.5,71.5,0,0,1,9.13.56c.15-1,.29-2,.46-3a73.11,73.11,0,0,0-9.59-.66m10,.72c-.12,1-.31,2-.44,3a53.37,53.37,0,0,1,8.29,1.75c.3-.93.66-1.84.94-2.78A55,55,0,0,0,44.47,7M15.14,9c.29.93.63,1.85.95,2.78A53.77,53.77,0,0,1,24.34,10c-.1-1-.27-2-.42-3a57.11,57.11,0,0,0-8.78,2M6.73,12.8c.5.77,1,1.52,1.52,2.28a34.9,34.9,0,0,1,7.42-3.21c-.35-.9-.63-1.82-1-2.73a33,33,0,0,0-8,3.66m47-3.67c-.3.93-.66,1.83-.93,2.77a32.28,32.28,0,0,1,7.42,3.19c.49-.77,1-1.52,1.51-2.29a33.34,33.34,0,0,0-8-3.67m-24,.79c.05,1.22.08,2.44.16,3.66,2.93-.12,5.87-.12,8.8,0,.12-1.21.11-2.44.16-3.65-.91,0-1.83-.06-2.74-.09-2.13-.16-4.25.05-6.38.08m-9.13,1.19c.24,1.16.46,2.32.68,3.48a63.77,63.77,0,0,1,8.15-.95c0-1.23-.11-2.46-.17-3.69a68.23,68.23,0,0,0-8.66,1.16M39.28,10c0,1.22-.15,2.44-.15,3.66a62,62,0,0,1,8,.94c.23-1.16.44-2.33.68-3.48A58.5,58.5,0,0,0,39.28,10M12.1,13.63c.46,1.1,1,2.17,1.49,3.25a40.66,40.66,0,0,1,7.25-2.19c-.25-1.16-.48-2.33-.71-3.49a47,47,0,0,0-8,2.43m36.17-2.44c-.24,1.17-.47,2.33-.7,3.5a38.66,38.66,0,0,1,7.23,2.19c.53-1.08,1-2.16,1.52-3.25a47.9,47.9,0,0,0-8-2.44m8.46,2.62c-.47,1.09-1,2.15-1.48,3.25a24.16,24.16,0,0,1,2.63,1.35c.78-.91,1.35-2,2-3a28.25,28.25,0,0,0-3.19-1.64M8.5,15.45c.66,1,1.35,2,2,3a18.41,18.41,0,0,1,2.67-1.41c-.49-1.09-1-2.17-1.5-3.25A31.68,31.68,0,0,0,8.5,15.45"/><path class="cls-2" d="M0,20.71c2.56-.06,5.11,0,7.67,0H68.51c0,6.73,0,13.46,0,20.19q0,19.49,0,39c-.1,1.78.3,3.66-.45,5.35a4,4,0,0,1-2,2.16,6.07,6.07,0,0,1-2.7.46H37.73a4.63,4.63,0,0,0-2.66.75,2,2,0,0,0-.64,1.17c-.5-.08-.52-.66-.8-1A3.36,3.36,0,0,0,31,87.8H5.2A5.25,5.25,0,0,1,.43,84.57C-.2,83.08.06,81.42,0,79.84V20.71M.48,81.65A6.62,6.62,0,0,0,1,84.79a4.8,4.8,0,0,0,4.48,2.53H31a3.77,3.77,0,0,1,3.29,1.44,4.32,4.32,0,0,1,3.47-1.44H64a4,4,0,0,0,2.88-1.12,4.74,4.74,0,0,0,1.18-3.38q0-30.83,0-61.66-33.79,0-67.57,0,0,30.26,0,60.5"/><path class="cls-2" d="M3.12,79.67q0-27.95,0-55.88h62.3c0,8.72,0,17.45,0,26.17V79.34a8.66,8.66,0,0,1-.16,2.33A3.92,3.92,0,0,1,63,84.45a6.22,6.22,0,0,1-2.64.31c-3.2,0-6.39,0-9.59,0H37.58a4,4,0,0,0-2.86,1c-.21.22-.21.88-.62.71a2.74,2.74,0,0,0-.65-1,4.19,4.19,0,0,0-2.64-.67c-6.83,0-13.66,0-20.49,0-.78,0-1.55,0-2.32,0a4.8,4.8,0,0,1-3.54-1.39,5,5,0,0,1-1.34-3.71m.45-55.43c0,2.92,0,5.83,0,8.74H64.93c0-2.91,0-5.82,0-8.74q-30.69,0-61.38,0m0,9.15a12.17,12.17,0,0,0,0,2.56q30.68,0,61.35,0,0-1.27,0-2.55H3.57m0,3.14c0,.67,0,1.34,0,2v41a4.82,4.82,0,0,0,1.36,3.65A5.06,5.06,0,0,0,9,84.37c1.92,0,3.84,0,5.76,0h5.44c1.93,0,3.87,0,5.81,0,1.75,0,3.51,0,5.26,0a3.48,3.48,0,0,1,3,1.27,3.92,3.92,0,0,1,2.93-1.27h0c1.8.05,3.6,0,5.4,0s3.72,0,5.58,0H53.5c2,0,4,0,6,0A8.08,8.08,0,0,0,63,84a3.66,3.66,0,0,0,1.95-3.16c0-8.21.06-16.4,0-24.6.07-3.09,0-6.17,0-9.26.11-2.25,0-4.51,0-6.77-.12-1.28.14-2.57,0-3.85-1.81,0-3.63,0-5.44,0h-6c-1.8,0-3.61,0-5.41,0H31.23c-1.75,0-3.51,0-5.27,0-1.93,0-3.86,0-5.8,0s-3.63,0-5.45,0H9c-1.77,0-3.54,0-5.31,0a1.92,1.92,0,0,1-.13.17"/><path class="cls-2" d="M9.22,26.23a2.14,2.14,0,0,1,3.15-.47,2.74,2.74,0,0,1,.75,1.79l-1.08.2c-.14-.48-.16-1.09-.64-1.36a.87.87,0,0,0-1.22.62,5.25,5.25,0,0,0,0,3.09.93.93,0,0,0,1.15.69c.54-.16.61-.81.68-1.28.37,0,.75,0,1.13.08A2.28,2.28,0,0,1,12,31.64a2.84,2.84,0,0,1-1.5.19,2.63,2.63,0,0,1-1.74-2.52,5.16,5.16,0,0,1,.5-3.08"/><path class="cls-2" d="M32.52,25.3a2.15,2.15,0,0,1,2.18.93A4.94,4.94,0,0,1,35.19,29a3.46,3.46,0,0,1-.77,2.28,2.26,2.26,0,0,1-2.71.25,2.44,2.44,0,0,1-1-1.57,6.34,6.34,0,0,1,.08-3.09,2.18,2.18,0,0,1,1.71-1.56m-.36,1.45a5.52,5.52,0,0,0-.24,2.88c.06.61.47,1.38,1.2,1.18s.72-1.19.84-1.82a5.69,5.69,0,0,0-.3-2.21.84.84,0,0,0-1.5,0"/><path class="cls-2" d="M57.14,25.3a2.1,2.1,0,0,1,2.18.95,5,5,0,0,1,.49,2.89A3.32,3.32,0,0,1,59,31.28a2.21,2.21,0,0,1-3.13-.15,3.87,3.87,0,0,1-.68-2,5.51,5.51,0,0,1,.36-2.6,2,2,0,0,1,1.57-1.22m-.36,1.44a6.14,6.14,0,0,0-.25,2.92c.13.41.21,1,.69,1.12a.86.86,0,0,0,1.14-.64,5.37,5.37,0,0,0-.08-3.34.84.84,0,0,0-1.5-.06"/><path class="cls-2" d="M13.72,25.4H14.9c0,1.52-.05,3.05,0,4.56a1,1,0,0,0,.62.87h.59c.25-.16.58-.33.55-.69.05-1.58.11-3.16.09-4.74h1.07c0,1.53,0,3.06,0,4.58a1.74,1.74,0,0,1-.92,1.65,2.69,2.69,0,0,1-2.51-.15,2.21,2.21,0,0,1-.69-1.83c0-1.42,0-2.83,0-4.24"/><path class="cls-2" d="M18.81,25.4c.81,0,1.62,0,2.43,0a1.64,1.64,0,0,1,1.53,1.26,2.36,2.36,0,0,1-.22,1.63c-.18.23-.42.41-.62.63.38.93.78,1.85,1.17,2.78H21.78c-.3-.84-.67-1.67-.91-2.53l-.85,0c0,.85,0,1.71,0,2.56H18.81V25.4m1.21,1q0,.91,0,1.83A3,3,0,0,0,21.41,28c.2-.43.39-1,0-1.39s-.94-.2-1.41-.25"/><path class="cls-2" d="M23.71,25.4h1.21c0,2.11,0,4.21,0,6.32H23.67c.1-2.1,0-4.21,0-6.31"/><path class="cls-2" d="M26.39,26.06a2.14,2.14,0,0,1,3.09-.23,3.6,3.6,0,0,1,.73,1.71l-1.14.21c-.12-.49-.15-1.11-.66-1.37a.8.8,0,0,0-1.08.4,4.66,4.66,0,0,0-.34,2,3.49,3.49,0,0,0,.49,1.87,1.35,1.35,0,0,0,1.19,0A8.78,8.78,0,0,0,29,29.52a7.43,7.43,0,0,1,1.15.09,3.06,3.06,0,0,1-.79,1.77,2.42,2.42,0,0,1-1.92.45,2.68,2.68,0,0,1-1.73-2.53,4.64,4.64,0,0,1,.64-3.24"/><path class="cls-2" d="M37.68,25.4h1.17c0,1.42,0,2.84,0,4.26.05.4.05,1,.52,1.1s1.25,0,1.27-.6c.15-1.58,0-3.17.07-4.75h1.1c0,1.49,0,3,0,4.48A1.8,1.8,0,0,1,41,31.57a2.31,2.31,0,0,1-3.12-.75,40.8,40.8,0,0,1-.16-5.42"/><path class="cls-2" d="M42.76,25.4h1.37c.63,1.37,1.24,2.75,1.89,4.11V25.39h1c0,2.11,0,4.21,0,6.32H45.93c-.73-1.52-1.41-3.06-2.13-4.59,0,1.53,0,3.06,0,4.58h-1V25.4"/><path class="cls-2" d="M48,25.4H49.2c0,2.1,0,4.21,0,6.32H48c0-2.11,0-4.22,0-6.32"/><path class="cls-2" d="M50.2,25.4c1,.05,2.19-.19,3.15.36a3,3,0,0,1,1.27,2.38,3.41,3.41,0,0,1-1.48,3.34,8.06,8.06,0,0,1-2.94.24V25.4m1.21,1v4.32a1.68,1.68,0,0,0,1.46-.45,3.39,3.39,0,0,0,.29-2.93,1.59,1.59,0,0,0-1.75-.94"/><path class="cls-2" d="M31.24,42.65a18.44,18.44,0,0,1,5.93-.09,18,18,0,0,1,5.4,1.73A17.66,17.66,0,0,1,51.18,54,17.77,17.77,0,0,1,31.23,77.6,18.58,18.58,0,0,1,26,75.74a18.18,18.18,0,0,1-5.8-5.06,17.82,17.82,0,0,1,0-21.08A17.91,17.91,0,0,1,26,44.52a18.32,18.32,0,0,1,5.27-1.87M28.15,44a9,9,0,0,0,.94.57,15.44,15.44,0,0,1,12.61.91c-.13-.44-.27-.88-.44-1.31a19.11,19.11,0,0,0-5.82-1.34A18.31,18.31,0,0,0,28.15,44m.9,1.09a18.56,18.56,0,0,0-1.55,2.17c1.12,1.17,2.18,2.4,3.24,3.62,2.69,0,5.38,0,8.07,0,1.1-1.32,2.18-2.65,3.33-3.93-.07-.27-.15-.54-.23-.82a14.92,14.92,0,0,0-12.86-1m13.34,2.2c-1.08,1.36-2.23,2.65-3.33,4,.74,2.23,1.53,4.44,2.25,6.67,2.12.9,4.26,1.76,6.41,2.56.55-.65,1.17-1.26,1.68-2a15,15,0,0,0-3.33-8.85,4.09,4.09,0,0,0-1.22-.92c-.82-.49-1.62-1-2.46-1.5M22.94,49.36a14.86,14.86,0,0,0-3.4,6.86,11.35,11.35,0,0,0-.23,2.4c.64.85,1.34,1.64,2,2.47,2.28-1.09,4.61-2.1,6.92-3.16.68-2,1.31-4.12,2-6.17,0-.25.3-.56,0-.77-1-1.17-2.09-2.32-3.1-3.51-1.41.61-2.84,1.2-4.21,1.88m23.43,0a15.62,15.62,0,0,1,3.49,8.82h1.85a17.52,17.52,0,0,0-3.64-8.81h-1.7m-25.63.21a17.92,17.92,0,0,0-3.54,9.11c.54-.15,1.07-.33,1.61-.47a15.74,15.74,0,0,1,3.37-8.68l-1.44,0m.71,11.94c0,1.71,0,3.42,0,5.14a1.05,1.05,0,0,0,.12.63,15.45,15.45,0,0,0,7.58,6.2c1.78-1,3.56-2,5.35-3.06,0-2.53,0-5.06,0-7.59-1.92-1.39-3.86-2.77-5.78-4.17-.16-.09-.34-.32-.54-.2-2.24,1-4.48,2-6.73,3M35,62.81c0,2.54,0,5.07,0,7.61,1.65,1,3.24,2,4.91,2.91a15.32,15.32,0,0,0,7.81-7c0-1.74,0-3.48,0-5.22L47.58,61c-2.07-.87-4.19-1.64-6.26-2.53L35,62.81m5.22,10.88C39.61,74.78,39,75.86,38.52,77A17.46,17.46,0,0,0,50.45,66.9H47.9a15.77,15.77,0,0,1-7.72,6.79M18.79,67.48A17.49,17.49,0,0,0,31,77.1c-.47-.87-1-1.7-1.5-2.57-.18-.27-.31-.62-.65-.71a15.53,15.53,0,0,1-7.68-6.32c-.79,0-1.58,0-2.37,0"/><path class="cls-3" d="M25.42.47c5.88,0,11.76,0,17.64,0,0,.93,0,1.87,0,2.8-5.87,0-11.75,0-17.63,0V.47"/><path class="cls-3" d="M10.23,4a59.45,59.45,0,0,1,8.18-2.4c.21.87.52,1.71.75,2.58A58.87,58.87,0,0,0,11.5,6.53c-.4-.85-.85-1.68-1.27-2.53"/><path class="cls-3" d="M49.29,4.19a23.45,23.45,0,0,1,.76-2.6A64.23,64.23,0,0,1,58.18,4c-.45.85-.88,1.7-1.3,2.57a48.05,48.05,0,0,0-7.59-2.38"/><path class="cls-3" d="M27.74,3.73c4.2,0,8.4,0,12.6,0,0,.79,0,1.58,0,2.37a80.43,80.43,0,0,0-12.61,0c0-.8,0-1.6,0-2.41"/><path class="cls-3" d="M2.16,8A41,41,0,0,1,9.81,4.14c.44.87.86,1.74,1.32,2.59a38.23,38.23,0,0,0-5.6,2.93A5.77,5.77,0,0,1,4,10.45C3.35,9.7,2.79,8.83,2.16,8"/><path class="cls-3" d="M58.56,4.18A35.5,35.5,0,0,1,66.26,8c-.66.82-1.35,1.62-2,2.44a18.48,18.48,0,0,1-1.81-1.09,41.15,41.15,0,0,0-5.16-2.65c.44-.84.87-1.69,1.28-2.54"/><path class="cls-3" d="M5.15,10.44A42.44,42.44,0,0,1,17.33,5.06c.33.87.62,1.74.91,2.61A38.22,38.22,0,0,0,6.49,12.43c-.46-.66-.89-1.33-1.34-2"/><path class="cls-3" d="M51.07,5.07a42.2,42.2,0,0,1,12.21,5.37c-.45.66-.89,1.32-1.32,2A38.67,38.67,0,0,0,50.18,7.68c.28-.88.61-1.74.89-2.61"/><path class="cls-3" d="M24.37,7A75.43,75.43,0,0,1,34,6.31V9.38a74,74,0,0,0-9.17.55c-.14-1-.33-2-.44-3"/><path class="cls-3" d="M34.45,6.31A73.11,73.11,0,0,1,44,7c-.17,1-.31,2-.46,3a71.5,71.5,0,0,0-9.13-.56V6.31"/><path class="cls-3" d="M44.47,7a55,55,0,0,1,8.79,2c-.28.94-.64,1.85-.95,2.78A53,53,0,0,0,44,10c.13-1,.32-2,.44-3"/><path class="cls-3" d="M15.14,9A57.11,57.11,0,0,1,23.92,7c.15,1,.32,2,.42,3a54,54,0,0,0-8.25,1.74c-.32-.92-.66-1.85-.95-2.78"/><path class="cls-3" d="M6.73,12.8a32.56,32.56,0,0,1,8-3.65c.33.9.61,1.82,1,2.72a34.9,34.9,0,0,0-7.42,3.21c-.51-.76-1-1.51-1.52-2.28"/><path class="cls-3" d="M53.69,9.13a33.34,33.34,0,0,1,8,3.67c-.49.77-1,1.52-1.51,2.29a32.28,32.28,0,0,0-7.42-3.19c.27-.94.63-1.84.93-2.77"/><path class="cls-3" d="M29.7,9.92c2.13,0,4.25-.24,6.38-.08.91,0,1.83.05,2.74.09,0,1.21,0,2.44-.16,3.65-2.93-.12-5.87-.12-8.8,0-.08-1.22-.11-2.44-.16-3.66"/><path class="cls-3" d="M20.57,11.11A68.23,68.23,0,0,1,29.23,10c.06,1.23.15,2.46.17,3.69a63.77,63.77,0,0,0-8.15.95c-.22-1.16-.44-2.32-.68-3.48"/><path class="cls-3" d="M39.28,10a58.5,58.5,0,0,1,8.55,1.12c-.24,1.15-.45,2.32-.68,3.48a61.92,61.92,0,0,0-8-.94c0-1.22.14-2.44.16-3.66"/><path class="cls-3" d="M12.1,13.63a47,47,0,0,1,8-2.43c.23,1.16.46,2.33.71,3.49a40.66,40.66,0,0,0-7.25,2.19c-.5-1.08-1-2.15-1.49-3.25"/><path class="cls-3" d="M48.27,11.19a47.9,47.9,0,0,1,8,2.44c-.49,1.09-1,2.17-1.52,3.25a39.42,39.42,0,0,0-7.23-2.19c.23-1.17.46-2.33.7-3.5"/><path class="cls-3" d="M56.73,13.81a28.25,28.25,0,0,1,3.19,1.64c-.69,1-1.26,2.05-2,3a24.16,24.16,0,0,0-2.63-1.35c.45-1.1,1-2.16,1.48-3.25"/><path class="cls-3" d="M8.5,15.45a31.68,31.68,0,0,1,3.17-1.64c.5,1.08,1,2.16,1.5,3.25a18.41,18.41,0,0,0-2.67,1.41c-.65-1-1.34-2-2-3"/><path class="cls-3" d="M.48,81.65q0-30.24,0-60.5,33.78,0,67.57,0,0,30.84,0,61.66a4.74,4.74,0,0,1-1.18,3.38A4,4,0,0,1,64,87.31H37.71a4.32,4.32,0,0,0-3.46,1.44A3.77,3.77,0,0,0,31,87.31H5.52A4.8,4.8,0,0,1,1,84.79a6.62,6.62,0,0,1-.56-3.14m2.64-2a5,5,0,0,0,1.34,3.71A4.8,4.8,0,0,0,8,84.77c.77,0,1.54,0,2.31,0,6.84,0,13.67,0,20.5,0a4.19,4.19,0,0,1,2.64.67,2.74,2.74,0,0,1,.65,1c.41.17.41-.49.62-.71a4,4,0,0,1,2.86-1h13.2c3.19,0,6.39,0,9.59,0A6.22,6.22,0,0,0,63,84.45a3.92,3.92,0,0,0,2.23-2.77,8.76,8.76,0,0,0,.16-2.34V50c0-8.72,0-17.45,0-26.17H3.11q0,27.93,0,55.88"/><path class="cls-3" d="M3.57,33.39H64.94q0,1.28,0,2.55Q34.27,36,3.59,36a12.17,12.17,0,0,1,0-2.56"/><path class="cls-4" d="M3.65,36.36a1.92,1.92,0,0,1-.13.17c0,.67,0,1.34,0,2v41a4.82,4.82,0,0,0,1.36,3.65A5.06,5.06,0,0,0,9,84.37v-48c-1.77,0-3.54,0-5.31,0"/><path class="cls-4" d="M16.84,62.17A17.71,17.71,0,0,1,20.17,49.6c0-4.42,0-8.83,0-13.24-1.81,0-3.63,0-5.45,0q0,24,0,48h5.44c0-4.57,0-9.13,0-13.69a17.72,17.72,0,0,1-3.34-8.51"/><path class="cls-4" d="M31.23,36.36c-1.75,0-3.51,0-5.27,0,0,2.73,0,5.45,0,8.17a18.32,18.32,0,0,1,5.27-1.87c0-2.1,0-4.19,0-6.29"/><path class="cls-4" d="M37.17,36.36c0,2.07,0,4.13,0,6.2a18,18,0,0,1,5.4,1.73c0-2.65,0-5.29,0-7.93h-5.4"/><path class="cls-4" d="M48.09,36.36c.13,2-.05,4.1,0,6.15-.06,2.09,0,4.17,0,6.25a17.83,17.83,0,0,1,3,5.25,17.73,17.73,0,0,1-3,17.49c0,1.68-.11,3.36,0,5,0,2.61,0,5.23,0,7.84H53.5q0-24,0-48c-1.8,0-3.61,0-5.41,0"/><path class="cls-4" d="M65,40.2c-.13-1.28.13-2.57-.06-3.85-1.81,0-3.63,0-5.44,0q0,24,0,48A8.08,8.08,0,0,0,63,84a3.65,3.65,0,0,0,1.95-3.16c0-8.21.06-16.4,0-24.6.07-3.09,0-6.17,0-9.26.11-2.25,0-4.51,0-6.77"/><path class="cls-4" d="M26,84.37c1.75,0,3.51,0,5.26,0V77.6A18.58,18.58,0,0,1,26,75.74c0,2.88,0,5.75,0,8.63"/><path class="cls-4" d="M37.17,77.7c0,2.22,0,4.43,0,6.65,1.8.05,3.6,0,5.4,0V76a18.43,18.43,0,0,1-5.4,1.73"/></g></g></svg>