<svg xmlns="http://www.w3.org/2000/svg" viewBox="0 0 82.89 125.09"><defs><style>.cls-1{fill:#fff;}.cls-2{fill:none;stroke:#164194;stroke-miterlimit:3.86;stroke-width:0.73px;}.cls-3{fill:#164194;}.cls-4{fill:#e30613;}.cls-5{fill:#e32021;}</style></defs><g id="Capa_2" data-name="Capa 2"><g id="Capa_1-2" data-name="Capa 1"><path class="cls-1" d="M82.89,0V83.65A41.45,41.45,0,0,1,0,83.65V0Z"/><path class="cls-1" d="M13,13V83.65a28.44,28.44,0,1,0,56.87,0V13Z"/><line class="cls-2" x1="14.89" y1="14.43" x2="67.99" y2="14.43"/><line class="cls-2" x1="14.89" y1="16.74" x2="67.99" y2="16.74"/><line class="cls-2" x1="14.89" y1="19.06" x2="67.99" y2="19.06"/><line class="cls-2" x1="14.89" y1="21.38" x2="67.99" y2="21.38"/><line class="cls-2" x1="14.89" y1="23.69" x2="67.99" y2="23.69"/><line class="cls-2" x1="14.89" y1="26.01" x2="67.99" y2="26.01"/><line class="cls-2" x1="14.89" y1="28.33" x2="67.99" y2="28.33"/><line class="cls-2" x1="14.89" y1="30.64" x2="67.99" y2="30.64"/><line class="cls-2" x1="14.89" y1="32.96" x2="67.99" y2="32.96"/><line class="cls-2" x1="14.89" y1="35.28" x2="67.99" y2="35.28"/><line class="cls-2" x1="14.89" y1="37.59" x2="67.99" y2="37.59"/><line class="cls-2" x1="14.89" y1="39.91" x2="67.99" y2="39.91"/><line class="cls-2" x1="14.89" y1="42.22" x2="67.99" y2="42.22"/><line class="cls-2" x1="14.89" y1="44.54" x2="67.99" y2="44.54"/><line class="cls-2" x1="14.89" y1="46.86" x2="67.99" y2="46.86"/><line class="cls-2" x1="14.89" y1="49.17" x2="67.99" y2="49.17"/><line class="cls-2" x1="14.89" y1="51.49" x2="67.99" y2="51.49"/><line class="cls-2" x1="14.89" y1="53.81" x2="67.99" y2="53.81"/><line class="cls-2" x1="14.89" y1="56.12" x2="67.99" y2="56.12"/><line class="cls-2" x1="14.89" y1="58.44" x2="67.99" y2="58.44"/><line class="cls-2" x1="14.89" y1="60.76" x2="67.99" y2="60.76"/><line class="cls-2" x1="14.89" y1="63.07" x2="67.99" y2="63.07"/><line class="cls-2" x1="14.89" y1="65.39" x2="67.99" y2="65.39"/><line class="cls-2" x1="14.89" y1="67.71" x2="67.99" y2="67.71"/><line class="cls-2" x1="14.89" y1="70.02" x2="67.99" y2="70.02"/><line class="cls-2" x1="14.89" y1="72.34" x2="67.99" y2="72.34"/><line class="cls-2" x1="14.89" y1="74.65" x2="67.99" y2="74.65"/><line class="cls-2" x1="14.89" y1="76.97" x2="67.99" y2="76.97"/><path class="cls-1" d="M15.19,83.87a26.25,26.25,0,1,1,26.25,26.25A26.25,26.25,0,0,1,15.19,83.87"/><path class="cls-3" d="M33.3,59.17a26,26,0,0,0-12.85,9.36l3.22,2.76,7-2.14L34.82,63ZM15.44,83.9A25.91,25.91,0,0,0,20.26,99l3.45-2.29.15-7.32-4.43-5.62Zm18.12,24.76a26.3,26.3,0,0,0,15.77,0l-1-4.26-6.86-2.52-6.82,2.38ZM62.63,99A25.91,25.91,0,0,0,67.45,83.9l-3.93-.17-4.43,5.62.15,7.37Zm-.19-30.43a26,26,0,0,0-12.85-9.36l-1.54,3.9.08,0,4.1,6.13,7,2.12Zm-21-11.15A26.49,26.49,0,1,1,15,83.87,26.49,26.49,0,0,1,41.44,57.38m6.06,6.16h-12l-4,5.95,4,5.36H47.43l4-5.36ZM23.84,72l-1.93,5.6L20,83.15l4.4,5.58,6.87-2.36L33,81l1.82-5.62-4-5.37-7,2.11Zm.69,24.5,5,3.48,4.93,3.45L41,101.16V94.32l-4.79-3.47-5-3.62-6.61,2.28ZM62.89,83.21,61,77.64l-1.92-5.57L52.13,70,48,75.39,49.85,81l1.75,5.38,6.94,2.39ZM48.35,103.55l5-3.53,5-3.52-.14-7-6.65-2.29-5,3.63-4.79,3.47v6.84Z"/><path class="cls-4" d="M13,13V83.65a28.44,28.44,0,1,0,56.87,0V13Zm-1.63-1.63H71.51V83.65a30.07,30.07,0,1,1-60.13,0Z"/><path class="cls-1" d="M47.26,50.48a7.46,7.46,0,0,0,0-.95,5.43,5.43,0,0,1,.09-.81c0-.66-.18-1.3-.19-2a10.39,10.39,0,0,1-.06-1.58L46.88,45,45,44.81h-.09l-.72.05a5.56,5.56,0,0,1-.82.08,6.18,6.18,0,0,1-1.06,0,11,11,0,0,1-1.62,0c-.51-.07-1,0-1.53-.11s-1.1-.2-1.64-.32a6.78,6.78,0,0,1-1-.27l-.17,0c-.26-.11-.53-.19-.8-.29l-.89-.35-1,1.09c.34,0,.61.11.57.23-.11.32-.79,1.52-.88,1.68s-.67,1-.89,1.25a4.49,4.49,0,0,1-.86.8,2.25,2.25,0,0,0-.4.35c-.1.1-.26.36-.37.4s.92.84.92.84l-.12.08.27.17a1.11,1.11,0,0,0-.09.4h-.21a1,1,0,0,1,0,.62,12,12,0,0,1-.55,1.22c.05.19.09.31.09.31l-.08.19-.43.5-.46.45.18,1.34a4.13,4.13,0,0,0,.46.49,2.74,2.74,0,0,1,.6,0s.7.59.73.7a10.38,10.38,0,0,0,.93,1l0,.52a6.06,6.06,0,0,1-.67.16l-1.11-.24-.56-.3-.4-.16-.2-1s-.28-.25-.32-.23l-.22.2L29,56.49s-.24-.5-.27-.61-.08-1-.09-1.31a2.05,2.05,0,0,0-.21-.66l-.28-1.51s-.17-1.52-.23-1.84-.12-1.16-.12-1.16l.31-.3.08-.16a2,2,0,0,1-.33-.43c-.15-.24-.46-.29-.62-.52a7.66,7.66,0,0,0-.91-.8c-.2-.2-.38-.43-.6-.61s-.07-.3-.09-.44a.66.66,0,0,1-.24-.71h.66a2.51,2.51,0,0,0,.07.86,5.93,5.93,0,0,1,.62-.4,1.58,1.58,0,0,0,.49-.09,2.88,2.88,0,0,0,.59-.06l-.43-.16a4,4,0,0,0-.56-.25c.24-.28.66-.2.94-.45,0-.23,0-.46,0-.7s-.33-.38-.49-.59a6.61,6.61,0,0,1-.44-.6,7.06,7.06,0,0,1-.94-4.31,1.84,1.84,0,0,0,.05-.84l.14.17a5.81,5.81,0,0,1,.05-.72c.1-.21.24-.4.35-.6a2.21,2.21,0,0,0,.16-.35l.24-.44a4.07,4.07,0,0,0,.58-.52A2.81,2.81,0,0,0,28,35c.18-.17.33-.39.57-.46a2.22,2.22,0,0,1,.59-.31A5.48,5.48,0,0,1,30.33,34a6.44,6.44,0,0,0,.87-.1c0,.19-.09.37-.1.55a2.52,2.52,0,0,0,.21.25l.29-.14c0-.16,0-.32,0-.48a9.41,9.41,0,0,1,1.49.15c1.17.11,2.33.32,3.5.38a.3.3,0,0,1,.16,0h2.57a3.69,3.69,0,0,1,.94,0l.32-.14c.57-.16,1.16-.2,1.74-.34.4-.25.84-.45,1.22-.73.22-.19.42-.41.62-.62h.14a1,1,0,0,1,.07.71c-.1,0-.13.1-.16.18h.1c.1-.16.2-.32.31-.48a3.13,3.13,0,0,1,.09-1.06l.22-.15L45,32a2.05,2.05,0,0,0,.09.43,3,3,0,0,1,.2-.29l.82-1.24,1.1-4.11,1.5-3.26.71-1s1.31-.78,2.25-1.24l.11-1.06s.13-.38.15-.47.28-.62.28-.62a7.41,7.41,0,0,0,.71-.34c0-.05.92.13.95.28s.46,1.12.47,1.18.29.33.29.36-.05,1.07-.07,1.4l.33.35.3.1a1.77,1.77,0,0,0,.62.71h.48c0,.26,0,.53,0,.79.4.43.65,1,1.09,1.39.27.18.29.55.52.77s.43.42.63.65l.18.27v.18a2.57,2.57,0,0,1,.44.49,1,1,0,0,0,.12-.41l.07.09a.39.39,0,0,0,0,.24l-.08.1,0,.36h.17a2.66,2.66,0,0,1-.26.6l0,.21a3,3,0,0,0-.29.32.42.42,0,0,1,0,.38.47.47,0,0,1-.27.15c-.23.22-.58.12-.87.11a1.17,1.17,0,0,1-.94-.62l-.06,0h0l-.52-.88-.92-.7L54,27.49v.05l-.2,0a1.3,1.3,0,0,1-.3.13l-.86.35.27,2,.23,3.37,1,.32L55.4,36a5.15,5.15,0,0,1,0,2.6l.46.18c.2,0,.4,0,.61,0,1.38-.1,2.75-.36,4.14-.36.3.33.74.52,1.06.84l.41.18.07.43.11,1.86.05.41.45,1,.11.76-.09.22-.06.47-.49.73-.45.87-.1.33.16,0-.53.57a2.51,2.51,0,0,0-.77.19c-.1.12-.94.72-.94.72l-.3-.08L59,47.15l.15-.61,1.12-1.86.6-.36.31,0,.07-.24-.42-.43.07-.49,0-.89-.19-.84,0-.41.06-.22a2.79,2.79,0,0,0-.14-.47,3,3,0,0,0-1.11.18,2.33,2.33,0,0,1-1.1.77c-.16.07-.33,0-.5,0l.17.2-.49.34H57.3a13.25,13.25,0,0,0-1.45.87,5.09,5.09,0,0,1-.63.39,7.37,7.37,0,0,1-1.82.38A12,12,0,0,1,52,43a3.59,3.59,0,0,0-.39-.06,1.53,1.53,0,0,0-.19.3,1.59,1.59,0,0,1-.39.53l-.42.25h-.44l-.19.2v.32l-.11-.13a4.36,4.36,0,0,0-.47,1.7A11.27,11.27,0,0,1,49,48.58a17.61,17.61,0,0,0-.15,2.18l.09,0,.22.43-.1.31-.45,1-.22,1.54.43,2,.91.87h.58s1.73,1.81,1.8,1.86,0,.22,0,.22l-.83.2a4,4,0,0,1-.77.12,18,18,0,0,1-1.87-.76l.06-.75v-.38l-1.11-.35-.43-1s0-2.27,0-2.34-.1-1.92-.1-1.92,0-1.15,0-1.32Z"/><path class="cls-3" d="M17.21,104.31l.62.66-1.46,4.61L21.2,108l.61.58L17.88,114l-1.26-1,2.65-3.51L14.67,111l-.32-.29,1.36-4.41-3.18,2.61-.63-.68Zm7.13,6,3.36,1.86-.39.7-2-1.1-1,1.82,2,1.1-.37.68-2-1.11-1.18,2.15,2,1.1-.38.68L21,116.38Zm23.27,4.15,1.55-.33L50.6,121l-1.54.33Zm-6.87.73,2.8-.09a1.9,1.9,0,0,1,2,1.9,1.82,1.82,0,0,1-1.81,2l-1.37,0,.1,2.91-1.48,0Zm1.51.53.09,2.75.75,0c.63,0,1-.57,1-1.42s-.52-1.35-1.08-1.34Zm-6.53-1,1.58.13-.61,6.93-1.57-.13Zm21.8-4.18,1.31-.88,3.46,5.12,1.9-1.29.44.65-3.21,2.17Zm-5.44,2.51,1.46-.59,2.32,5.72,2.13-.86.29.73-3.59,1.45Zm-22.08,0,1.5.48-1.91,5.88,2.19.71-.24.74-3.69-1.2ZM67.05,108l-2-.83.92,1.92ZM64,105.16l6.93,2.68-1.17,1.29-1.89-.79-1.5,1.51.9,1.89-.69.71-3.1-6.79ZM35.24,6.76a3,3,0,0,1,3.32-3.07,3,3,0,0,1,3.32,3.07c0,2.48-2,3.07-3.32,3.07s-3.32-.59-3.32-3.07m1.49,0c0,1.21.78,2.54,1.83,2.54S40.39,8,40.39,6.76s-.78-2.54-1.83-2.54-1.83,1.33-1.83,2.54m23.8-3h3.29v.69h-2V6.23h2v.66h-2V9h2v.66H60.53Zm8.54-.08A3.19,3.19,0,0,1,70.49,4l-.22,1-.21,0a1.42,1.42,0,0,0-1.17-.76.89.89,0,0,0-.87.81c0,.6.94.93,1.38,1.17.77.41,1.4.88,1.4,1.61a2,2,0,0,1-2.21,1.95A2.9,2.9,0,0,1,67,9.38l.27-1.27.21.07a2.39,2.39,0,0,0,.13.52,1.39,1.39,0,0,0,1.12.53.92.92,0,0,0,1-.82c0-.48-.29-.87-1.08-1.2C68,7,67,6.39,67,5.51a1.91,1.91,0,0,1,2.07-1.84m-22.51.64V6.68h.65c.54,0,.88-.46.88-1.19s-.4-1.18-.88-1.18Zm1.17-.53A1.61,1.61,0,0,1,48.08,7s1.84,2.76,1.84,2.76H48.28L46.77,7.17h-.2V9.73H45.29v-6Zm4.72,0h4.72v.77H55.51V9.7H54.14V4.55H52.45Zm-39,.41V9h1.5c.92,0,1.48-1,1.48-2.39S15.68,4.2,14.94,4.2h-1.5M12.09,3.7h3.22c1.3,0,2.37.88,2.37,2.89,0,2.36-1.27,3-2.37,3h-3.2v-2Zm9.18,0h3.3v.69h-2V6.23h2v.66h-2V9h2v.66h-3.3Zm8.2.56V6.68h.65c.54,0,.88-.46.88-1.19s-.41-1.18-.88-1.18Zm-1.27-.5h2.4a1.63,1.63,0,0,1,1.66,1.7,1.57,1.57,0,0,1-1.62,1.7H29.47V9.7H28.2Z"/><path class="cls-1" d="M47.16,50.63a7.46,7.46,0,0,0,0-1c0-.28.1-.54.09-.82,0-.65-.18-1.29-.18-2A12,12,0,0,1,47,45.32l-.16-.21L44.88,45l-.08,0-.72.06a7.58,7.58,0,0,1-.82.08,6.27,6.27,0,0,1-1.06.05,12.52,12.52,0,0,1-1.62,0c-.51-.08-1,0-1.53-.11s-1.1-.2-1.65-.32a8.21,8.21,0,0,1-1-.27l-.18,0c-.26-.11-.53-.19-.79-.29l-.9-.35c-.25.29-.59.69-1,1.09.34,0,.6.11.56.23a16.82,16.82,0,0,1-.88,1.67c-.09.16-.67,1-.89,1.25a4.23,4.23,0,0,1-.85.81,2.91,2.91,0,0,0-.41.35c-.09.1-.26.36-.36.4s.91.84.91.84l-.12.07.28.18a1.07,1.07,0,0,0-.1.4h-.2a1,1,0,0,1,0,.62A10.92,10.92,0,0,1,31,52.92c.06.19.09.31.09.31l-.07.18-.43.51-.46.45.18,1.34a4.13,4.13,0,0,0,.46.49,2.79,2.79,0,0,1,.6,0s.69.59.72.7a11.48,11.48,0,0,0,.94,1l.05.53a4.5,4.5,0,0,1-.67.15l-1.11-.23-.56-.3-.4-.16-.2-1s-.29-.25-.32-.23l-.23.2-.7-.25s-.25-.51-.28-.61-.07-1-.08-1.31a2.14,2.14,0,0,0-.21-.67l-.28-1.51s-.17-1.51-.24-1.84-.11-1.15-.11-1.15l.31-.31.07-.15a3.5,3.5,0,0,1-.33-.43c-.14-.24-.45-.3-.62-.52a6.86,6.86,0,0,0-.9-.8c-.21-.21-.38-.43-.6-.61s-.07-.3-.1-.45a.62.62,0,0,1-.23-.7H26a2.25,2.25,0,0,0,.07.86c.18-.17.42-.24.62-.4a1.21,1.21,0,0,0,.49-.09,3.79,3.79,0,0,0,.58,0l-.43-.16a4,4,0,0,0-.56-.25c.24-.29.67-.2.94-.45,0-.23,0-.47,0-.7s-.34-.39-.49-.59-.3-.4-.45-.6a7.58,7.58,0,0,1-.69-1.6,7.35,7.35,0,0,1-.24-2.72,1.8,1.8,0,0,0,0-.83l.15.17a4.28,4.28,0,0,1,.05-.72c.1-.21.24-.4.34-.61a2.16,2.16,0,0,0,.17-.34c.07-.15.16-.29.23-.44a4.13,4.13,0,0,0,.58-.52,4.21,4.21,0,0,0,.52-.4c.18-.17.32-.39.57-.46a2.19,2.19,0,0,1,.58-.32,6.26,6.26,0,0,1,1.21-.21c.29,0,.58-.06.88-.09,0,.18-.09.36-.11.55l.22.24.29-.13c0-.16,0-.32,0-.48a8.27,8.27,0,0,1,1.49.15c1.17.1,2.33.32,3.51.38a.3.3,0,0,1,.16.05h2.56a3.77,3.77,0,0,1,.95,0l.31-.14c.57-.16,1.17-.2,1.74-.35.41-.25.85-.44,1.23-.72a7.13,7.13,0,0,0,.61-.62h.14a.9.9,0,0,1,.07.7c-.09,0-.12.11-.16.19h.1l.31-.47a2.88,2.88,0,0,1,.1-1.06l.21-.16.12,0a2.23,2.23,0,0,0,.1.43c.06-.11.13-.2.19-.3L46.05,31l1.1-4.11,1.51-3.26.7-1s1.32-.78,2.26-1.24c.05-.49.1-1.07.1-1.07s.14-.37.16-.46.27-.63.27-.63a7.25,7.25,0,0,0,.72-.33c0-.06.92.13.94.28s.46,1.11.48,1.18.29.32.29.36-.06,1.07-.07,1.4c.12.12.23.24.32.35l.31.09a1.71,1.71,0,0,0,.61.72,3.84,3.84,0,0,1,.48,0v.79c.4.43.66,1,1.09,1.39.28.18.29.55.53.76s.43.43.62.66l.18.27,0,.18a2.25,2.25,0,0,1,.44.48.93.93,0,0,0,.12-.4l.07.09a.39.39,0,0,0,0,.24l-.07.1,0,.35h.16a1.83,1.83,0,0,1-.26.59l0,.22a2.13,2.13,0,0,0-.29.31c.05.15.08.29,0,.39a.52.52,0,0,1-.26.15c-.23.22-.59.12-.88.11a1.19,1.19,0,0,1-.93-.62l-.06,0h0l0,0-.51-.87-.92-.7-1.29-.11v.05l-.2,0a.79.79,0,0,1-.3.12l-.85.36.27,2,.22,3.37,1,.31,1.22,2.29a5.12,5.12,0,0,1-.05,2.61l.46.17h.61c1.38-.11,2.76-.36,4.14-.37.31.34.75.53,1.07.85l.4.18.08.43.1,1.85.05.41.45,1,.11.76-.08.22-.07.47-.48.73-.45.86-.1.34.16,0-.54.56a2.52,2.52,0,0,0-.76.2c-.1.11-.95.71-.95.71l-.29-.07-.29-.79.15-.61,1.11-1.86.6-.36.32.05.06-.24-.42-.44.08-.48-.05-.89-.2-.85,0-.41.07-.21a3.68,3.68,0,0,0-.15-.47,3,3,0,0,0-1.1.18,2.4,2.4,0,0,1-1.1.77c-.16.07-.34,0-.5,0l.16.19-.49.35H57.2a16.26,16.26,0,0,0-1.45.86,4.09,4.09,0,0,1-.62.4,7.57,7.57,0,0,1-1.82.38,11.64,11.64,0,0,1-1.4-.42l-.38-.07a1.44,1.44,0,0,0-.19.31,1.73,1.73,0,0,1-.4.53c-.13.09-.27.17-.41.25l-.45,0-.18.21c0,.1,0,.21,0,.32l-.11-.13a4.35,4.35,0,0,0-.46,1.69,12.41,12.41,0,0,1-.38,2.44,17.78,17.78,0,0,0-.16,2.19l.1,0,.22.43-.1.3-.45,1-.22,1.54.42,2,.92.86.58,0S52,58.88,52,58.93s0,.21,0,.21-.74.17-.82.21a4.28,4.28,0,0,1-.77.11,18.1,18.1,0,0,1-1.87-.75l0-.75,0-.38-1.11-.36-.43-1s0-2.28,0-2.34-.1-1.92-.1-1.92,0-1.16,0-1.32Z"/><path class="cls-5" d="M60.19,40.67a.72.72,0,0,1,.25.68h.18a2.91,2.91,0,0,0-.21-.82,3,3,0,0,0-1.1.18,2.4,2.4,0,0,1-1.1.77c-.16.07-.34,0-.5,0l.16.19-.49.35H57.2a16.09,16.09,0,0,0-1.44.86c-.29.18-.54.45-.89.45a2,2,0,0,1,.17-.64c-.33,0-.72-.2-.64-.58l-.3-.17a3.49,3.49,0,0,0,.56-1,3.94,3.94,0,0,0,.43-1.14,1.92,1.92,0,0,0,.32-.26l-.27,0a1,1,0,0,1,0-.17,3.06,3.06,0,0,1,.32-.3,8,8,0,0,1,.85,0c1.38-.11,2.76-.36,4.14-.37.4.44,1,.63,1.31,1.16l.21-.12a1.7,1.7,0,0,0,0-.22,5.84,5.84,0,0,0-.85-.63c-.26-.14-.43-.4-.7-.53a44.12,44.12,0,0,1-4.73.38c0-.12.06-.24.1-.36l0-.37.12,0-.08-.06-.06,0c0-.06,0-.19,0-.26a5.52,5.52,0,0,0-.21-1.66.61.61,0,0,0-.18-.32l-.07-.08a1.52,1.52,0,0,1,0-.21c-.14-.38-.41-.7-.58-1.06s-.33-.56-.65-.66l-.33-.33-.09-.12-.26-.33c-.14-.49-.16-1-.32-1.49,0-.16,0-.32,0-.48s0-.23,0-.35c-.05-.59-.06-1.18-.15-1.77h.17l-.22-.09a1.93,1.93,0,0,1,0-.24,4.37,4.37,0,0,1,.54-.08c.24-.07.47-.19.72-.26a1.89,1.89,0,0,1,1.35.24l-.11,0,.3.27h.12l.47.47a1.18,1.18,0,0,0,.29.79,2.53,2.53,0,0,0,1.16.6h.83c0-.14.13-.14.23-.16a2.24,2.24,0,0,0,.6-.59,3.76,3.76,0,0,0,.1-.75l.19-.27h.2c0-.11,0-.22,0-.33l-.09,0c-.06-.21-.1-.43-.15-.65l-.31-.21a.42.42,0,0,0,0,.31l-.07.1c0,.09,0,.26,0,.35h.16a1.83,1.83,0,0,1-.26.59,1.64,1.64,0,0,1,0,.22,7.72,7.72,0,0,0-.53.61,1.42,1.42,0,0,1-.58.1A3.1,3.1,0,0,1,57,28.69a1.2,1.2,0,0,0-.2-.37c-.15-.11-.35-.15-.48-.29,0,.11,0,.21,0,.32.3-.05.41.27.54.47l.17.24a7.61,7.61,0,0,0,.54.61,2.24,2.24,0,0,0,1.06.21c-.23.25-.6.14-.9.13a1.14,1.14,0,0,1-.94-.66h-.07a.17.17,0,0,1,0-.07h.21a.31.31,0,0,0-.27-.28l-.12-.32-.12,0c-.06-.25-.33-.37-.49-.56a.87.87,0,0,1,.23-.2.38.38,0,0,1,0-.1l-.25-.1-.55-.11s0-.13-.06-.17l-.53-.13c-.29,0-.59,0-.88,0a3.45,3.45,0,0,1,.14-.42H53.8c-.12.41-.56.57-.9.74a7.66,7.66,0,0,0,.83,0l.2-.07a.86.86,0,0,1,0,.16l-.2,0a1.24,1.24,0,0,1-.89.13,3.56,3.56,0,0,1-1-.45,6.8,6.8,0,0,0-.61-.7,1.55,1.55,0,0,1,0-.22,4.57,4.57,0,0,0,.29-.47,1,1,0,0,0,.05-.16c.29-.53-.22-1.11,0-1.62a5.85,5.85,0,0,0,.35.71,2.91,2.91,0,0,1,0,.51c.07.15.06.35.25.41a1.29,1.29,0,0,1-.17.33,1.16,1.16,0,0,0,0,.64h.09a1.28,1.28,0,0,1,.1-.55l.13,0c.14.25.36.44.48.7l.13,0a1.38,1.38,0,0,0-.31-.67L52.47,26a1.51,1.51,0,0,0,.2-.51,2,2,0,0,0,.12-.81,3.88,3.88,0,0,1,0-1.48l.15,0a3.3,3.3,0,0,0,.2.63l.32.12q.08.18.15.39a2.93,2.93,0,0,0,1,.09c.12.14.39.28.51.06s-.24-.33-.4-.45a1.91,1.91,0,0,0,0-.63c-.07-.16-.27-.12-.41-.15,0,.06,0,.13,0,.2a1.36,1.36,0,0,0-.7.32h-.28a.8.8,0,0,1-.24-.45,1.73,1.73,0,0,1,.85-1.33,1.28,1.28,0,0,0-.11.77,2.5,2.5,0,0,1,.25-.55h.26l.21.2c0,.18,0,.37,0,.56,0-.16.08-.31.13-.46l.43.13a1.79,1.79,0,0,0,.62.72,3.68,3.68,0,0,1,.47,0v.79c.4.43.66,1,1.09,1.39.28.18.29.55.53.76a7.69,7.69,0,0,1,.62.66l.19.27v.18a2.25,2.25,0,0,1,.44.48,1.22,1.22,0,0,0,.13-.46c-.37-.31-.63-.72-1-1h-.17l-.16-.19v-.28c-.39-.65-.9-1.24-1.26-1.9,0-.12,0-.24-.07-.36a1.45,1.45,0,0,0-.24-.52L56.12,23c-.41-.06-.59-.46-.83-.74,0,0,0-.09,0-.12h.38a4.07,4.07,0,0,0,.58-.22,3.64,3.64,0,0,0-.74.06c-.26-.07-.52-.12-.78-.18v-.18a1.59,1.59,0,0,1,.06-.38l0-.17.17,0A.86.86,0,0,1,55,21l-.15-.11a.59.59,0,0,1,0-.13h.31c-.1-.29-.46-.31-.69-.43,0-.11,0-.22-.07-.34l-.08-.23c0-.11,0-.21-.07-.31a3.59,3.59,0,0,1,0-.46c0-.12-.09-.2-.15-.28h-.4V18.4h-.46c-.26.23-.61.34-.79.64l-.16,0-.26.25c0,.06,0,.11,0,.17s-.5.34-.21.48l-.16-.06c-.08.24-.16.49-.23.73l-.34,0-.28.1s0,.14,0,.18c-.17.15-.36.28-.52.43l-.33.3-.17.15c-.1.17-.21.34-.32.51l-.17,0c-.36.19-.46.59-.64.92l-.16.15-.36,0,0-.26-.16.13a3.33,3.33,0,0,0,.36.39l-.32,0c0,.08,0,.25,0,.33l-.12.08.15,0-.19.17a2.62,2.62,0,0,0-.21.45,1.84,1.84,0,0,1-.7.53,1.71,1.71,0,0,0-.11.59l-.19,0c0,.12-.09.24-.14.36l.2,0a1.94,1.94,0,0,0-.31.93,5,5,0,0,0-.41.91s0,.1,0,.14a2.21,2.21,0,0,1,0,.25l-.09.12a4.08,4.08,0,0,0-.14.79,3.47,3.47,0,0,0-.37.3,3.26,3.26,0,0,0-.29.79h-.21a1.07,1.07,0,0,1,.06.31v.09a.81.81,0,0,1-.53-.07c-.14-.05-.28-.12-.42,0a1.52,1.52,0,0,0,.37.57.11.11,0,0,1,0,.06.8.8,0,0,0-.47.2.64.64,0,0,0-.53-.36c0,.32.31.48.55.64l0,.17a2.4,2.4,0,0,1-1.17.3c.15.16.33.37.57.31s.59-.23.9-.29a.69.69,0,0,1-.22.47h0l-.28.22-.36.05.29,0-.28.18a5.13,5.13,0,0,1-2.28.81,19.68,19.68,0,0,1-6.12-.42,6,6,0,0,0-2-.15c-1,.06-2.08.13-3.11.27l-.18-.08,0-.75h.17l-.23,0c0-.1,0-.21,0-.31A15.71,15.71,0,0,1,29.5,31a1.8,1.8,0,0,1-.52.51.38.38,0,0,0,0,.1,5.37,5.37,0,0,0-.32-.82l-.18,0-.07-.2a3,3,0,0,0-1.29-1.31,2.39,2.39,0,0,0-1.79-.44,2.38,2.38,0,0,0,.4.38c-.54,0-1.09,0-1.64,0a3.07,3.07,0,0,0-1.37.53,5.31,5.31,0,0,0,.69,0v.12c-.45.08-.72.49-1.15.61l-.13.16-.09.11a5.66,5.66,0,0,0-.74.88,5.37,5.37,0,0,1-.51,1.05l-.17.22,0,.12-.16.26a9.18,9.18,0,0,0-.82.83c.49.09.87-.31,1.34-.35a2.29,2.29,0,0,1,0,.25c-.06.13-.11.27-.16.41a2,2,0,0,0-.23.18,5.77,5.77,0,0,1,.08.58l.17.08c0,.1-.05.21-.07.31a9,9,0,0,1-.18,1.27c0,.21-.09.42-.14.63a.65.65,0,0,1,0,.13,8.31,8.31,0,0,1-.45,1.13c-.06.27-.31.49-.32.78l0,.15.27,0a2.09,2.09,0,0,1-.08.23,2.81,2.81,0,0,0-.05.65,1.92,1.92,0,0,1,.5-.34c0,.22,0,.44,0,.65s.15.25.22.38a1.64,1.64,0,0,1,0,.88.8.8,0,0,1-.09.3,2.32,2.32,0,0,0-.35.66c0,.08-.09.15-.13.22a3.34,3.34,0,0,0-.19.94.72.72,0,0,1-.31.21l0,.19v0c-.19.16-.14.42-.16.64.16,0,.22-.15.28-.27a2.11,2.11,0,0,1,.45-.09,1.24,1.24,0,0,1-.06.61,3.51,3.51,0,0,0,.25,1.28l-.22-.07a1.12,1.12,0,0,1,.24.19,3.57,3.57,0,0,1,.34.8,2.44,2.44,0,0,1-.07,1.11h.37a1.9,1.9,0,0,0,.45-1.57.87.87,0,0,1,0-.53,4.7,4.7,0,0,0,0-.75l.22,0a6.11,6.11,0,0,0,.3.77,2.74,2.74,0,0,1,.09.39l0,.12c-.09.34-.17.69-.23,1l.12,0L22,48.1a2.57,2.57,0,0,1-.28,1,.42.42,0,0,1-.27-.14l.08.27-.14.07h.23c-.07.12-.15.23-.23.35s-.21.19-.32.28a1.48,1.48,0,0,0,.59.88,3,3,0,0,0-.21-.4c0-.17,0-.33.05-.49s.2-.32.31-.47,0-.14,0-.19h.29a3.5,3.5,0,0,1,.31,1.18,6.73,6.73,0,0,1-.48,1l-.19.12h.14c-.05.15-.09.31-.13.47s0,.25,0,.38.14.17.17.28l.12.11a1.18,1.18,0,0,1,.3-.86,5.45,5.45,0,0,1,.38-.46,1.41,1.41,0,0,1,0-.2l.17-.11a1.07,1.07,0,0,0,.15-.37,3.2,3.2,0,0,0-.13-1.44,2.17,2.17,0,0,1-.07-.24,5.09,5.09,0,0,1-.35-2h.22a.81.81,0,0,0,.36.65,7.83,7.83,0,0,0-.18-.84l.27-.15c0-.09,0-.18,0-.27l.19,0c0,.14,0,.27.07.4a1,1,0,0,1,0,.39l0,.14a2.72,2.72,0,0,0,.15,1l.12,0a3.14,3.14,0,0,1,.21-1.13,4.25,4.25,0,0,1,.12-.6l0-.08a1.86,1.86,0,0,0-.13-1.37c-.13-.2-.32-.34-.45-.53a2.56,2.56,0,0,1-.2-.26.68.68,0,0,1-.2-.59.74.74,0,0,1,.66.32l.25.13c.06-.61-.55-1-.64-1.54,0-.15.15-.23.21-.34a4.26,4.26,0,0,0,.44.88,3.7,3.7,0,0,0,.09-.88l.25,0a2,2,0,0,1,.48,1.44,1.64,1.64,0,0,0,.4-1.23,9.11,9.11,0,0,0-.9-2.39,3.59,3.59,0,0,1-.08-.35h-.05a3.07,3.07,0,0,1-.07-1.17,6.78,6.78,0,0,1,.49-.92c0-.08.07-.17.11-.26h.23l.16.26a1.46,1.46,0,0,0,.08,1.21l.15,0a2.48,2.48,0,0,1,.2-1.14l.23-.07a6.21,6.21,0,0,0-.3,2.05h-.06c0,.11,0,.23,0,.34h.08a7,7,0,0,0,.49,2l.09.22a5,5,0,0,0,1.18,1.86l.08.08c0,.1,0,.2,0,.3a.16.16,0,0,1-.09.29,5.8,5.8,0,0,1-1.94.31.89.89,0,0,0-.35.82,3.31,3.31,0,0,0,.29.67,1.71,1.71,0,0,1,.09.3c.48.41,1,.8,1.45,1.22s.72.56,1,.89L27.58,49c0,.1,0,.21-.07.31a8.19,8.19,0,0,0,.2,2.09.15.15,0,0,0,0,.06c.06.41.1.83.16,1.25s.08.61.17.91a.11.11,0,0,0,0,.06c0,.06,0,.12.05.18a1.92,1.92,0,0,0,.19.71,5.29,5.29,0,0,1,.11,1.25l-.08,0v.26l.12,0,.07.23a1.1,1.1,0,0,0,.61.64c.22.1.54.26.7,0L30,57c.13.3-.07.61,0,.91,0,.11.18,0,.27.07l0,.08a3,3,0,0,0,.41.18,1.34,1.34,0,0,1,0,.2,5,5,0,0,0,2.51.09v-.06c0-.14,0-.29,0-.43l0-.07c-.35-.45-.78-.84-1.09-1.31A1.73,1.73,0,0,0,31.08,56l-.14-.14v.28a2.35,2.35,0,0,0,0-.26,4.27,4.27,0,0,1-.44-.3c0-.37-.2-.7-.21-1.07s.24-.44.38-.64c-.18-.22-.49-.08-.68-.27a1.57,1.57,0,0,1-.37-.71c0-.14-.05-.28-.08-.41a1,1,0,0,1,0-.3,3,3,0,0,1,.31-.31h.32c0,.13,0,.25,0,.38l.09.33.15,0a3.2,3.2,0,0,1-.08-.54c0-.3.11-.6.08-.91L30.17,51s0-.14,0-.19a14.89,14.89,0,0,0-1.54-1.32,2.75,2.75,0,0,1-.86-.87c-.14-.24-.45-.3-.62-.52a6.86,6.86,0,0,0-.9-.8,6.92,6.92,0,0,0-.6-.61c-.14-.11-.07-.3-.1-.45a.63.63,0,0,1-.23-.7H26a2.25,2.25,0,0,0,.07.86c.18-.17.42-.24.62-.4a1.21,1.21,0,0,0,.49-.09,2.86,2.86,0,0,0,.58-.06l-.43-.15a5.69,5.69,0,0,0-.56-.26c.25-.28.67-.19.94-.44,0-.23,0-.47,0-.7s-.34-.39-.49-.59-.3-.4-.44-.6a7.3,7.3,0,0,1-.69-1.6,7.15,7.15,0,0,1-.25-2.72,1.8,1.8,0,0,0,0-.83l.15.17a4.28,4.28,0,0,1,.05-.72c.1-.21.24-.4.35-.61a3.54,3.54,0,0,0,.16-.34c.07-.15.16-.29.23-.44a4.13,4.13,0,0,0,.58-.52,3.57,3.57,0,0,0,.52-.4c.18-.17.33-.39.57-.46a2.36,2.36,0,0,1,.58-.32,6.39,6.39,0,0,1,1.21-.21,8.75,8.75,0,0,0,.88-.09c0,.18-.09.36-.11.55l.22.24.29-.13c0-.16,0-.32,0-.48a8.18,8.18,0,0,1,1.49.15c1.17.1,2.33.32,3.51.38a.67.67,0,0,1,.32.15c.42,0,1,0,1.21.45a1.51,1.51,0,0,0-.13.29h.26c.25-.24.56-.41.79-.67s.81-.19,1.22-.2l.31-.14c.57-.16,1.17-.2,1.74-.35.41-.25.85-.44,1.23-.72.22-.19.42-.41.62-.62h.13a.89.89,0,0,1,.07.7c-.09,0-.12.11-.16.19h.14c.08-.12.18-.23.27-.34a4,4,0,0,1,.1-1.2l.21-.16.12,0a2.41,2.41,0,0,0,.1.43c.06-.11.13-.2.19-.31a2.24,2.24,0,0,0,.36.62,1.28,1.28,0,0,1,.16.92,9.12,9.12,0,0,0-1.14-.21,4.15,4.15,0,0,0,1.06.46,2.8,2.8,0,0,1-.08.58,1.17,1.17,0,0,0,.46,1.15s0-.14,0-.18l-.16-.1a1,1,0,0,1,0-.78c0-.13,0-.25,0-.37h.28l-.25-.06.24-.06-.1-.16a2.56,2.56,0,0,0,.08-.73.88.88,0,0,1-.36-.47,2.22,2.22,0,0,0,.5.1.93.93,0,0,0,.12-.4l.21,0a5.63,5.63,0,0,1,0,.58,6,6,0,0,1-.19,1.11h-.1l0,0c0,.12,0,.19.12.24s0,.33,0,.5a1.65,1.65,0,0,0,.63.73v-.21l-.21-.12a4.16,4.16,0,0,1-.24-.47c.22,0,.3.17.41.32a.27.27,0,0,1,.24.22.68.68,0,0,0,.13-.53l.37.12a3.76,3.76,0,0,1,1,.54,5.1,5.1,0,0,1,1.24.55,1.39,1.39,0,0,0,.29.55c.11.12.21.29.4.26a2.69,2.69,0,0,0-.26-.77,5.88,5.88,0,0,1-.52-.6c0-.12,0-.23-.19-.23v-.2a5.4,5.4,0,0,0-1-1l-.11.12a1.79,1.79,0,0,1,0-.23c-.24-.15-.39-.43-.69-.48,0-.19,0-.54.25-.54a1.61,1.61,0,0,0,.31.19,3,3,0,0,0,.52.32l.62.5.21.17s0,.07,0,.09c.2.15.26.41.42.59a1.7,1.7,0,0,0-.55-1,10.38,10.38,0,0,0-1.43-1.12l-.2,0a4.12,4.12,0,0,0-.21-1.1l-.15-.24c-.14-.25-.29-.48-.44-.72s-.11-.22-.17-.33,0-.13,0-.18L47.09,30a4.4,4.4,0,0,1,0-1l.16-.11a1.46,1.46,0,0,1,.09.59c0-.08.07-.17.11-.26.13-.32-.14-.57-.27-.83a2.3,2.3,0,0,1,0-.74h.25c0-.09,0-.26,0-.34l.14,0,.24.2c0-.51.24-1,.22-1.51l.2,0c0,.13,0,.26.07.39a3.9,3.9,0,0,1,.11,1c0,.43-.1.86-.08,1.3h0a1.55,1.55,0,0,0,0,.3,2.76,2.76,0,0,1,.08-.27.61.61,0,0,1,.13-.43,5.55,5.55,0,0,0,.24-.56.51.51,0,0,1,0,.13c.24-.08.2.2.22.34,0-.3.12-.59.18-.89l.09-.25c0-.1,0-.21.08-.31s0-.28.08-.41a1.21,1.21,0,0,0-.19-.65c0-.05,0-.13,0-.18a2.26,2.26,0,0,1-.28-.56,2.37,2.37,0,0,1-.12-.88l.15,0,.12.24h.19A3.51,3.51,0,0,0,49,24c0-.3,0-.72.33-.84,0,.33,0,.66,0,1l.16.15a1.69,1.69,0,0,1,.09-.77h.16a4.59,4.59,0,0,0,.16,1.43,2.48,2.48,0,0,1,0,.9c-.1.4-.27,1,.11,1.26,0-.34,0-.67,0-1a2,2,0,0,1,.3-.65,2.26,2.26,0,0,0,0-.26.87.87,0,0,1-.11-.38.34.34,0,0,1,.4.26l.12,0c0-.15,0-.3,0-.45l.16.06a1.37,1.37,0,0,1,0,.19l.14.13a1.21,1.21,0,0,1,.08,1.19H51a2.21,2.21,0,0,0-.15-.5,3.1,3.1,0,0,0,.08.86,2,2,0,0,0-.28.41,3.62,3.62,0,0,0-.21.8c.07.17.13.34.19.51a.7.7,0,0,0,.43.19,1,1,0,0,1-.38-.86,2.56,2.56,0,0,1,.11-.24c.06-.15.14-.3.21-.45h.17a1.36,1.36,0,0,1,0,.2c0,.12.06.24.08.36h.37c0,.19.07.37.11.55l.18.19h-.26l-.33-.3v.25a3.52,3.52,0,0,1,.39.56,4.43,4.43,0,0,0,.07.81h.28c-.15-.22,0-.45,0-.66h.23a.81.81,0,0,1,0,1,3.57,3.57,0,0,1,.05,1.42h-.21l-.27.25h.16a1.52,1.52,0,0,0,0,.21c.17.07.21.25.28.39s0,.28,0,.43a1.21,1.21,0,0,1,0,.73,11.68,11.68,0,0,1-.27,1.53h.32a1,1,0,0,1,0-.18h.19a4.12,4.12,0,0,0,.33,1,2.7,2.7,0,0,1,.23.83,3.39,3.39,0,0,1,0,.9c-.07.33-.36.53-.51.81a.63.63,0,0,0-.1.71l.07-.08a1.1,1.1,0,0,0,.61-.55c0-.13,0-.27.05-.41.21-1.13-.15-2.28.07-3.41a1.67,1.67,0,0,1,0-.18,1,1,0,0,1,.09-.18h.23a4.41,4.41,0,0,0,.53.75,2.66,2.66,0,0,0,.47.77l0,.16a2.09,2.09,0,0,0,.26.49,2.59,2.59,0,0,1,.12,1.17l-.25.12A5.16,5.16,0,0,1,55,39h-.18c-.08-.23-.13-.47-.19-.7,0,0,0-.14,0-.19s-.11-.2-.16-.3l-.14-.13a4.7,4.7,0,0,0,.31,1v.51l-.21,0-.19-.27,0-.27c-.07-.17-.13-.33-.21-.49l0-.13a2,2,0,0,1-.41.46c0,.14.06.27.09.41.31.28.72.59.64,1.06a2.81,2.81,0,0,0-.19.58c-.13.31-.36.57-.5.87a1,1,0,0,0-.24.39l-.37,0,0,.11-.12-.14a3.83,3.83,0,0,0-.3.61l-.21,0a1.78,1.78,0,0,1,.24-.5,3.34,3.34,0,0,0-.09-1.8,2.5,2.5,0,0,1-.07-.26c-.06-.13-.12-.26-.19-.39a4.13,4.13,0,0,0-.36-.73l-.17.17a1.78,1.78,0,0,1,.28.48l.18.18-.12.3a2.68,2.68,0,0,0,.09.74,2.65,2.65,0,0,1-.21.78.44.44,0,0,1-.48-.24,1.2,1.2,0,0,0,.1.62l.24-.17a2.27,2.27,0,0,1,0,.69l-.16,0c.12,0,.15.11.1.22a1.63,1.63,0,0,1-.4.58.67.67,0,0,1,.06.12c0-.17.12-.21.23-.27a1.48,1.48,0,0,1,.43-.71c0,.19.07.41-.06.58a4.44,4.44,0,0,0-.55.74,1.58,1.58,0,0,1-.4.53c-.13.09-.27.17-.41.25l-.45,0-.18.21c0,.1,0,.21,0,.32a.69.69,0,0,0-.11-.13,4.35,4.35,0,0,0-.46,1.69,12.41,12.41,0,0,1-.38,2.44,19.58,19.58,0,0,0-.17,2.54l.19,0,0,.06.1.13a3.15,3.15,0,0,1,.09-.42H49.1c0-.56,0-1.13.06-1.69l.06-.1s0-.12,0-.17l0-.06c.06-.19.13-.37.21-.56A12.75,12.75,0,0,0,49.57,47l.07-.1s0-.1,0-.14a3.43,3.43,0,0,1,.45-1.95c.09-.18.32-.19.5-.17l.21-.33.22,0,.42-.21c.07-.18.08-.42.27-.54s.51.2.62.45a1.7,1.7,0,0,0,.8.17,6.17,6.17,0,0,0,2.1-.64,17.79,17.79,0,0,1,2.08-1.27l.19-.16c.5-.43,1.21-.52,1.68-1,.26-.29.69-.27,1-.45M54,23.63h.24v.08a2.78,2.78,0,0,1-.5.11l.26-.19m.39-2.58,0,.25-.25,0c0-.08,0-.15,0-.23l.23,0m-.79-.73c.16-.05.16-.21.18-.35h.13c0,.11,0,.21,0,.32a1.33,1.33,0,0,0-.19.14l-.13,0v-.14m-.25.3.5,0c0,.11,0,.22,0,.33l-.19.09-.32-.1,0-.3m-1.11,3.64H52c0-.14.07-.28.11-.42l.22,0c0,.09,0,.18,0,.27l-.08.13m-.14-4.35a1.53,1.53,0,0,1,.31-.52h.14l0,.13a1.31,1.31,0,0,1,.51-.15,1,1,0,0,1,0,.45,4.27,4.27,0,0,1-.22.87h-.35l-.11-.17c0-.12,0-.24,0-.35l-.47,0,.17-.19M32.13,57.82c0-.18,0-.35,0-.53.2.05.28.26.42.39s.36.3.34.55a2.93,2.93,0,0,1-1.14.1l.37-.51m-1.81-1.55a4.65,4.65,0,0,1,.74.08c-.26,0-.44.18-.63.33a1.34,1.34,0,0,1,0,.2,1.34,1.34,0,0,0,.27-.07.73.73,0,0,1,.83-.24.49.49,0,0,1,.24.42,6.47,6.47,0,0,0-.83.63c-.06.1-.14.19-.21.29l-.31,0c0-.28,0-.56,0-.84s-.28-.35-.43-.52-.35,0-.43.15a2,2,0,0,1-.41-.09,3.8,3.8,0,0,0,.43-.48l-.24,0a1.29,1.29,0,0,1-.27.25,1.12,1.12,0,0,1-.24-.13c0-.11-.05-.23-.08-.34-.09-.57.13-1.18-.16-1.71a1.12,1.12,0,0,1-.2-.66,1.43,1.43,0,0,1-.15-.7l.16,0,.08.18a8.06,8.06,0,0,0,.61,2.18,1,1,0,0,0,.45-.08,2.64,2.64,0,0,0,0,.28l.08.16c.05-.14.11-.27.17-.4l.12.16a6.73,6.73,0,0,0,.38.93M30.17,54l-.15.22c-.27.16-.38.49-.63.68-.15,0-.21-.17-.31-.26a9.13,9.13,0,0,0-.27-.89H29a2,2,0,0,0,1.21.24m-2-4.51.21.12V50c.2.18.42.33.63.5,0,.16.07.32.08.49a4.23,4.23,0,0,1-.39.69c0,.11,0,.21-.05.32h.26c0-.08.05-.16.07-.24s.29-.41.45-.59c0-.16,0-.32,0-.48l.22,0a.32.32,0,0,0,.19.19c0,.11,0,.22-.07.33l.09.27h-.23c-.07.1-.13.2-.19.3l-.46.2a1.06,1.06,0,0,0-.48.54l-.13,0v-.49l-.21-.05a3.92,3.92,0,0,0-.08-.9A6.69,6.69,0,0,1,28,49.7l.19-.21m.16-15.08a2.37,2.37,0,0,0-.57.43,1.33,1.33,0,0,0-.38.44l-.13-.12.05.17-.28.12h.13a4.29,4.29,0,0,0-1,1.29,4.23,4.23,0,0,1-.25.58,1,1,0,0,1,0,.17l-.26,0a3.61,3.61,0,0,0,.1-.86c0-.38-.19-.74-.25-1.11,0-.14,0-.27,0-.41h-.09a2.25,2.25,0,0,1,.5-1,1.47,1.47,0,0,1,.58.12l-.3-.41c0-.1,0-.21,0-.32a1.24,1.24,0,0,0,.43-.32l.21-.18c.45,0,.9,0,1.35,0,.09,0,.14.11.19.18a3.33,3.33,0,0,1-.09,1.18l.1.06"/><path class="cls-5" d="M48.83,27.86a5.52,5.52,0,0,1-.18.9,3.11,3.11,0,0,0,0,1.39c0,.13.08.27.13.4s0,.16,0,.21h.16a4.52,4.52,0,0,1-.17-.95c0-.38.08-.76.11-1.14s.15-.58-.05-.82"/><path class="cls-5" d="M52.82,26.23l.17,0c0-.09,0-.18-.05-.26l-.25,0,.13.27"/><path class="cls-5" d="M53.31,24.47a1.12,1.12,0,0,1,.2.18,2.26,2.26,0,0,1,.48.21h.37c0-.08,0-.26,0-.34a1.59,1.59,0,0,1-1-.06l0-.12a.91.91,0,0,1-.07.14"/><path class="cls-5" d="M57,28.15v-.23a1.27,1.27,0,0,0,.28-.24L57,27.53c-.3-.52-.85-.82-1.25-1.25a1.48,1.48,0,0,1-.35-.48l-.15-.12h-.29l-.37-.29a2,2,0,0,1-.65-.45h-.24c.08.13.15.26.22.39l.37.13a1.1,1.1,0,0,1,0,.18,5.09,5.09,0,0,1,.6.63l.28-.16h.2c.32.39.73.71,1.06,1.09l.51.48c0,.06,0,.19,0,.26a1,1,0,0,0-.21.19l.22,0"/><path class="cls-5" d="M55.4,25.6l.09.18.21,0a4.11,4.11,0,0,0,.29.3l0-.27a.6.6,0,0,1-.51-.39c-.11-.12-.22-.24-.32-.37l-.16,0,.1.07a1,1,0,0,1,.19.39l.14.09"/><path class="cls-5" d="M58.72,29a4.87,4.87,0,0,0,0-.54l-.35-.26c-.26,0-.59-.12-.78.1l-.1-.11h-.17c0,.25,0,.49,0,.73a1.63,1.63,0,0,0,.43.51c.15,0,.35.08.45-.08h-.31l0-.16h.36a.85.85,0,0,1,.49-.17m-1.16-.13c.21,0,.43,0,.64,0a2.59,2.59,0,0,1,.4-.09v.1c-.22,0-.42.22-.66.18a1.19,1.19,0,0,1-.39-.16"/><path class="cls-5" d="M44.74,35.1a1.2,1.2,0,0,1-.34-.61.57.57,0,0,0-.13.08c.06.15.13.3.18.45a2.42,2.42,0,0,0,.36.54l.2.24c.08-.23-.13-.37-.25-.53a1,1,0,0,1,0-.17"/><path class="cls-5" d="M48.57,36.19s0-.09,0-.13c-.2,0-.46,0-.47-.23l-.27,0c-.13-.11-.3-.18-.38-.34l-.12.15a1.88,1.88,0,0,0,.39.6c.21.25.6,0,.83.26,0-.13-.11-.27-.17-.4l.06.05Z"/><path class="cls-5" d="M52,58.76c-.1-.1-.23-.2-.21-.36l-.17,0a2.6,2.6,0,0,0,0-.26l-.13.14a3.17,3.17,0,0,0-.4-.49c-.29-.28-.58-.58-.86-.87-.18,0-.4.05-.54-.11a2.06,2.06,0,0,1-.61-.79h-.08a1.52,1.52,0,0,0,0,.21L49,55.86a4.65,4.65,0,0,1-.37-2v-.05a1.49,1.49,0,0,0,0-.21.68.68,0,0,0,0-.14,6.15,6.15,0,0,0,.06-.74A6.54,6.54,0,0,0,49,51.55c-.15,0-.19-.17-.26-.27a1.16,1.16,0,0,1-.58.08,1.59,1.59,0,0,1-.62-.56h-.4a7.13,7.13,0,0,0,0-1.13c0-.27.1-.53.09-.81,0-.65-.18-1.29-.18-2A12,12,0,0,1,47,45.32l-.18-.24a1.15,1.15,0,0,1-.58-.1c-.11-.3-.4-.47-.62-.68s-.4-.44-.61-.66a1.79,1.79,0,0,1-.28-.87l.17,0a3.17,3.17,0,0,1,.78.93l.27.31a1.35,1.35,0,0,1,0,.18.68.68,0,0,1,.23.39h.05a1.42,1.42,0,0,0,.21.33l.26,0-.13-.23c-.06-.17-.1-.37-.27-.47-.13-.42-.56-.65-.71-1.07a2.33,2.33,0,0,1-1.2-1.47c0-.12-.09-.23-.14-.34a2.23,2.23,0,0,0,.05.36,2.14,2.14,0,0,0,.12.66c.07.29.12.58.19.87s.22.43.34.63c0,0,0,.15,0,.2.22.19.43.4.66.58a2,2,0,0,1,.31.19,1,1,0,0,1,0,.17,6.17,6.17,0,0,0-1-.06c-.26,0-.53,0-.8.07a7.58,7.58,0,0,1-.82.08,6.27,6.27,0,0,1-1.06.05,12.52,12.52,0,0,1-1.62,0c-.51-.08-1,0-1.53-.12s-1.1-.19-1.64-.31a7.86,7.86,0,0,1-1-.27l-.18,0c-.26-.11-.53-.19-.79-.29l-1-.39-.23-.12-.34,0a5.92,5.92,0,0,1-1.29-.86c-.24-1.16-.28-2.35-.56-3.5a9,9,0,0,1,0-1H32c0,.32-.1.62-.12.94-.29.1,0,.32-.06.51s.16.44.29.64.09.33.12.5a3.05,3.05,0,0,1-.54-.14c.08.37.55.52.53.93l-.19,0a1.87,1.87,0,0,0,0,.85,3.93,3.93,0,0,0,.47.91,7.75,7.75,0,0,1,.35.91,1.14,1.14,0,0,1-.59,1.12c-.26.15-.4.43-.66.58s-.77.09-1.16.11c-.17,0-.4.07-.37.3-.38.15-.79.23-1.17.36s-.6,0-.89.09c-.46.15-1-.07-1.4.07.24.06.47.17.72.22l-.18.16c.36.08.69-.14,1-.07v.55a5.38,5.38,0,0,0,.76.57,3.09,3.09,0,0,1,.7.5c.2.16.24.45.44.6s.49.33.71.53a3.23,3.23,0,0,0,.68.54l.34.22a1.07,1.07,0,0,0-.1.4,5.43,5.43,0,0,1-.7,0,4.58,4.58,0,0,0,.09,1.11c0,.23-.18.37-.34.47v.13l-.22,0,0,.16-.13.24.42,0-.14.26H31a4.11,4.11,0,0,0,1-1.95c-.17-.16,0-.38,0-.55s.1-.38-.06-.5c-.31-.27-.66-.5-1-.78a1.09,1.09,0,0,0,0-.18l.25-.19h.14c0-.11,0-.21,0-.32h.21c.42-.4.85-.8,1.24-1.24.18-.23.34-.48.51-.72h.23v-.34l0-.08a13,13,0,0,1,1-1.35,1.6,1.6,0,0,1,1.14-.62,13.45,13.45,0,0,0,2.57.65l.08-.15.28.21a11.73,11.73,0,0,0,1.33.11,30.59,30.59,0,0,0,5-.16c.53,0,1,.14,1.57.14a6,6,0,0,0,.08,1.4,17.74,17.74,0,0,1,.13,2.3,2.75,2.75,0,0,1-.23.33l.17-.08c.06.6.06,1.19.07,1.79,0,.82.08,1.64.06,2.46h-.08V54h.09a13.23,13.23,0,0,0,0,1.78l-.09.13,0,.14c0,.51.44.9.56,1.4l.52,0a4.62,4.62,0,0,1,.55.35l-.37.38H48a6.08,6.08,0,0,0,0,.61c.45.16,1,.19,1.31.58l1,.31.23-.12.14-.06a3.44,3.44,0,0,0,1.55-.34.32.32,0,0,0-.2-.42m-19-12.67-.55.21a1.32,1.32,0,0,1,0,1.25,2.2,2.2,0,0,1-.85.29A4.3,4.3,0,0,1,31,49.09a2.43,2.43,0,0,0-.25.2.32.32,0,0,1-.37-.18,2.86,2.86,0,0,1,.17-.7c.14-.22.3-.42.44-.63a1.35,1.35,0,0,1,.92-.47l.13-.15c-.21,0-.43,0-.64,0l-.33.08-.35.09c0,.11,0,.23,0,.35-.17.31-.51.42-.77.62,0,.05,0,.13.05.17a6.68,6.68,0,0,1-1.28-.83c.11-.12.28-.1.43-.12a2.51,2.51,0,0,1,.42.44c0,.11.12.15.22.18a4,4,0,0,0,.29-.49c0-.18-.22-.17-.32-.23s0-.24,0-.37c.36-.07.8.15,1.09-.15h.34a.69.69,0,0,0,.42.07c0-.19.1-.38.15-.56l.22,0a2.05,2.05,0,0,1,.69-.55c.27-.1.51-.25.78-.35,0,.28-.21.41-.39.56m16,12-.33.1.08-.35.28,0s0-.1,0-.13a1.54,1.54,0,0,0-.61-.58,2.3,2.3,0,0,0-.91-.09,1.06,1.06,0,0,0-.34-.68c0-.25,0-.5,0-.75.2.08.48.05.62.24l-.19.17a2.15,2.15,0,0,0,.05.8h.1c0-.25-.09-.65.25-.71a.42.42,0,0,0-.19-.47h-.19c-.05-.12-.1-.24-.16-.36a2.93,2.93,0,0,0-.17-.89,12.09,12.09,0,0,1,.18-2.08l-.19,0a1.16,1.16,0,0,1-.15.75,8,8,0,0,0-.08-1.1q.15-.27.27-.54a.9.9,0,0,1,.8.26,1.15,1.15,0,0,1,0,.37.73.73,0,0,0-.11.29h.19V52l.24-.3v-.21h.17c0,.11-.06.22-.08.33a3.94,3.94,0,0,1-.41.94,12.2,12.2,0,0,0-.11,2.34,1.72,1.72,0,0,0,.22.66,1,1,0,0,0,0,.18,2.25,2.25,0,0,0,1.31,1.22,2.22,2.22,0,0,0,.57,0c-.12.5-.69.68-1.13.84m2.43,1.07-.32.08a2.49,2.49,0,0,1-.72,0,1.05,1.05,0,0,0,.2-.79c-.1-.21-.18-.43-.28-.64a1.54,1.54,0,0,1,0-.37c.48.57,1.06,1,1.54,1.61l-.39.07"/><path class="cls-5" d="M62.77,44.3a2.5,2.5,0,0,0-.2-1.35,3.21,3.21,0,0,1-.22-.54l-.13-.09a1.62,1.62,0,0,1,0-.22c-.05-.69-.08-1.38-.17-2.07l-.12-.13a5.38,5.38,0,0,0-.06,1A5.3,5.3,0,0,0,62,42.2a8.38,8.38,0,0,0,.42,1,2.23,2.23,0,0,1,.13,1.42,3.36,3.36,0,0,1-.7.71,1.29,1.29,0,0,1-.48,1l.15,0c0,.12,0,.23,0,.35l.22,0-.18,0a2.44,2.44,0,0,1,.45-.78,7.43,7.43,0,0,0,.67-1.16l0-.07c0-.12,0-.24,0-.35Z"/><path class="cls-5" d="M60,40.26a2.3,2.3,0,0,0,.12-.34L60,40a.53.53,0,0,0-.37-.2l-.28.3L58.88,40l-.27,0a1.08,1.08,0,0,0-.5.08,4.68,4.68,0,0,1-.65,0,.29.29,0,0,0,.29.27v.35c-.33.17-.62.41-1,.55,0,.07,0,.15,0,.22a.41.41,0,0,0,.37-.12,7.64,7.64,0,0,0,.86-.53c.2-.2.48-.28.69-.47a.82.82,0,0,1,.8.07h.41l-.2-.19.13-.15.17.24"/><path class="cls-5" d="M61.4,40.45a3.42,3.42,0,0,0,0-.44l-.25.06c0,.14,0,.28,0,.42l.26,0"/><path class="cls-5" d="M60.2,40.06c-.13.12.13.27.19.39l.28,0c0,.18.12.2.26.22a.59.59,0,0,0,0-.59c-.18-.08-.27.08-.37.19V40l-.32,0"/><path class="cls-5" d="M30.83,40.17l.15.53c.08.14.16.29.23.44s.3.35.44.53a1.15,1.15,0,0,1,.14.17,2.07,2.07,0,0,0-.15-.5c-.05-.44-.47-.71-.56-1.14l-.25,0"/><path class="cls-5" d="M60.79,43.79l.12-.3a11.37,11.37,0,0,1-.11-1.16,3.64,3.64,0,0,1-.17-.92l-.13.17c0,.19,0,.39,0,.58s0,.18,0,.24a1.36,1.36,0,0,1,.09,1.1,1.67,1.67,0,0,0,0,.5l.47.22c0,.14.07.28.26.23.12-.37-.28-.49-.51-.66"/><path class="cls-5" d="M46.56,36.91A5.05,5.05,0,0,1,46,36.2a7.33,7.33,0,0,1-.7-1.1,3.27,3.27,0,0,0-.43-.72c0,.24,0,.48,0,.72a.57.57,0,0,1,.41.3c0,.1,0,.19,0,.28H45a1.45,1.45,0,0,1,.12.92c.4.34.79.68,1.17,1a3.32,3.32,0,0,0,.6.29l.18.13c0,.17,0,.33,0,.49l.53,0a.72.72,0,0,0-.44-.49,2.2,2.2,0,0,1-.2-.23l-.17,0c-.22-.2-.48-.35-.69-.57s-.39-.55-.65-.78c0,0,0-.15,0-.2a.92.92,0,0,1,.37,0c.13.4.55.56.83.84a2.6,2.6,0,0,0,.66.48l.27.22a5,5,0,0,0,1,.39l.26.18.13,0,0-.14a3.57,3.57,0,0,0-.75-.33c-.23-.09-.45-.19-.67-.3s-.33-.22-.51-.32l-.47-.42"/><path class="cls-5" d="M49.27,41.91h.21l.18.15,0-.61a2.09,2.09,0,0,0,.4-.19c0-.05,0-.15,0-.2a7,7,0,0,0,.52-1.47c.06-.16.13-.31.2-.46a3.3,3.3,0,0,1,.6-.79l.16,0a2.35,2.35,0,0,0,0,.26h.17c0-.08,0-.22,0-.3a1.76,1.76,0,0,1,.79-.41.43.43,0,0,0-.51-.22,2.38,2.38,0,0,0-.95.71c-.25,0-.35.26-.46.44a1.23,1.23,0,0,0,0,.19,3.19,3.19,0,0,0-.19.48l-.07.28a3.87,3.87,0,0,0-.34.55l-.22,0c0,.16,0,.32,0,.48-.18.19-.33.4-.5.59v.46"/><path class="cls-5" d="M48.08,42.41c-.21.12-.47.21-.58.44a1.67,1.67,0,0,0-.1,1,4.06,4.06,0,0,0,.36.46c.19-.27,0-.6.14-.89a5.45,5.45,0,0,1,.33-.58,3.27,3.27,0,0,1,.66-.3,1.51,1.51,0,0,0-.81-.12"/><path class="cls-5" d="M48.88,43.79h.2a.66.66,0,0,1,.4-.27l.21.24-.07.09a1.31,1.31,0,0,1,.52.31V43.8l-.37,0c-.1-.21-.21-.41-.31-.61-.06.29-.43.34-.58.58"/><path class="cls-5" d="M60.72,44.44c0,.14,0,.28.05.42a3.88,3.88,0,0,0,.42-.39l-.47,0"/><path class="cls-5" d="M60.59,46.85l.13-.13-.21,0a4,4,0,0,1-.35-.72,7.34,7.34,0,0,1,0-1.24,1,1,0,0,0-.45.28,2.21,2.21,0,0,0-.55.8,3.2,3.2,0,0,0-.17.87l.21-.11a1,1,0,0,0,.17,0c.1.2.17.51.45.47a3.4,3.4,0,0,0,.29-.65,7.38,7.38,0,0,1,.54.71c-.15.13-.31.25-.47.37a2.44,2.44,0,0,1-.93.55,5.48,5.48,0,0,1-.17-1l-.19.15,0,.07a2.53,2.53,0,0,0,.25,1c.16,0,.35.05.48-.08a6.31,6.31,0,0,1,1.61-.93v-.07a1.64,1.64,0,0,0,0-.22c-.21,0-.46.07-.62-.11"/><path class="cls-5" d="M30.58,36.41a3.56,3.56,0,0,0-.63,1,6,6,0,0,0-.17.73c0,.3.06.6.06.9.05.14.09.27.13.4a1.35,1.35,0,0,1,0,.18l.21.4c0,.09,0,.18,0,.26h.12c0-.11,0-.21,0-.32s.35,0,.43.18L31,40a3.33,3.33,0,0,1-.61-2.34,2.16,2.16,0,0,1,.41-.93,2.49,2.49,0,0,0,.16-.33l.32-.31.26-.25h-.16a2.33,2.33,0,0,0-.77.54"/><path class="cls-5" d="M26.57,40l.12.53c0-.13.06-.27.1-.39,0-.29,0-.57,0-.86h.24a9,9,0,0,1,.53,1.08c0,.12.09.24.13.35a.9.9,0,0,1,.07.27,4.2,4.2,0,0,1,.49.33,6.9,6.9,0,0,0,1.07.57c.22.07.45.29.68.14L29.77,42c-.18-.2-.48-.25-.65-.46-.44-.42-.88-.84-1.29-1.29-.24-.27-.31-.66-.58-.9l0-.17a1.55,1.55,0,0,1-.17-.67l-.2,0A2,2,0,0,0,26.58,40l-.11,0,.1,0"/><path class="cls-5" d="M47.56,50.37c0-.09,0-.19,0-.28s.09-.38.13-.57,0-.51,0-.77h.14a1.85,1.85,0,0,0,0-1.31h-.06a.77.77,0,0,0,.08.37c0,.22,0,.43,0,.65l-.31,0c-.28-.3-.22-.73-.24-1.11s0-.58.12-.86a1.55,1.55,0,0,0,0-.77,2,2,0,0,1-.08.49,14.87,14.87,0,0,0-.11,1.89c.07.28.3.51.3.81a6.25,6.25,0,0,1-.17,1.49h.14"/><path class="cls-5" d="M48.45,49.2c-.17.21-.11.49-.13.73s-.07.44-.08.66-.06.33.13.36a2.33,2.33,0,0,0,.12-.69,6.27,6.27,0,0,0,0-1.06"/><path class="cls-5" d="M31.21,56.86a2,2,0,0,0-.43.08l-.21.31h.15l.49-.4"/></g></g></svg>