<svg xmlns="http://www.w3.org/2000/svg" xmlns:xlink="http://www.w3.org/1999/xlink" viewBox="0 0 92.33 113.2"><defs><style>.cls-1,.cls-10,.cls-4{fill:#70b7e2;}.cls-1{clip-rule:evenodd;}.cls-2{fill:#0062a0;}.cls-3{fill:#fdd200;}.cls-4,.cls-7{fill-rule:evenodd;}.cls-5{clip-path:url(#clip-path);}.cls-6,.cls-7{fill:#fff;}.cls-8{fill:#362956;}.cls-9{fill:#af784b;}.cls-11{fill:#1d1d1b;}</style><clipPath id="clip-path"><path class="cls-1" d="M46.16,26.22c-16.41,0-20.63,4.67-31.3,4.74V47.3c-.09,12.9,3.48,34,31.3,52C74,81.26,77.56,60.2,77.47,47.3V31C66.8,30.89,62.58,26.22,46.16,26.22Z"/></clipPath></defs><g id="Capa_2" data-name="Capa 2"><g id="Capa_1-2" data-name="Capa 1"><path class="cls-2" d="M46.16,113.2c3.21-4.27,4.79-6.08,5.32-6.2a59.73,59.73,0,0,0,19.84-9.2A79.07,79.07,0,0,0,81.86,89l2.2,2.2,1.48,1.48.53-2,.84-3.2,1.72-6.59,2-6.88,1-3.67L92.33,68l-2.26.88-3.56,1.38-12.86,5c.49-.89,1-1.79,1.4-2.69a55.75,55.75,0,0,0,5.49-25.23V27.88H77.46a35.16,35.16,0,0,1-9.07-1.32V19.31H57.64a13.09,13.09,0,1,0-23.08,0H23.87v7.23a35,35,0,0,1-9.06,1.32H11.73V47.3a55.72,55.72,0,0,0,5.49,25.21c.43.89.89,1.78,1.38,2.66L5.82,70.23,2.25,68.85,0,68,.67,70.3l1,3.67,2,7,1.71,6.52.84,3.2.53,2,1.48-1.48,2.2-2.2a80,80,0,0,0,10.47,8.78A60,60,0,0,0,40.85,107a22.35,22.35,0,0,1,5.31,6.2"/><path class="cls-3" d="M65.32,27V22.41H49.75a10,10,0,1,0-7.23,0H27v4.47a66.09,66.09,0,0,1,18.88-2.56A66.87,66.87,0,0,1,65.32,27Zm-24-13.93a4.83,4.83,0,1,1,4.82,4.82A4.82,4.82,0,0,1,41.31,13.1Z"/><path class="cls-4" d="M46.16,26.22c-16.41,0-20.63,4.67-31.3,4.74V47.3c-.09,12.9,3.48,34,31.3,52C74,81.26,77.56,60.2,77.47,47.3V31C66.8,30.89,62.58,26.22,46.16,26.22Z"/><g class="cls-5"><rect class="cls-6" x="35.28" y="26.22" width="21.76" height="59.71"/></g><path class="cls-7" d="M17,52.86S21.07,49,35.34,41.27a10.76,10.76,0,0,1-1-3.6c.06-1.36.75-2.28,2-3.56l20.78.47a10.67,10.67,0,0,1,4.59,1.13,14.76,14.76,0,0,0,4.09,1.81c1,.23,4.24.84,4.68,2.54v2.55s2.88,3,6,7a13.12,13.12,0,0,1,0,2.67C76.3,53.54,75.2,55,70,57.94A21.85,21.85,0,0,1,71,55.75c.35-.63-.79-1.51-1.91-.83a11.19,11.19,0,0,0-2.91,2.46c-.58.79-1.65,2.35-1.62,3.21s0,1.86.65,1.77a4.07,4.07,0,0,0,1.37-.56,2.55,2.55,0,0,1-.86,2,11.6,11.6,0,0,0-1.61,1.79,9.79,9.79,0,0,1,0,1.44c-.07.1-.84,1-2.91.28a10.34,10.34,0,0,1-4-2.3L55.75,64l-4,8.37H37.51l-3.06-2a37.68,37.68,0,0,1-11.9-7.22c-5-4.8-2.42-9.81.56-11.94C23.11,51.17,18.43,52.33,17,52.86Z"/><path class="cls-8" d="M19.58,51.69S26.69,47.2,36,42.33c0,0-7,5.32-8.23,9.23A10.67,10.67,0,0,0,28.42,58c2.16,4.51,7.27,10.22,9,12.21a30.07,30.07,0,0,0-4.25-2.62c-2.6-1.34-7.15-3.79-10-6.86S22,54.61,24.59,50.64A13.87,13.87,0,0,0,19.58,51.69Z"/><path class="cls-8" d="M39.15,44.21s-3-3.52-3-5.32a3.57,3.57,0,0,1,1.12-2.74s4,2.15,6.28,1.92a11,11,0,0,0,4.71-1.18,11,11,0,0,1-3-.34,30.08,30.08,0,0,1,11.3-.4c7.4,1,7,6.07,9.45,6.22a1.61,1.61,0,0,0,1.67-1.25h-1a16,16,0,0,0-4.61-3.86c-2.83-1.53-5.18-1.95-11.47-1.95-5.83,0-6.56,2.45-13.54,0a3.89,3.89,0,0,0-1.68,3.15C35.3,40.65,39.15,44.21,39.15,44.21Z"/><polygon class="cls-8" points="55.79 39.91 64.36 43.31 61.18 45.18 60.48 49.59 60.31 44.59 55.79 39.91"/><path class="cls-8" d="M71.25,46.94s4,2.51,4.1,3S73,52.55,73,52.55A9.45,9.45,0,0,0,71.25,46.94Z"/><path class="cls-8" d="M70.58,56.76a5,5,0,0,0,3.21-2.88,67.19,67.19,0,0,0-12.11-3s-4.13,3.43-3.85,5.86,3,5,5.75,6.58c1.2.67,1.88-.5,2.22-1,0,0-1.38,1-1.77.17a7.93,7.93,0,0,1-.2-3.52c.14-.67,1.59-2.29,3.38-3.46s3-1.14,3.51-.78a.8.8,0,0,1,.41.93C71.09,55.8,71,55.87,70.58,56.76Z"/><path class="cls-6" d="M62.64,51.33s4.88.9,5.67,1.22c0,0,0,2.73-3.55,3.31,0,0,1.74-1.81.33-2.87A26.09,26.09,0,0,0,62.64,51.33Z"/><path class="cls-6" d="M60,60.26a6.79,6.79,0,0,0,3.41-.71s-.58,1.3-1.47,1.57-1.21,0-1.35-.18Z"/><path class="cls-8" d="M62.64,66.07s-4.38-.34-6.2-6.75c0,0-4.94,3.29-6.83,11.05,0,0,1.81-4.16,3.83-6.09,1.8-1.72,2.36-1.79,3.05-.7S60,67.48,62.64,66.07Z"/><path class="cls-8" d="M42.73,49.59s5.91,5.45,8.78,5.63,7.55-4.16,7.55-4.16-5.44,6.63-7.48,6.59S45.83,54.23,42.73,49.59Z"/><path class="cls-2" d="M63.21,69.91H57.1l-.33.27-1.86,1.51H37.42l-1.86-1.51-.33-.27H29.12v3.42h3.73l2.06,1.73V95.44l1.2,3.88h20.1l1.21-3.88V75.06l2.06-1.73h3.73V69.91Z"/><polygon class="cls-9" points="36.11 94.23 36.11 74.5 33.29 72.13 30.32 72.13 30.32 71.12 34.8 71.12 36.99 72.9 55.34 72.9 57.53 71.12 62.01 71.12 62.01 72.13 59.04 72.13 56.21 74.5 56.21 94.23 36.11 94.23"/><path class="cls-2" d="M45.48,88.93h0a5.33,5.33,0,1,1,1.37-10.58,5.25,5.25,0,0,1,3.54,2,5.36,5.36,0,0,1,1.07,3.94,5.36,5.36,0,0,1-6,4.6"/><path class="cls-6" d="M45.53,88.53h0a4.83,4.83,0,0,0,2.18-.21l-.24-.21H44.86l-.23.21a3.81,3.81,0,0,0,.9.21"/><path class="cls-10" d="M48,88.21l-.38-.34.45-1.64,1.81-.15.28.42a4.75,4.75,0,0,1-1,1,4.56,4.56,0,0,1-1.15.67"/><path class="cls-6" d="M50.36,86.23a5.18,5.18,0,0,0,.7-2,4.89,4.89,0,0,0,0-.85l-.3.25h0l-.67,2.23Z"/><path class="cls-10" d="M51.06,83.07l-.44.38-1-.88.15-1.7.46,0a4.78,4.78,0,0,1,.84,2.23"/><path class="cls-6" d="M50,80.55A5,5,0,0,0,47.92,79l0,.15,1.82,1.37v0Z"/><path class="cls-10" d="M47.58,78.92a4.68,4.68,0,0,0-.78-.18h0a5,5,0,0,0-2,.18l-.06.33,1.47.55,1.48-.55Z"/><path class="cls-6" d="M44.42,79a5.25,5.25,0,0,0-1.27.7,5,5,0,0,0-.83.82l.24,0,1.83-1.4Z"/><path class="cls-10" d="M42.11,80.83A5.13,5.13,0,0,0,41.27,83h0v.06l.46.37,1-.9-.16-1.67Z"/><path class="cls-6" d="M41.23,83.43l.33.26,0,0L42.15,86l-.19.27a5.14,5.14,0,0,1-.73-2.8"/><path class="cls-10" d="M42.15,86.5l.28-.42,1.81.15.45,1.64-.37.34a4.86,4.86,0,0,1-2.06-1.56l-.11-.15"/><polygon class="cls-6" points="49.76 85.8 48.12 85.94 47.47 84.93 47.99 83.06 49.44 82.8 50.41 83.66 49.76 85.8"/><polygon class="cls-6" points="47.79 86.18 47.14 85.17 45.18 85.17 44.54 86.17 44.96 87.71 47.37 87.71 47.79 86.18"/><polygon class="cls-6" points="47.87 82.68 46.37 81.65 46.37 80.04 47.74 79.53 49.46 80.83 49.33 82.42 47.87 82.68"/><polygon class="cls-6" points="42.87 80.85 44.59 79.53 45.96 80.04 45.96 81.65 44.48 82.67 44.48 82.66 43.02 82.43 42.87 80.85"/><polygon class="cls-6" points="42.87 82.82 44.34 83.05 44.86 84.92 44.2 85.94 42.52 85.79 41.94 83.64 42.87 82.82"/><polygon class="cls-10" points="44.61 82.93 45.16 84.87 47.17 84.87 47.72 82.93 46.16 81.89 44.61 82.93"/><path class="cls-2" d="M37.91,92.18a2.89,2.89,0,0,0,1,.2c.42,0,.64-.13.64-.34s-.19-.31-.68-.44c-.68-.19-1.12-.47-1.12-.93s.58-.94,1.54-.94a3,3,0,0,1,1,.16l-.2.57a2.51,2.51,0,0,0-.86-.15c-.4,0-.59.14-.59.3s.23.29.76.44c.72.21,1.05.5,1.05.94s-.52,1-1.64,1a3.25,3.25,0,0,1-1.15-.19Z"/><path class="cls-2" d="M40.68,92.54c0-.25.22-.43.53-.43s.52.17.52.43-.21.43-.53.43A.47.47,0,0,1,40.68,92.54Z"/><path class="cls-2" d="M43,92.11l-.28.81h-.93L43,89.78h1.17l1.23,3.14h-1l-.31-.81Zm1-.53-.25-.66c-.06-.19-.13-.43-.19-.61h0c-.05.19-.11.42-.18.61l-.23.66Z"/><path class="cls-2" d="M45.59,92.54a.47.47,0,0,1,.52-.43c.32,0,.53.17.53.43s-.21.43-.53.43S45.59,92.79,45.59,92.54Z"/><path class="cls-2" d="M47,89.82A7.94,7.94,0,0,1,48,89.75a2.41,2.41,0,0,1,1.43.34,1.34,1.34,0,0,1,.59,1.18,1.5,1.5,0,0,1-.58,1.27,2.66,2.66,0,0,1-1.61.41,6.06,6.06,0,0,1-.89,0Zm.78,2.56H48a1,1,0,0,0,1.18-1.1c0-.65-.42-1-1.1-1a1.48,1.48,0,0,0-.36,0Z"/><path class="cls-2" d="M50.49,92.54c0-.25.22-.43.53-.43a.47.47,0,0,1,.53.43c0,.25-.21.43-.53.43S50.49,92.79,50.49,92.54Z"/><path class="cls-2" d="M51.88,89.82a8.7,8.7,0,0,1,1.21-.07A2.24,2.24,0,0,1,54.3,90a.83.83,0,0,1,.42.72.9.9,0,0,1-.36.75,2.22,2.22,0,0,1-1.29.33l-.3,0v1.13h-.89Zm.89,1.42a1.24,1.24,0,0,0,.3,0c.47,0,.77-.19.77-.51s-.25-.46-.7-.46a1.47,1.47,0,0,0-.37,0Z"/><path class="cls-2" d="M54.35,92.54c0-.25.22-.43.53-.43s.52.17.52.43-.21.43-.52.43S54.35,92.79,54.35,92.54Z"/><path class="cls-2" d="M41.31,77.55a3.33,3.33,0,0,1-1.18.18c-1.59,0-2.42-.91-2.42-2.1a2.26,2.26,0,0,1,2.52-2.23,2.85,2.85,0,0,1,1.14.19l-.21.75a2.47,2.47,0,0,0-.88-.16,1.33,1.33,0,0,0-1.47,1.39,1.32,1.32,0,0,0,1.48,1.37,2.68,2.68,0,0,0,.87-.14Z"/><path class="cls-2" d="M41.74,77.16a.57.57,0,0,1,.6-.58.55.55,0,0,1,.59.58.6.6,0,0,1-1.19,0Z"/><path class="cls-2" d="M43.58,73.53a7.88,7.88,0,0,1,1.27-.09,2.65,2.65,0,0,1,1.71.45,1.84,1.84,0,0,1,.7,1.57,2.11,2.11,0,0,1-.69,1.7,3,3,0,0,1-1.92.55,8.33,8.33,0,0,1-1.07-.06ZM44.52,77a1.62,1.62,0,0,0,.33,0,1.3,1.3,0,0,0,1.41-1.47A1.2,1.2,0,0,0,45,74.17a2,2,0,0,0-.43,0Z"/><path class="cls-2" d="M47.6,77.16a.57.57,0,0,1,.6-.58.55.55,0,0,1,.59.58.6.6,0,0,1-1.19,0Z"/><path class="cls-2" d="M50.65,76.59l-.34,1.07H49.18l1.47-4.19h1.42l1.5,4.19H52.4L52,76.59Zm1.22-.71-.3-.89c-.08-.25-.17-.56-.24-.81h0c-.07.25-.14.57-.22.81l-.29.89Z"/><path class="cls-2" d="M53.79,77.16a.57.57,0,0,1,.6-.58.55.55,0,0,1,.59.58.6.6,0,0,1-1.19,0Z"/><path class="cls-3" d="M74.62,78.15l2.5,2.17a50.49,50.49,0,0,1-6.24,6.42c-5.47,4.81-9.5,7.25-14,8.94a32.08,32.08,0,0,1-10.7,2.1,32.07,32.07,0,0,1-10.69-2.1c-4.52-1.69-8.55-4.13-14-8.94a49.82,49.82,0,0,1-6.24-6.42l2.5-2.17-13-5,2,6.95,1.73,6.58,2.14-2.13c.32.33.83.91,1.16,1.25a70.15,70.15,0,0,0,11.06,9.49A56.46,56.46,0,0,0,41.64,104a8.62,8.62,0,0,1,4.52,4.32c1.17-2.29,3.16-4,4.52-4.32a56.42,56.42,0,0,0,18.87-8.74,70.6,70.6,0,0,0,11.06-9.49c.33-.34.84-.92,1.16-1.25l2.14,2.13,1.72-6.58,2-6.95Z"/><path class="cls-8" d="M41,32.81h-.95V29.72a3.4,3.4,0,0,1-1.23.62V29.6a2.75,2.75,0,0,0,.81-.4,1.54,1.54,0,0,0,.6-.68H41Z"/><path class="cls-8" d="M42.48,31.82l.92-.09a.56.56,0,0,0,.17.36.58.58,0,0,0,.38.12.65.65,0,0,0,.5-.24,1.81,1.81,0,0,0,.26-1,1.22,1.22,0,0,1-.9.36,1.43,1.43,0,0,1-1-.39,1.43,1.43,0,0,1,0-2.06,1.64,1.64,0,0,1,1.14-.4,1.67,1.67,0,0,1,1.24.5,2.37,2.37,0,0,1,.48,1.66,2.4,2.4,0,0,1-.5,1.69,1.78,1.78,0,0,1-1.31.51,1.5,1.5,0,0,1-.94-.26A1.22,1.22,0,0,1,42.48,31.82ZM44.63,30a.84.84,0,0,0-.21-.61.67.67,0,0,0-.49-.22.57.57,0,0,0-.44.18.79.79,0,0,0-.18.58.87.87,0,0,0,.19.61.66.66,0,0,0,.94,0A.78.78,0,0,0,44.63,30Z"/><path class="cls-8" d="M49.53,29.58l-.92.09a.62.62,0,0,0-.18-.36.55.55,0,0,0-.37-.12.65.65,0,0,0-.51.24,1.74,1.74,0,0,0-.26,1,1.16,1.16,0,0,1,.88-.37,1.44,1.44,0,0,1,1,.39,1.31,1.31,0,0,1,.43,1,1.35,1.35,0,0,1-.45,1.06,1.69,1.69,0,0,1-1.15.39,1.64,1.64,0,0,1-1.23-.5,2.36,2.36,0,0,1-.48-1.65,2.39,2.39,0,0,1,.5-1.69,1.73,1.73,0,0,1,1.31-.52,1.51,1.51,0,0,1,.93.27A1.25,1.25,0,0,1,49.53,29.58Zm-2.16,1.79a.83.83,0,0,0,.22.62.66.66,0,0,0,.48.21.57.57,0,0,0,.44-.18.77.77,0,0,0,.18-.58.87.87,0,0,0-.19-.61.69.69,0,0,0-.94,0A.78.78,0,0,0,47.37,31.37Z"/><path class="cls-8" d="M53.38,29.58l-.92.09a.56.56,0,0,0-.18-.36.55.55,0,0,0-.37-.12.65.65,0,0,0-.51.24,1.83,1.83,0,0,0-.26,1A1.16,1.16,0,0,1,52,30a1.44,1.44,0,0,1,1,.39,1.31,1.31,0,0,1,.43,1A1.35,1.35,0,0,1,53,32.49a1.82,1.82,0,0,1-2.38-.11,2.36,2.36,0,0,1-.48-1.65,2.39,2.39,0,0,1,.5-1.69A1.73,1.73,0,0,1,52,28.52a1.51,1.51,0,0,1,.93.27A1.25,1.25,0,0,1,53.38,29.58Zm-2.16,1.79a.83.83,0,0,0,.22.62.66.66,0,0,0,.48.21.57.57,0,0,0,.44-.18.77.77,0,0,0,.18-.58.83.83,0,0,0-.19-.61.64.64,0,0,0-.47-.19.66.66,0,0,0-.47.18A.78.78,0,0,0,51.22,31.37Z"/><path class="cls-11" d="M15.46,82.59l-.3-.39-2.48,1-.08,0,.29.38.77-.33.51.65-.42.75.25.32.05.07,1.39-2.49Zm-.59.19c0,.07-.09.15-.14.23l-.34.62L14,83.16l.62-.27A1.33,1.33,0,0,0,14.87,82.78Z"/><path class="cls-11" d="M18,85.21l-.29-.31-.82.76c-.2.18-.37.35-.54.52.06-.17.12-.37.19-.62l.38-1.44v0l-.32-.33L14.7,85.51l0,0,.29.31.83-.77c.22-.2.4-.37.56-.54-.06.19-.13.41-.2.67l-.38,1.45v0L16,87l1.89-1.75Z"/><polygon class="cls-11" points="19.44 87.28 19.48 87.33 19.76 87.03 18.4 85.62 18.36 85.57 18.08 85.87 18.62 86.43 17.11 88.06 17.07 88.1 17.38 88.43 18.94 86.76 19.44 87.28"/><path class="cls-11" d="M21.52,89a1.17,1.17,0,0,0-.4-.87,1.14,1.14,0,0,0-.92-.32,1.54,1.54,0,0,0-.95.52,1.26,1.26,0,0,0,0,1.84,1.22,1.22,0,0,0,.82.33A1.45,1.45,0,0,0,21.11,90,1.5,1.5,0,0,0,21.52,89Zm-.46,0a1.24,1.24,0,0,1-.31.63,1.32,1.32,0,0,1-.61.39.67.67,0,0,1-.63-.16.72.72,0,0,1-.22-.47,1.09,1.09,0,0,1,.32-.77,1.13,1.13,0,0,1,.79-.42.68.68,0,0,1,.45.18A.67.67,0,0,1,21.06,89Z"/><polygon class="cls-11" points="22.63 91.63 22.86 91.35 22.9 91.3 22.12 90.66 22.6 90.06 23.4 90.72 23.45 90.77 23.68 90.49 23.72 90.44 22.55 89.47 22.5 89.43 20.75 91.56 20.71 91.61 21.02 91.88 21.07 91.92 21.85 90.98 22.58 91.58 22.63 91.63"/><path class="cls-11" d="M24.82,91.28,22.6,92.81l-.07,0,.33.26,0,0,.68-.47.64.49-.25.76v0l.37.3.86-2.65,0,0-.34-.26Zm-.16.6a1.14,1.14,0,0,0-.09.26l-.22.65-.46-.36.56-.39Z"/><path class="cls-11" d="M27.6,94.71l-.36-.24-.54.86a1.08,1.08,0,0,1-.32-.16.9.9,0,0,1-.4-.57,1,1,0,0,1,.17-.72.93.93,0,0,1,.56-.45h.16a1,1,0,0,1,.53.18,1.09,1.09,0,0,1,.37.37l0,.06.26-.23,0,0,0,0a1.69,1.69,0,0,0-.47-.46,1.35,1.35,0,0,0-1-.24,1.25,1.25,0,0,0-.81.61,1.42,1.42,0,0,0-.21,1,1.36,1.36,0,0,0,.61.82,2.23,2.23,0,0,0,.71.32h.05l.64-1Z"/><path class="cls-11" d="M29.69,94.59l-2,1.84-.06.07.42.17h0l.62-.57.77.31-.11.8v0l.46.19.37-2.63v0l-.43-.18Zm-.18,1.47-.57-.23.51-.47.19-.18c0,.07,0,.15-.05.24Z"/><path class="cls-11" d="M32.54,96.16h0a.89.89,0,0,0-1.17.34c-.14.32,0,.63.37,1s.33.37.25.55a.35.35,0,0,1-.2.18.62.62,0,0,1-.42,0,1.12,1.12,0,0,1-.47-.35l-.05-.06-.28.31,0,0a1.35,1.35,0,0,0,.59.41,1.2,1.2,0,0,0,.51.09h0a.8.8,0,0,0,.69-.45c.16-.35.06-.63-.33-1s-.35-.4-.28-.55a.28.28,0,0,1,.17-.15.53.53,0,0,1,.37,0,1,1,0,0,1,.39.26l0,.07.29-.31,0,0A1.15,1.15,0,0,0,32.54,96.16Z"/><polygon class="cls-11" points="35.51 98.01 35.68 97.63 33.79 96.85 33.73 96.83 33.56 97.2 34.31 97.51 33.45 99.48 33.9 99.66 34.76 97.7 35.45 97.98 35.51 98.01"/><path class="cls-11" d="M35.1,100.06l.43.14.5-.6.75.24v.76l.44.15,0-2.52v0l-.44-.14Zm1.15-.76.41-.49.15-.19a1.85,1.85,0,0,0,0,.24v.62Z"/><polygon class="cls-11" points="40.33 98.99 40.34 98.92 39.86 98.87 39.48 101.37 39.48 101.43 41.02 101.61 41.09 101.62 41.14 101.3 41.15 101.24 40.01 101.1 40.33 98.99"/><path class="cls-11" d="M43.5,99.42l-.47,0h0l-1.24,2.45,0,.08.49.06.38-.76.85.09.18.78v0l.51.06-.63-2.71Zm-.12,1.48-.63-.07.31-.62a2.56,2.56,0,0,0,.11-.24c0,.08,0,.17,0,.26Z"/><path class="cls-11" d="M47.28,99.62H47.2a4.72,4.72,0,0,0-.68,0h-.05l0,2.45v0H47v-1h.21a1.21,1.21,0,0,0,.86-.29.68.68,0,0,0,.22-.56.66.66,0,0,0-.26-.54A1.21,1.21,0,0,0,47.28,99.62Zm.51.78a.37.37,0,0,1-.13.3.67.67,0,0,1-.48.15H47V100a1.47,1.47,0,0,1,.31,0,.6.6,0,0,1,.37.1A.38.38,0,0,1,47.79,100.4Z"/><polygon class="cls-11" points="49.77 101.68 49.74 100.93 50.72 100.92 50.78 100.92 50.77 100.54 49.73 100.55 49.7 99.91 50.74 99.89 50.81 99.89 50.79 99.51 49.27 99.54 49.21 99.54 49.31 102.01 49.31 102.07 50.88 102.05 50.95 102.04 50.94 101.66 49.77 101.68"/><path class="cls-11" d="M53.73,100.72a.78.78,0,0,0-.38-.43.63.63,0,0,0,.31-.66.68.68,0,0,0-.31-.47,1.33,1.33,0,0,0-.86-.11,6.13,6.13,0,0,0-.67.13l0,0,.41,2.4v.06l.48-.06-.17-1,.26,0c.29,0,.42.06.55.35a2.2,2.2,0,0,0,.28.56l0,0,.51-.06-.07-.08A4.89,4.89,0,0,1,53.73,100.72Zm-1.3-.5-.13-.77.27,0a.73.73,0,0,1,.47.06.35.35,0,0,1,.15.25.32.32,0,0,1-.07.28.62.62,0,0,1-.4.18Z"/><polygon class="cls-11" points="56.57 100.37 55.45 100.6 54.92 98.56 54.9 98.5 54.43 98.59 55.06 101.01 55.08 101.07 56.6 100.76 56.67 100.74 56.59 100.43 56.57 100.37"/><path class="cls-11" d="M58,97.51l-.44.14h0v2.78l.45-.14h0v-.83l.82-.26.54.66.48-.15L58,97.54Zm-.05.62.16.21.45.54-.6.19v-.68C57.91,98.3,57.9,98.21,57.9,98.13Z"/><path class="cls-11" d="M62.86,96.36l0-.06v0a1.28,1.28,0,0,0-.33-.29l-.07,0-.06,0-.11,0a1.45,1.45,0,0,0-1,.19,3.5,3.5,0,0,0-.57.37l0,0,1.14,2.23,0,0a5.64,5.64,0,0,0,.53-.24,1.57,1.57,0,0,0,.81-.85A1.35,1.35,0,0,0,63,96.52.91.91,0,0,0,62.86,96.36Zm-.17,1.14a1,1,0,0,1-.52.56l-.23.12-.84-1.63a1.54,1.54,0,0,1,.26-.16.91.91,0,0,1,.73-.12.86.86,0,0,1,.49.47A1,1,0,0,1,62.69,97.5Z"/><polygon class="cls-11" points="65.58 96.01 64.64 96.55 64.23 95.91 65.07 95.42 64.9 95.15 64.86 95.1 64.02 95.59 63.66 95.04 64.56 94.52 64.38 94.25 64.35 94.2 63.06 94.94 64.43 97.05 64.46 97.1 65.8 96.33 65.62 96.06 65.58 96.01"/><polygon class="cls-11" points="66.98 95.06 65.76 93.23 65.72 93.18 65.36 93.44 66.81 95.61 66.84 95.66 68.02 94.8 68.07 94.77 67.85 94.43 66.98 95.06"/><path class="cls-11" d="M69.63,90.34l0,0,.69.86c.16.2.31.38.47.56l-.58-.22-1.38-.47h0l-.33.3,1.59,2,0,.05.32-.28-.7-.87c-.19-.23-.34-.42-.49-.59.18.08.38.15.63.24l1.39.47h0l.27-.24.05,0-1.64-2Z"/><path class="cls-11" d="M72.18,88.28h-.1a1,1,0,0,0-.75.34,1.34,1.34,0,0,0,.06,1.89,1.32,1.32,0,0,0,1,.48,1.05,1.05,0,0,0,.75-.33,1.5,1.5,0,0,0-.92-2.38Zm.67,2.08a.59.59,0,0,1-.56.18,1.07,1.07,0,0,1-.58-.37.92.92,0,0,1-.13-1.26.59.59,0,0,1,.42-.19l.15,0a1.18,1.18,0,0,1,.57.36A.92.92,0,0,1,72.85,90.36Z"/><path class="cls-11" d="M75.18,87.4a.79.79,0,0,0-.56-.14.72.72,0,0,0-.19-.73.75.75,0,0,0-.54-.21,1.12,1.12,0,0,0-.69.4,3.55,3.55,0,0,0-.41.49l0,0L74.59,89l0,0,.31-.32L74.16,88l.17-.17c.2-.18.36-.19.64,0a3.24,3.24,0,0,0,.56.31h0l.33-.34-.1,0A4.5,4.5,0,0,1,75.18,87.4Zm-1.09.12-.2.2-.58-.56.17-.2a.65.65,0,0,1,.39-.21h0a.37.37,0,0,1,.26.12A.44.44,0,0,1,74.09,87.52Z"/><polygon class="cls-11" points="76.19 84.25 76.21 84.22 75.91 83.96 74.59 85.38 74.56 85.4 74.86 85.66 75.38 85.11 77.03 86.53 77.08 86.57 77.38 86.24 75.69 84.78 76.19 84.25"/><polygon class="cls-11" points="79.03 83.48 78.38 84.34 77.77 83.86 78.32 83.14 78.36 83.09 78.06 82.85 77.47 83.62 76.95 83.21 77.53 82.44 77.57 82.39 77.26 82.14 76.41 83.27 76.37 83.32 78.36 84.9 78.41 84.94 79.31 83.77 79.34 83.72 79.03 83.48"/></g></g></svg>