<svg xmlns="http://www.w3.org/2000/svg" viewBox="0 0 86.25 113.76"><defs><style>.cls-1,.cls-7{fill:#1d1d1b;}.cls-1,.cls-2,.cls-3,.cls-4,.cls-5,.cls-8{fill-rule:evenodd;}.cls-2{fill:#fff;}.cls-3{fill:#e42313;}.cls-4{fill:#0074b7;}.cls-5,.cls-6{fill:#fddc04;}.cls-8{fill:#c8d3d9;}.cls-9{fill:#e30613;}.cls-10{fill:#235633;}</style></defs><g id="Capa_2" data-name="Capa 2"><g id="Capa_1-2" data-name="Capa 1"><path class="cls-1" d="M52.39,6.77c-.13,0-.25,0-.39,0a1.93,1.93,0,0,1-1.75-.9A2.07,2.07,0,0,1,50,5.32a1.34,1.34,0,0,1-.09.24c-.08.24-.16.46-.24.69L50,6.4a9.22,9.22,0,0,1,1.69,1.07c.25-.24.49-.46.72-.7M43,3.92a2.21,2.21,0,0,0,.07.79,1.43,1.43,0,0,0,.13.38q.38-.07.78-.12a1.94,1.94,0,0,1-.78-.68,1.68,1.68,0,0,1-.2-.37M73.12,23.54V64A30.43,30.43,0,0,1,70.9,75.59a28.81,28.81,0,0,1-6.45,9.64,29.2,29.2,0,0,1-9.76,6.41,31.31,31.31,0,0,1-23.21,0,29.34,29.34,0,0,1-9.77-6.41,28.78,28.78,0,0,1-6.44-9.64A30.24,30.24,0,0,1,13.05,64V23.54H30.93l-.24-.24a4,4,0,0,1-1.18-2.81c0-.33,0-.65,0-1a12.74,12.74,0,0,1,1.34-4.86,16,16,0,0,1,.81-1.4c-.44,0-.86,0-1.27,0H30l.15-.44a7.5,7.5,0,0,1,1.53-2.14l1-1.17c.36-.47.68-.93,1-1.38a14.12,14.12,0,0,1,1-1.43,2.12,2.12,0,0,1,1.6-.91,2.36,2.36,0,0,1,1.53.74c.34.28.7.62,1.07,1,.25-.26.53-.51.8-.75a7.86,7.86,0,0,1,1-.67,4.74,4.74,0,0,1-.4-1.29,4.28,4.28,0,0,1,.41-2.56A4.06,4.06,0,0,1,42.09.66,3.83,3.83,0,0,1,44.17.1a2.71,2.71,0,0,1,2,.76A2.73,2.73,0,0,1,46.84,2L47,1.9A5.77,5.77,0,0,1,51.37,0a4.45,4.45,0,0,1,2.92,1A3.62,3.62,0,0,1,55.5,3.59a2.9,2.9,0,0,1,0,.67A4.87,4.87,0,0,1,59,4.61a4.29,4.29,0,0,1,1.57,1.51,4.45,4.45,0,0,1,.67,2.11A4.13,4.13,0,0,1,60.43,11,4,4,0,0,1,58,12.44a2.35,2.35,0,0,1-.37.05,2.48,2.48,0,0,1,.25.3,4.4,4.4,0,0,1,.78,2.93c-.08,3.22-1.34,4.6-2.78,6.16-.46.51-1,1-1.41,1.66h.7a4.55,4.55,0,0,1,2.67-1.16l.66,0a3.55,3.55,0,0,1,2.83,1.12l0,.06Z"/><path class="cls-2" d="M53.45,25.16a6.33,6.33,0,0,0-.6,1.83,3.36,3.36,0,0,0,.08,1.66,3.15,3.15,0,0,0,.51.85,1.65,1.65,0,0,0,.75.51,1.47,1.47,0,0,0,1-.06,3.22,3.22,0,0,0,.93-.59,1.7,1.7,0,0,0,.21-.27,1.31,1.31,0,0,1-.28,0,1.94,1.94,0,0,1-.68-.17,1.92,1.92,0,0,1-1-1.06A5.29,5.29,0,0,1,54,26.58c0-.13,0-.27,0-.4a3.92,3.92,0,0,1,.14-1Z"/><path class="cls-2" d="M46,49a16.77,16.77,0,0,1-4.62-1.29l-.26.26c-1.33,2.2.73,3.92,2.15,5.1l.54.45a16.83,16.83,0,0,1,1.33,1.34l5.51-5.75A21.27,21.27,0,0,1,46,49"/><path class="cls-2" d="M62.12,25.16a7.06,7.06,0,0,1,.15,1.5,7,7,0,0,1-2.53,5.53,10.66,10.66,0,0,1-2.24,1.42,19.83,19.83,0,0,1-2.29,1s0,0,0,0a3.44,3.44,0,0,1-1.75.78l-.4.08-8.39,8.78a2.84,2.84,0,0,0,.35.63,6.23,6.23,0,0,0,1.81,1.65,16,16,0,0,0,2.58,1.19c.55.22,1.16.46,1.82.76L64.09,35V64a20.51,20.51,0,0,1-6,14.81,21.22,21.22,0,0,1-15,6,22,22,0,0,1-10-2.35,20.11,20.11,0,0,1-7.49-6.57l-.29-.44,9.6-10c-1.06-.11-2.13-.15-3.19-.16a7.89,7.89,0,0,1,5-3.72,6.66,6.66,0,0,1,2-.1l1.85-1.94c-.42-.43-.88-.86-1.33-1.28a21.65,21.65,0,0,1-2-2.07,12.31,12.31,0,0,1-1.59-2.57L22.09,67.81l0-34.83H38.16a9.42,9.42,0,0,0,.32-1.12,7.61,7.61,0,0,0,.05-3.45A5.15,5.15,0,0,1,38.1,28a8.71,8.71,0,0,0-1.24-1.07,14.67,14.67,0,0,0-2.19-1.13l-1-.46-.34-.18H14.67V64a27.77,27.77,0,0,0,8.18,20A28.55,28.55,0,0,0,43.1,92.25a28.53,28.53,0,0,0,20.22-8.17A27.77,27.77,0,0,0,71.5,64V25.16Z"/><path class="cls-3" d="M42.51,62.63a4.12,4.12,0,0,0-1-2.15l-1.22,1.28a12.1,12.1,0,0,1,2.27.87"/><path class="cls-3" d="M38.53,66.24a13.19,13.19,0,0,0-2.05-.55l-3,3.16h8.79a8.15,8.15,0,0,0-3.72-2.61"/><path class="cls-4" d="M50.73,48.68c-.54-.23-1-.43-1.5-.61a15.07,15.07,0,0,1-2.64-1.24,6.45,6.45,0,0,1-1.92-1.75,3,3,0,0,1-.6-1.73,9.12,9.12,0,0,0-3.48.21,7.42,7.42,0,0,0-3,1.51,6.9,6.9,0,0,0-1.78,2.22,5.65,5.65,0,0,0-.61,2.57,8.63,8.63,0,0,0,.62,3.08,11.28,11.28,0,0,0,1.74,3,22.17,22.17,0,0,0,2,2c1.69,1.57,3.48,3.23,3.36,5l0,.3-.27-.13A8.83,8.83,0,0,0,36.77,62a7,7,0,0,0-4.26,3,19,19,0,0,1,6.16,1,8.46,8.46,0,0,1,4,2.87,11.11,11.11,0,0,0,3.83-3,7.25,7.25,0,0,0,1.64-4,5.19,5.19,0,0,0-.4-2.17,11.75,11.75,0,0,0-.94-1.88,17.19,17.19,0,0,0-1.53-2.06,18.16,18.16,0,0,0-1.77-1.84L43,53.35C41.35,52,39,50,41.06,47.28l.1-.13.14.08A16.23,16.23,0,0,0,46,48.59a20.5,20.5,0,0,0,4.7.09"/><polygon class="cls-5" points="24.27 47.57 24.27 49.29 26.35 49.29 26.35 47.57 27.77 47.57 27.77 50.53 23.36 50.53 23.36 47.57 24.27 47.57"/><polygon class="cls-5" points="23.36 51.03 23.36 52.32 26.46 52.32 27.51 51.03 23.36 51.03"/><polygon class="cls-5" points="23.36 64.64 26.34 61.52 26.34 52.81 23.36 52.81 23.36 64.64"/><rect class="cls-6" x="59.84" y="52.82" width="2.98" height="9.24"/><polygon class="cls-5" points="62.82 52.32 62.82 51.03 58.67 51.03 59.7 52.32 62.82 52.32"/><polygon class="cls-5" points="62.82 50.53 62.82 47.57 61.9 47.57 61.9 49.29 59.81 49.29 59.81 47.57 58.39 47.57 58.39 50.53 62.82 50.53"/><path class="cls-5" d="M62.82,64V62.55h-3.1l-2.51,3.54h5.51c.06-.67.1-1.36.1-2"/><polygon class="cls-5" points="55.25 68.85 59.57 68.85 59.57 66.58 56.86 66.58 55.25 68.85"/><path class="cls-5" d="M60.05,68.85h2.22a21.1,21.1,0,0,0,.4-2.27H60.05Z"/><polygon class="cls-5" points="38.59 78.36 35.96 78.36 35.96 80.88 40.88 80.88 40.88 78.36 38.59 78.36"/><polygon class="cls-5" points="44.02 78.36 41.36 78.36 41.36 80.88 46.25 80.88 46.25 78.36 44.02 78.36"/><polygon class="cls-5" points="49.47 78.36 46.75 78.36 46.75 80.88 51.85 80.88 51.85 78.36 49.47 78.36"/><rect class="cls-6" x="33.18" y="74.8" width="4.91" height="3.07"/><rect class="cls-6" x="38.6" y="74.8" width="4.94" height="3.07"/><rect class="cls-6" x="44.02" y="74.8" width="4.95" height="3.07"/><rect class="cls-6" x="49.47" y="74.8" width="4.99" height="3.07"/><path class="cls-5" d="M53.36,80.88a18.79,18.79,0,0,0,3.41-2.52H52.35v2.52Z"/><path class="cls-5" d="M57.28,77.86a18.4,18.4,0,0,0,2.49-3.06H55v3.06Z"/><path class="cls-5" d="M27.79,74.8l-.82.83a19.65,19.65,0,0,0,1.91,2.23H32.7V74.8Z"/><path class="cls-5" d="M29.39,78.36a19.66,19.66,0,0,0,3.43,2.52h2.66V78.36H29.39Z"/><path class="cls-5" d="M43.94,83.55a20.2,20.2,0,0,0,8.49-2.17H43.94Z"/><path class="cls-5" d="M33.73,81.38a20.71,20.71,0,0,0,9.37,2.18h.36V81.38Z"/><polygon class="cls-5" points="30.08 72.39 28.25 74.3 30.08 74.3 30.08 72.39"/><polygon class="cls-5" points="33 69.33 30.58 71.87 30.58 74.3 35.48 74.3 35.48 69.33 33 69.33"/><rect class="cls-6" x="35.96" y="69.34" width="4.91" height="4.96"/><rect class="cls-6" x="41.36" y="69.34" width="4.89" height="4.96"/><rect class="cls-6" x="46.75" y="69.34" width="5.1" height="4.96"/><rect class="cls-6" x="52.35" y="69.34" width="5.04" height="4.96"/><path class="cls-5" d="M60.07,74.3a19.55,19.55,0,0,0,2.08-5H57.87v5Z"/><rect class="cls-7" x="60.93" y="54.15" width="1" height="5.19"/><rect class="cls-7" x="24.26" y="54.15" width="0.98" height="5.19"/><path class="cls-5" d="M57.12,27.44a.33.33,0,0,0-.27.11c-.13.14-.09.39-.16.57a.6.6,0,0,1-.25.27.68.68,0,0,1-.39.08,1.45,1.45,0,0,1-.47-.13,1.23,1.23,0,0,1-.66-.72,4.25,4.25,0,0,1-.24-1.1c0-.11,0-.22,0-.34a3,3,0,0,1,.8-2.05A3.65,3.65,0,0,1,57.88,23a5.74,5.74,0,0,1,.6,0,3,3,0,0,1,2.35.9,4.12,4.12,0,0,1,.81,2.77,6.37,6.37,0,0,1-2.31,5.05A10.49,10.49,0,0,1,57.22,33c-.38.19-.78.36-1.16.52.18-.26.36-.54.56-.88l.1-.18-.11-.16c-.3-.42-1-.36-1.91-.29a8,8,0,0,1-3.4-.23,2.67,2.67,0,0,1-1.28-1,3.09,3.09,0,0,1-.55-1.62,7.63,7.63,0,0,1,.88-3.9,22.21,22.21,0,0,1,2.33-3.53l.44-.58c1.68-2.15,3.4-4.37,2.64-7.41A12.35,12.35,0,0,0,55,11.67a4.71,4.71,0,0,1,2.33,1.51A3.82,3.82,0,0,1,58,15.71a7.72,7.72,0,0,1-2.61,5.74A14.47,14.47,0,0,0,53,24.6a7.21,7.21,0,0,0-.81,2.29,3.88,3.88,0,0,0,.14,2,3.2,3.2,0,0,0,.61,1,2.2,2.2,0,0,0,1,.7,2.11,2.11,0,0,0,1.37-.07,4.38,4.38,0,0,0,1.12-.71,3,3,0,0,0,.62-1A3.51,3.51,0,0,0,57.4,28c0-.21,0-.48-.28-.51"/><path class="cls-5" d="M56.8,8a1.51,1.51,0,0,0-.7,0,1.36,1.36,0,0,0-.39.12.1.1,0,0,1-.05,0,2.58,2.58,0,0,0-.67.9,1.91,1.91,0,0,1,0,.21,1.85,1.85,0,0,0,0,1.19,2.61,2.61,0,0,0,.86.82,4.31,4.31,0,0,1,.68.34,2.76,2.76,0,0,0,1.35.17,3.33,3.33,0,0,0,2.06-1.21,3.48,3.48,0,0,0,.67-2.34A3.94,3.94,0,0,0,60,6.45a3.61,3.61,0,0,0-1.35-1.28,4,4,0,0,0-2-.46,3.32,3.32,0,0,0-1.82.56,10.59,10.59,0,0,0-1.47,1.41c-.38.39-.75.79-1.19,1.19a9.93,9.93,0,0,1,1.47,1.56,7,7,0,0,1,.44.59,4.44,4.44,0,0,1,.86-2.12,2.66,2.66,0,0,1,.45-.29A1.87,1.87,0,0,1,56,7.33a1.61,1.61,0,0,1,.84,0,.85.85,0,0,1,.17.06l.15.05c.42.15,1.15-.07,1.22.65.16,1.86-.53,1-.67.67A1.5,1.5,0,0,0,56.8,8"/><path class="cls-5" d="M50.22,2.59a3.81,3.81,0,0,1,.18,1,4.66,4.66,0,0,0,.4,2A1.31,1.31,0,0,0,52,6.15a3.07,3.07,0,0,0,1.19-.23l.14-.16h0l.07-.08a.19.19,0,0,0,.06-.07h0s0,0,0,0h0s0,0,0,0a3.15,3.15,0,0,1,.28-.25h0s0,0,0,0l0,0h0l0,0v0a.05.05,0,0,0,0,0h0L54.13,5h0l.15-.13h.05v0s0,0,0,0h0l0,0h0v0h0l.05,0,0,0,.08-.05h0a2.06,2.06,0,0,0,.23-1,3.09,3.09,0,0,0-1-2.18A3.72,3.72,0,0,0,51.36.64a5.12,5.12,0,0,0-3.93,1.69A7.57,7.57,0,0,0,45.85,5l.49.08A13,13,0,0,1,49.1,6l.24-.64c.31-.86.66-1.9.88-2.76"/><path class="cls-5" d="M43.78,2.38a1.22,1.22,0,0,0-.11,1.55,1.45,1.45,0,0,0,.61.5,1.59,1.59,0,0,0,.56.12H45a1.11,1.11,0,0,0,.41-.08,9,9,0,0,1,.94-1.77,2.27,2.27,0,0,0-.61-1.38A2.06,2.06,0,0,0,44.17.74a3.13,3.13,0,0,0-1.76.47,3.44,3.44,0,0,0-1.58,3.53,3.45,3.45,0,0,0,.31,1.06,7.25,7.25,0,0,1,1.38-.56c-.05-.13-.08-.25-.12-.36-.29-1.14.05-2.36,1.38-2.5"/><path class="cls-8" d="M45,18.34l.56-1.17A13.59,13.59,0,0,0,43,13a53.44,53.44,0,0,0-5.6-6,1.87,1.87,0,0,0-1.12-.57,1.56,1.56,0,0,0-1.11.68,12.37,12.37,0,0,0-1,1.37c-.31.46-.63.94-1,1.42s-.68.83-1,1.2a12.21,12.21,0,0,0-1.18,1.49,20,20,0,0,1,7.69,1.47A18.37,18.37,0,0,1,45,18.34"/><path class="cls-8" d="M38.37,14.68a18,18,0,0,1,6,3.93c-.32.12-.64.22-1,.32-1.09.32-2.17.58-3.12.79a10.79,10.79,0,0,1-2.54.17c-.38,0-.79,0-1.24,0-1,0-2.25,0-3.68,0l-2.66,0a11.75,11.75,0,0,1,1.28-4.86,15.86,15.86,0,0,1,1-1.65,19.66,19.66,0,0,1,5.95,1.39"/><path class="cls-8" d="M32.82,20.47c1.42,0,2.67.06,3.71,0h1.2a11.18,11.18,0,0,0,2.7-.17c1-.23,2.09-.49,3.15-.81.38-.11.94-.3,1.32-.45l1,1.25-.65,1c-2.57,3.81-3.55,5.27-6.42,6.54l-.27-.29a9.3,9.3,0,0,0-1.35-1.15,16,16,0,0,0-2.28-1.19l-1-.45a9.52,9.52,0,0,1-2.83-1.89,3.4,3.4,0,0,1-1-2.43l2.67,0"/><path class="cls-8" d="M46.18,16.72a2.37,2.37,0,0,1,3.67,0,3.29,3.29,0,0,1,0,4.28,2.47,2.47,0,0,1-1.84.87A2.44,2.44,0,0,1,46.2,21c.19-.27.32-.48.36-.52a.44.44,0,0,0,0-.39l-1.1-1.36.68-1.42,0-.18a2.17,2.17,0,0,0-.07-.33l.1-.11"/><path class="cls-8" d="M45.79,21.65l.07-.12a2.95,2.95,0,0,0,4.43-.15,3.86,3.86,0,0,0,0-5.05,3,3,0,0,0-4.45-.12,20,20,0,0,0-2.4-3.62A58.38,58.38,0,0,0,39.28,8c.24-.24.5-.48.75-.69a7.58,7.58,0,0,1,3.22-1.57,7.31,7.31,0,0,1,3,0A13.34,13.34,0,0,1,49.7,7a10,10,0,0,1,3.44,2.84,11.23,11.23,0,0,1,2,4.15c.69,2.76-.93,4.84-2.53,6.89l-.45.57a22.48,22.48,0,0,0-2.38,3.63,8.14,8.14,0,0,0-1,4.22,3.83,3.83,0,0,0,.66,1.95,3.23,3.23,0,0,0,1.6,1.2,8.36,8.36,0,0,0,3.66.27,7.4,7.4,0,0,1,1.15,0,5.88,5.88,0,0,1-1.12,1.45,3,3,0,0,1-1.47.66,26.16,26.16,0,0,1-3.16.37,16.29,16.29,0,0,0-5.23,1,46.43,46.43,0,0,0-4.28,2.19L39.33,39a40.12,40.12,0,0,1-4.26,2,14.07,14.07,0,0,1-4.5,1,10,10,0,0,1-2.7-.16,3.12,3.12,0,0,1-2-1.39,2.64,2.64,0,0,1-.39-1.77,1.61,1.61,0,0,1,.3-.73,1,1,0,0,1,.58-.37,1.71,1.71,0,0,1,1.17.27,4,4,0,0,1,1.05,1c.33.4.62.75,1,.83A6.25,6.25,0,0,0,34,39.07a9.6,9.6,0,0,0,3.25-3A12.24,12.24,0,0,0,38,34.94c.37-.35.68-.7,1-1a5.15,5.15,0,0,1,1.66-1.42,16.29,16.29,0,0,1,6.72-1h.56a.31.31,0,0,0,.31-.31.32.32,0,0,0-.31-.33h-.56a17.23,17.23,0,0,0-7,1,5,5,0,0,0-1.62,1.29A11,11,0,0,0,39.11,32a8.22,8.22,0,0,0,.06-3.62c3-1.35,4-2.84,6.62-6.74"/><path class="cls-1" d="M48.42,16.81a1.58,1.58,0,0,1,1.26.63,2.34,2.34,0,0,1,0,2.92,1.62,1.62,0,0,1-1.26.64,1.65,1.65,0,0,1-1.27-.64,2.38,2.38,0,0,1,0-2.92,1.61,1.61,0,0,1,1.27-.63"/><path class="cls-1" d="M27.44,39.32a2.21,2.21,0,0,0,1.37,1,6.6,6.6,0,0,0,2.58.18,12.86,12.86,0,0,0,3.6-.91,24.3,24.3,0,0,0,3.34-1.75A33.58,33.58,0,0,1,44,34.87a18,18,0,0,1,7.06-1.16.3.3,0,0,1,.31.33.31.31,0,0,1-.34.31,17.25,17.25,0,0,0-6.8,1.12,32.79,32.79,0,0,0-5.6,2.87,23,23,0,0,1-3.43,1.79,13.36,13.36,0,0,1-3.79,1,7.71,7.71,0,0,1-2.82-.2,3,3,0,0,1-1.73-1.25.3.3,0,0,1,.11-.44.3.3,0,0,1,.44.11"/><path class="cls-1" d="M45.84,30.35a10.4,10.4,0,0,0-3-.16,4.54,4.54,0,0,0-2.65,1.11.3.3,0,0,1-.45,0,.33.33,0,0,1,0-.45,5.23,5.23,0,0,1,3-1.27,11.6,11.6,0,0,1,3.22.16.3.3,0,0,1,.26.36.31.31,0,0,1-.36.28"/><path class="cls-8" d="M48.42,17.39a1.07,1.07,0,0,0-.82.43,1.67,1.67,0,0,0-.36,1.08A1.7,1.7,0,0,0,47.6,20a1,1,0,0,0,1.63,0,1.76,1.76,0,0,0,.36-1.09,1.73,1.73,0,0,0-.36-1.08,1.06,1.06,0,0,0-.81-.43"/><path class="cls-9" d="M26.83,52.65l1.43-1.78v-3.8H25.87V48.8H24.76V47.07h-1.4V34.26H37.63a10.33,10.33,0,0,1-.87,1.47,9,9,0,0,1-3,2.78,5.67,5.67,0,0,1-4,.62c-.17,0-.38-.32-.65-.63a4.82,4.82,0,0,0-1.23-1.13A2.3,2.3,0,0,0,26.24,37a1.69,1.69,0,0,0-.94.59,2.27,2.27,0,0,0-.42,1,3.2,3.2,0,0,0,.47,2.22,3.75,3.75,0,0,0,2.37,1.66,10.54,10.54,0,0,0,2.87.17,14.71,14.71,0,0,0,4.71-1,41.53,41.53,0,0,0,4.33-2.08c.41-.23.86-.47,1.32-.74a42.79,42.79,0,0,1,4.22-2.15,15.5,15.5,0,0,1,5-1l.84-.07L44.09,43a9.57,9.57,0,0,0-3.6.23,7.86,7.86,0,0,0-3.18,1.58,7.3,7.3,0,0,0-1.87,2.35,5.81,5.81,0,0,0-.65,2.74,8.9,8.9,0,0,0,.37,2.43L26.83,61Zm19.11,3.16L62.82,38.15v8.92H61.41V48.8h-1.1V47.07h-2.4v3.8l1.43,1.78v9.58l-4.69,6.62H43.34A11.21,11.21,0,0,0,46.81,66a7.61,7.61,0,0,0,1.73-4.21,5.53,5.53,0,0,0-.42-2.33,13.77,13.77,0,0,0-1-2,17.67,17.67,0,0,0-1.21-1.67"/><path class="cls-10" d="M42.79,106l-8.6,4.9c.47,1,.91,2,1.31,2.91,2.25-2.83,5.31-4.68,7.92-7.09,1.52,1.23,2.93,2.32,4.28,3.48s2.7,2.38,4,3.55c.22-.5.5-1.18.83-1.84s.21-.85-.39-1.18c-1.74-1-3.42-2-5.12-3L44.18,106l1.16-1,.94-.84c0-.11-.07-.21-.1-.32-1.74,1.68-3.49,2-5.27,0,0,.13,0,.25-.08.37l2,1.82m-18,.47a21.45,21.45,0,0,0,7.05,2.37A5.63,5.63,0,0,0,37.69,106c-2.06-1.27-4.21-2.16-6.68-1.48-2,.57-4.06,1.24-6.2,1.89m36.67-.22c-2-.59-3.91-1.14-5.81-1.73-2.65-.84-4.91.07-7.15,1.45a5.38,5.38,0,0,0,4.33,2.69c3.15.23,5.9-1,8.63-2.41m-45.14-5.82c2.21,2,4.53,3.83,7.51,4.58a4.85,4.85,0,0,0,4.59-1.13c-1.43-1.54-2.94-2.92-5.05-3.13-2.33-.23-4.68-.22-7-.32m53.28.08c-1.61,0-3.33.08-5,0-2.83-.16-4.83,1.28-6.7,3.2a4.74,4.74,0,0,0,4.67,1.1,16.5,16.5,0,0,0,7.07-4.28M9.5,92.68c1.69,2.2,3.29,4.32,5.6,5.76a5.38,5.38,0,0,0,5.06.6c-1.11-1.85-2.28-3.5-4.32-4.24s-4.13-1.39-6.34-2.12m56.62,6.15c3.26,1.37,7.32-1.13,10.36-6.17-1.79.58-3.67,1.12-5.51,1.78a9.18,9.18,0,0,0-4.85,4.39m6.76-6.66c3.4.27,8.42-4.76,8.51-8.27-1.48.95-3,2-4.55,2.91a9.06,9.06,0,0,0-4,5.36M4.55,83.85C5.8,86.51,7.06,89.1,9.32,91a5.41,5.41,0,0,0,4.07,1.3,8.93,8.93,0,0,0-3.15-4.82c-1.83-1.26-3.73-2.42-5.69-3.67M50.44,103.9c1.87-.74,3.65-1.54,4.6-3.49.79-1.61,1.63-3.19,2.41-4.7-4.9,1.66-7.51,4.64-7,8.19M10.81,38.19,10.55,38c-1.34,1.49-2.72,2.94-4,4.47a7.2,7.2,0,0,0-1.12,2c-.43,1.18,0,2.84.62,3.08s2.06-.67,2.48-1.91c.83-2.47,1.53-5,2.29-7.49M28.9,95.89c.69,1.38,1.45,2.76,2.1,4.19A7.49,7.49,0,0,0,35.9,104c.4-3.57-2.39-6.74-7-8.12M75.53,37.78l-.14.11c.67,2.33,1.27,4.68,2,7A5.31,5.31,0,0,0,79,47.1c1,.82,1.59.51,1.9-.71a4.15,4.15,0,0,0-1-3.79c-1.38-1.66-2.88-3.22-4.33-4.82m-74,36.79c1.15,3.89,1.89,8.06,6.58,9.68,0-4.82-4.08-6.73-6.58-9.68m83.13-.27c-2.47,3.09-6.41,5.07-6.55,9.67,3.11-.44,5.8-4.41,6.55-9.67M.17,65.79C.6,69.67.79,73.7,4.94,76c.57-4.52-2.88-7-4.77-10.21M85.89,66c-1.88,3.11-5.21,5.55-4.59,10,3.94-2.35,4.37-6.12,4.59-10M27.23,101.58c1-3.06-.62-6.46-4.58-9a23.32,23.32,0,0,1,.8,3.22,8,8,0,0,0,3.78,5.77m31.89-.14c1.36-1.09,2.7-2.17,3.22-3.85s.8-3.34,1.18-5c-3.6,2-5.53,5.84-4.4,8.86M3.31,67.58C4.4,63.63,1.54,61,.33,57.45c-1,4.28.37,8.75,3,10.13m82.55-10.3c-1,3.49-4.09,6.19-2.9,10.2,2.6-1.6,4-6.51,2.9-10.2M19.57,96.76c1.56-2.68.44-6.69-2.32-9,0,1,.05,2.12,0,3.23a7.69,7.69,0,0,0,2.32,5.72m47.17-.19c1-1.29,2.14-2.51,2.23-4.24.07-1.58,0-3.16,0-4.7-3,3.18-3.87,6.49-2.24,8.94M1.6,50C-.07,53.48.83,58.61,3,59.64c1.71-3.47-1-6.26-1.37-9.61m83.05-.13c-.51,3.39-3,6.23-1.39,9.71,2.26-1.72,2.95-6,1.39-9.71M13,81.63c-.67,2.87-1.89,5.77.45,8.44,1.82-2.16,1.7-4.4-.45-8.44m59.87,8.3c2.27-2.7,1.15-5.49.44-8.26-2.14,3.47-2.29,6.24-.44,8.26M3.66,52.61c1.23-1.69,1.15-5.15-.22-8.76-1.79,3-1.7,6.66.22,8.76m78.86-.1c2-1.69,2-6.21.07-8.88.1,3-2,5.91-.07,8.88m-6.06,21.8c-1.28,3.54-1.24,7,1.36,7.71a9.52,9.52,0,0,0,.4-3.06,33,33,0,0,0-1.76-4.65M8.67,82.13c2-.68,2.64-3.82,1.12-7.37-1.21,2.29-2.69,4.61-1.12,7.37m71.69-7.94c1.07-2.83-.6-4.58-2.26-6.32-.91,3,0,5.58,2.26,6.32m-74.54.09c2.27-.56,3.29-3.37,2.29-6.21-1.71,1.67-3.19,3.47-2.29,6.21m-1.49-8c2.12.25,3.32-1.81,3.17-5.11-1.77,1.23-3.73,2.4-3.17,5.11m74.28-5.38c.48,4.27,1.14,5.3,3.28,5.27.33-2.14,0-2.59-3.28-5.27M4.09,58.78c1.78.86,3.48-.92,3.69-3.84-1.87.65-3.73,1.34-3.69,3.84m74.26-4.09c.54,3.35,1.79,4.63,3.85,4,0-2.52-2.08-3-3.85-4m-.94-5.56-.34.25A15.05,15.05,0,0,0,79.27,52c.41.33,1.33,0,2,0a5.85,5.85,0,0,0-.75-1.66A4.1,4.1,0,0,0,79,49.49a11.08,11.08,0,0,0-1.56-.36m-68.55.21c-1.94.09-3.62.44-3.94,2.7,1.86.87,3.31-.13,3.94-2.7"/></g></g></svg>