<svg xmlns="http://www.w3.org/2000/svg" viewBox="0 0 89.85 102.05"><defs><style>.cls-1{fill:#ffed00;}.cls-2{fill:#183a64;}.cls-3{fill:#f2da00;}.cls-4{fill:#fff;}</style></defs><g id="Capa_2" data-name="Capa 2"><g id="Capa_1-2" data-name="Capa 1"><path class="cls-1" d="M59.1,102.05l-2.9-2.11-2.91,2.11,1.11-3.42-2.9-2.11h3.59l1.11-3.41,1.11,3.41H60.9L58,98.63Zm-22.54,0-2.91-2.11-2.9,2.11,1.11-3.42L29,96.52h3.59l1.11-3.41,1.11,3.41h3.6l-2.91,2.11Zm-22.54,0-2.91-2.11-2.9,2.11,1.11-3.42L6.41,96.52H10l1.11-3.41,1.11,3.41h3.59l-2.9,2.11Zm67.63,0-2.91-2.11-2.9,2.11L77,98.63,74,96.52h3.59l1.11-3.41,1.11,3.41h3.59l-2.9,2.11Z"/><path class="cls-2" d="M25.29,35.32a22.61,22.61,0,0,1,1.28-2.18,21.39,21.39,0,0,1,1.9-2.45,21.89,21.89,0,0,1,36,4.84l-4.83,2.41a16.5,16.5,0,0,0-27.95-2.62,21.93,21.93,0,0,1,2.22,7.29H53.54v5.31H33.86a21.88,21.88,0,0,1-2.22,7.28,16.49,16.49,0,0,0,28.09-2.91l4.83,2.41a21.89,21.89,0,0,1-36.09,5.13,20.86,20.86,0,0,1-2.2-2.92c-.35-.55-.68-1.12-1-1.71a16.29,16.29,0,0,0,3.18-7.63,17.69,17.69,0,0,0,.15-2.31,17.42,17.42,0,0,0-.15-2.3A16.46,16.46,0,0,0,27,38.18a16.06,16.06,0,0,0-1.74-2.86M72.1,6.18,83.88,19.11,68.06,33a26.27,26.27,0,0,0-13-11.88ZM19.72,52.28A26.22,26.22,0,0,0,29.84,66.64L16.69,78.21C10.84,76,6.16,71.8,4.79,65.42ZM65.87,5.74,72.46,0,89.38,18.58c-2.87,4.86-5.73,10.18-5.73,16.06,0,9.47,6.2,17.63,6.2,27.2C89.85,77,76,84.63,61.59,84.63c-8.43,0-12,3.5-16.66,9.82-4.7-6.32-8.24-9.82-16.67-9.82C13.89,84.63,0,77,0,61.84c0-9.57,6.21-17.73,6.21-27.2,0-5.88-2.87-11.2-5.74-16.06L17.39,0,24,5.74A45.7,45.7,0,0,1,44.93.3,45.73,45.73,0,0,1,65.87,5.74M23.77,8.52l-.09.05-6.1-5.3L3.37,18.88c2.74,4.66,5.18,10.24,5.18,15.76,0,9.56-6.21,17.53-6.21,27.2,0,13.22,12.1,20.45,25.92,20.45,8.55,0,13.39,3.89,16.67,8.24,3.27-4.35,8.11-8.24,16.66-8.24,13.82,0,25.92-7.23,25.92-20.45,0-9.67-6.21-17.64-6.21-27.2,0-5.52,2.44-11.1,5.18-15.76L72.27,3.27l-6.09,5.3A44.25,44.25,0,0,0,44.93,2.64,44.18,44.18,0,0,0,23.77,8.52"/><path class="cls-2" d="M21,45.26A23.94,23.94,0,1,1,44.93,69.19,23.93,23.93,0,0,1,21,45.26m4.3-9.94A16.34,16.34,0,0,1,28.46,43a15.87,15.87,0,0,1,.16,2.3,16.1,16.1,0,0,1-.16,2.31,16.41,16.41,0,0,1-1.52,5,16.88,16.88,0,0,1-1.65,2.66c.3.59.63,1.16,1,1.71a22.54,22.54,0,0,0,2.2,2.92,21.9,21.9,0,0,0,36.1-5.13l-4.83-2.41A16.49,16.49,0,0,1,31.64,55.2a21.88,21.88,0,0,0,2.22-7.28H53.54V42.61H33.86a21.86,21.86,0,0,0-2.22-7.29,16.5,16.5,0,0,1,28,2.62l4.83-2.41a21.9,21.9,0,0,0-36-4.84,22.3,22.3,0,0,0-3.17,4.63m5.89,44.89a27.14,27.14,0,0,0-2.92-.15,33.94,33.94,0,0,1-9-1.16L31.18,68.43Zm12.56,5.88A19.47,19.47,0,0,0,33.55,80.6V69a26.18,26.18,0,0,0,10.19,2.55ZM56.3,80.6a19.51,19.51,0,0,0-10.19,5.49V71.54A26.18,26.18,0,0,0,56.3,69Zm12.56-1.28a34.65,34.65,0,0,1-7.27.74,27.14,27.14,0,0,0-2.92.15V67.69A26.34,26.34,0,0,0,68.86,56.2ZM81.28,24.37a29.41,29.41,0,0,0-2.21,10.27c0,11,6.21,15.81,6.21,27.2,0,8.43-5.7,14.36-14,16.87V45.26A26.26,26.26,0,0,0,69.17,35ZM44.93,4.87A42.27,42.27,0,0,1,64.3,10.08L52.84,20.16A26.34,26.34,0,0,0,19,49.92L4.59,62.63c0-.26,0-.52,0-.79,0-11.39,6.21-16.21,6.21-27.2,0-7.59-4.66-15.48-4.66-15.48L17.76,6.38l5.68,4.94S33,4.87,44.93,4.87"/><path class="cls-3" d="M55.36,21.1,72.09,6.38,83.67,19.1,68.1,32.8A26.45,26.45,0,0,0,55.36,21.1"/><path class="cls-3" d="M25.27,35.32A17.32,17.32,0,0,1,27,38.18,16.75,16.75,0,0,1,28.44,43a17.42,17.42,0,0,1,.16,2.3,17.69,17.69,0,0,1-.16,2.31,16.43,16.43,0,0,1-1.53,5,16.82,16.82,0,0,1-1.64,2.66c.3.59.62,1.16,1,1.71A21.93,21.93,0,0,0,44.77,67.15,21.89,21.89,0,0,0,64.53,54.7L59.7,52.29A16.49,16.49,0,0,1,31.61,55.2a21.65,21.65,0,0,0,2.22-7.28H53.51V42.61H33.83a21.63,21.63,0,0,0-2.22-7.29,16.5,16.5,0,0,1,28,2.62l4.83-2.41a21.89,21.89,0,0,0-35.95-4.84,21.3,21.3,0,0,0-3.17,4.63"/><path class="cls-3" d="M5,65.48l14.7-12.94a26.32,26.32,0,0,0,10,14.11L16.69,78C10.62,75.69,6.25,71.36,5,65.48"/><path class="cls-4" d="M21,45.26A23.94,23.94,0,1,1,44.93,69.19,23.93,23.93,0,0,1,21,45.26M31.18,80.21a27,27,0,0,0-2.92-.15,33.94,33.94,0,0,1-9-1.16L31.18,68.43Zm12.56,5.88a19.54,19.54,0,0,0-10.19-5.5V69a26.18,26.18,0,0,0,10.19,2.55Zm12.56-5.5a19.58,19.58,0,0,0-10.19,5.5V71.54A26.18,26.18,0,0,0,56.3,69Zm12.56-1.27a34.65,34.65,0,0,1-7.27.74,27.28,27.28,0,0,0-2.92.15V67.69A26.34,26.34,0,0,0,68.86,56.2ZM81.28,24.37a29.41,29.41,0,0,0-2.21,10.27c0,11,6.21,15.81,6.21,27.2,0,8.43-5.7,14.36-14,16.87V45.26A26.26,26.26,0,0,0,69.17,35ZM44.93,4.87A42.27,42.27,0,0,1,64.3,10.08L52.84,20.16A26.34,26.34,0,0,0,19,49.92L4.59,62.63c0-.26,0-.52,0-.79,0-11.39,6.21-16.21,6.21-27.2,0-7.59-4.66-15.48-4.66-15.48L17.76,6.38l5.68,4.94S33,4.87,44.93,4.87M55.36,21.1,72.09,6.38,83.67,19.1,68.1,32.8A26.45,26.45,0,0,0,55.36,21.1M5,65.47,19.64,52.54a26.37,26.37,0,0,0,10,14.11L16.66,78C10.58,75.69,6.21,71.36,5,65.47M28.82,5.9a47.1,47.1,0,0,0-5.13,2.5L17.57,3.07,3.19,18.86C6,23.54,8.4,29.13,8.4,34.64c0,9.61-6.2,17.35-6.2,27.2,0,13.33,12.21,20.59,26.06,20.59,8.6,0,13.41,4,16.67,8.34,3.25-4.38,8.07-8.34,16.66-8.34,13.86,0,26.07-7.26,26.07-20.59,0-9.85-6.21-17.59-6.21-27.2,0-5.51,2.45-11.1,5.21-15.78L72.28,3.07,66.16,8.4A47.71,47.71,0,0,0,61,5.9,42.82,42.82,0,0,0,44.93,2.5,42.73,42.73,0,0,0,28.82,5.9"/></g></g></svg>