<svg xmlns="http://www.w3.org/2000/svg" viewBox="0 0 76.15 118.54"><defs><style>.cls-1,.cls-4,.cls-5{fill-rule:evenodd;}.cls-2{fill:#0086cd;}.cls-3{fill:#fff;}.cls-4{fill:#ffed00;}.cls-5{fill:#e30613;}.cls-6{fill:#c7c4c3;}.cls-7{fill:#cecbca;}.cls-8{fill:#ebebea;}.cls-9{fill:#b2b1b3;}</style></defs><g id="Capa_2" data-name="Capa 2"><g id="Capa_1-2" data-name="Capa 1"><path class="cls-1" d="M38.08,36.25A90.63,90.63,0,0,0,58,34.47c8.25-1.78,18.2-4.09,18.2-4.09V53c0,8.72-.34,27.89-15.14,45.48s-22.93,20-22.93,20-8.15-2.45-22.94-20S0,61.74,0,53V30.38s10,2.31,18.2,4.09a90.67,90.67,0,0,0,19.88,1.78"/><path class="cls-2" d="M50.39,37.34v70a67.56,67.56,0,0,1-8.11,6.83V38c2.83-.11,5.5-.32,8.11-.63M33.69,38v76.13a74.38,74.38,0,0,1-8.12-7V37.32c2.61.31,5.29.53,8.12.64M17,36V97.88l-.46-.54A61.49,61.49,0,0,1,8.87,85.85V34.27c2.78.62,5.46,1.2,8.11,1.7M67.1,34.31V86.2a61.29,61.29,0,0,1-7.47,11.14L59,98.1V36c2.65-.5,5.33-1.08,8.11-1.7"/><path class="cls-3" d="M63.11,70.33a25,25,0,1,0-25,24.84,25,25,0,0,0,25-24.84"/><path class="cls-3" d="M26.15,58.5A11.91,11.91,0,0,1,38.08,70.33,11.9,11.9,0,0,1,26.15,58.5M38.08,70.33A11.9,11.9,0,0,1,26.15,82.16,11.91,11.91,0,0,1,38.08,70.33m25,0a25,25,0,1,1-25-24.84,25,25,0,0,1,25,24.84M50,82.16A11.83,11.83,0,1,1,50,58.5,11.89,11.89,0,0,1,38.08,46.67,11.9,11.9,0,0,1,26.15,58.5,11.89,11.89,0,0,1,14.23,70.33,11.9,11.9,0,0,1,26.15,82.16,11.9,11.9,0,0,1,38.08,94,11.89,11.89,0,0,1,50,82.16"/><path class="cls-4" d="M38.08,46.67A11.89,11.89,0,0,0,50,58.5,11.9,11.9,0,0,0,38.08,70.33,11.91,11.91,0,0,0,26.15,58.5,11.9,11.9,0,0,0,38.08,46.67"/><path class="cls-5" d="M26.15,58.5A11.9,11.9,0,0,0,38.08,70.33,11.91,11.91,0,0,0,26.15,82.16,11.9,11.9,0,0,0,14.23,70.33,11.89,11.89,0,0,0,26.15,58.5"/><path class="cls-2" d="M38.08,70.33A11.89,11.89,0,0,0,50,82.16,11.89,11.89,0,0,0,38.08,94,11.9,11.9,0,0,0,26.15,82.16,11.9,11.9,0,0,0,38.08,70.33"/><path class="cls-2" d="M38.08,70.33A11.89,11.89,0,0,0,50,82.16,11.89,11.89,0,0,0,38.08,94,11.9,11.9,0,0,0,26.15,82.16,11.9,11.9,0,0,0,38.08,70.33"/><path d="M52.72,71.82a.85.85,0,0,0,.09-.44v-.47a1,1,0,0,1-.35,0c-.33,0-.35.19-.35.48s0,.49.31.49a.34.34,0,0,0,.3-.11m.08.39a.62.62,0,0,1-.49.17c-.48,0-.62-.36-.62-.78v-.32c0-.43.17-.78.66-.78s.45-.13.45-.14a1.23,1.23,0,0,0-.07-.51s-.11-.09-.26-.09-.3.08-.3.3v.19h-.41v-.18c0-.5.21-.77.72-.77s.72.35.72.9v2.13h-.4Zm-8.29-.39a.76.76,0,0,0,.09-.44v-.47a1,1,0,0,1-.35,0c-.33,0-.35.19-.35.48s0,.49.32.49a.33.33,0,0,0,.29-.11m.08.39a.62.62,0,0,1-.49.17c-.48,0-.62-.36-.62-.78v-.32c0-.43.18-.78.66-.78s.45-.13.45-.14a1.23,1.23,0,0,0-.07-.51s-.11-.09-.26-.09-.29.08-.29.3v.19h-.42v-.18c0-.5.21-.77.72-.77s.73.35.73.9v2.13h-.41ZM42,71.73c0,.09,0,.2.31.2a.32.32,0,0,0,.31-.18,1.76,1.76,0,0,0,.1-.73V69.36h.41v3h-.41v-.17a.72.72,0,0,1-.55.22.51.51,0,0,1-.58-.49V69.36H42Zm-2.39-3.36h.44v1.54h.71V68.37h.44v4h-.44V70.42h-.71v1.91h-.44Zm7.29,3c0,.54-.12,1-.77,1s-.8-.6-.8-1.2V70.5c0-.6.06-1.19.81-1.19.58,0,.71.39.71.9v.2h-.4V70.3c0-.26,0-.51-.34-.51a.32.32,0,0,0-.28.11,1.37,1.37,0,0,0-.08.6v.69a1.4,1.4,0,0,0,.08.6.32.32,0,0,0,.29.11.36.36,0,0,0,.29-.1.9.9,0,0,0,.08-.47v-.17h.41ZM48.34,70c0-.09,0-.2-.31-.2a.32.32,0,0,0-.31.18,2,2,0,0,0-.1.73v1.66h-.41v-4h.41v1.23a.74.74,0,0,1,.55-.22.51.51,0,0,1,.58.49v2.53h-.41Zm.77-.6h.41v3h-.41Zm0-1h.41V69h-.41Zm1.2,2.7a1.59,1.59,0,0,0,.1.68.31.31,0,0,0,.31.16c.27,0,.31-.19.32-.4s0-.25,0-.42v-.72c0-.29.05-.59-.33-.59a.31.31,0,0,0-.31.16,1.59,1.59,0,0,0-.1.68Zm1,1.05a.57.57,0,0,1-.56.26.64.64,0,0,1-.49-.22v1.23h-.4v-4h.39v.2a.62.62,0,0,1,.51-.25.54.54,0,0,1,.55.27,1.56,1.56,0,0,1,.11.8v.73a2.72,2.72,0,0,1-.11,1m2.07-2.3v-.46h.29v-.69h.41v.69h.44v.46h-.44v2.51h-.41V69.82Zm1.75,1.37a1.37,1.37,0,0,0,.08.6c0,.07.13.11.3.11s.25,0,.29-.12a1.16,1.16,0,0,0,.09-.59v-.68a1.37,1.37,0,0,0-.08-.6.34.34,0,0,0-.3-.12c-.17,0-.26,0-.3.12a1.37,1.37,0,0,0-.08.6Zm1,.91a.71.71,0,0,1-.63.28c-.74,0-.81-.6-.81-1.2v-.67c0-.61.06-1.2.81-1.2s.8.6.8,1.2v.67a1.76,1.76,0,0,1-.17.92m1.37-3.73H59v.51H58V70h.88v.51H58v1.87h-.44ZM61.24,71v.15c0,.56-.11,1.24-.82,1.24h-.24a.71.71,0,0,1-.67-.39,2.07,2.07,0,0,1-.15-.95V69.76c0-.63.08-1.44.9-1.44h.1c.77,0,.88.6.88,1.24v.24h-.46v-.11a1.68,1.68,0,0,0-.1-.69.35.35,0,0,0-.33-.16h-.1a.34.34,0,0,0-.33.17,1.89,1.89,0,0,0-.1.75V70.9a2,2,0,0,0,.09.82c.05.09.15.14.34.14h.1c.19,0,.29,0,.34-.13a1.88,1.88,0,0,0,.09-.73v-.16h.45Z"/><path d="M38.08,45A25.29,25.29,0,1,1,12.6,70.33,25.43,25.43,0,0,1,38.08,45m0,.9A24.39,24.39,0,1,0,62.66,70.33,24.54,24.54,0,0,0,38.08,45.94"/><polygon class="cls-6" points="8.78 9.25 16.92 15.14 21.92 13.46 8.78 9.25"/><polygon class="cls-7" points="8.92 9.25 18.88 9.25 21.88 13.42 8.92 9.25"/><polygon class="cls-8" points="21.92 0 21.88 13.42 18.88 9.25 21.92 0"/><polygon class="cls-6" points="25.09 9.25 21.92 0 21.88 13.42 25.09 9.25"/><polygon class="cls-8" points="35.02 9.25 25.09 9.25 21.88 13.42 35.02 9.25"/><polygon class="cls-6" points="27.02 15.14 35.02 9.25 21.88 13.42 27.02 15.14"/><polygon class="cls-8" points="29.95 24.35 27.02 15.14 21.88 13.43 29.95 24.35"/><polygon class="cls-9" points="21.92 18.71 29.95 24.35 21.88 13.43 21.92 18.71"/><polygon class="cls-6" points="14.1 24.35 21.88 13.43 21.92 18.71 14.1 24.35"/><polygon class="cls-8" points="16.88 15.14 21.88 13.42 14.1 24.35 16.88 15.14"/><polygon class="cls-6" points="39.77 9.25 47.91 15.14 52.91 13.46 39.77 9.25"/><polygon class="cls-7" points="39.91 9.25 49.87 9.25 52.87 13.42 39.91 9.25"/><polygon class="cls-8" points="52.91 0 52.87 13.42 49.87 9.25 52.91 0"/><polygon class="cls-6" points="56.09 9.25 52.91 0 52.87 13.42 56.09 9.25"/><polygon class="cls-8" points="66.01 9.25 56.09 9.25 52.87 13.42 66.01 9.25"/><polygon class="cls-6" points="58.01 15.14 66.01 9.25 52.87 13.42 58.01 15.14"/><polygon class="cls-8" points="60.94 24.35 58.01 15.14 52.87 13.43 60.94 24.35"/><polygon class="cls-9" points="52.91 18.71 60.94 24.35 52.87 13.43 52.91 18.71"/><polygon class="cls-6" points="45.09 24.35 52.87 13.43 52.91 18.71 45.09 24.35"/><polygon class="cls-8" points="47.87 15.14 52.87 13.42 45.09 24.35 47.87 15.14"/></g></g></svg>