<svg xmlns="http://www.w3.org/2000/svg" viewBox="0 0 104.06 96.38"><defs><style>.cls-1{fill:#d11317;}.cls-2{fill:#fff;}</style></defs><g id="Capa_2" data-name="Capa 2"><g id="Capa_1-2" data-name="Capa 1"><path d="M36.12,41.76V40.44H39.4a.66.66,0,1,1,0,1.32Zm0,3.17V43.4h3.61a.77.77,0,0,1,0,1.53Zm66.51-14.42a26.1,26.1,0,0,1,1.43,9.65,23.45,23.45,0,0,1-1.48,9.11,11,11,0,0,1-8.8,6.9l-.15,0-7.43.2A89.2,89.2,0,0,1,74.73,75.86C65.2,88.14,55.51,93.94,55.11,94.18l-3.71,2.2-3.7-2.2c-.41-.24-10.09-6-19.63-18.32a89.25,89.25,0,0,1-9.16-14.52,15.4,15.4,0,0,1-2,.47h-.05l-2.28.31h-.16c-5.6,0-9.61-1.74-11.91-5.17C.83,54.43,0,50.76,0,45.73c0-8.9,2.6-14.28,7.73-16L8,29.67l1.62-.21A104.34,104.34,0,0,1,9,18.18a45.38,45.38,0,0,1,.31-5,30,30,0,0,1,.89-4.47l.68-2.36,7.74,2.09c.08,0,7.89,2.13,13.59,2.13,7.4,0,14.26-6.09,14.33-6.15L51.4,0l4.9,4.43c.07.06,6.93,6.15,14.33,6.15,5.71,0,13.51-2.1,13.59-2.13L92,6.36l.69,2.36a32.43,32.43,0,0,1,.88,4.47,44.92,44.92,0,0,1,.32,5c0,2-.07,3.92-.17,5.81a9.51,9.51,0,0,1,8.95,6.52m-11.58-17a28.67,28.67,0,0,0-.81-4.08l-5.36,1.45c-.08,0-8.2,2.22-14.25,2.22-8.44,0-15.93-6.73-16-6.8L51.4,3.38,48.18,6.29c-.08.07-7.56,6.8-16,6.8-6.05,0-14.17-2.2-14.25-2.22L12.56,9.42a28.67,28.67,0,0,0-.81,4.08,45.4,45.4,0,0,0-.29,4.68,98.76,98.76,0,0,0,.88,13.32L8.48,32c-4.07,1.35-6.09,6-6.09,13.72,0,4.5.69,7.78,2.12,9.9,1.85,2.75,5.16,4.11,9.93,4.11l2.06-.28a13.11,13.11,0,0,0,1.39-.31L17.35,58l-3.46.46c-4.08,0-6.84-1.53-8.33-4.6-1-2.05-1.5-5.19-1.5-9.4A30,30,0,0,1,4.34,40a9.68,9.68,0,0,1,1.39-3.9C7,34,9.32,33,12.53,32.88a21.42,21.42,0,0,1,2.58.13h3.3l42.14-.16,23.83.28,2.05,0,3.79,0,2.81,0c1.18-.1,1.78-.55,1.78-1.29A1.74,1.74,0,0,0,94,30.71a2.78,2.78,0,0,0-1-.55c-.07.59-.13,1.19-.21,1.77H90.68l-.09.18-.21,0a98.88,98.88,0,0,0,1-13.91,45.4,45.4,0,0,0-.29-4.68M18.22,53.78A86.86,86.86,0,0,0,30.05,74.32C39.29,86.22,48.58,91.8,49,92l2.43,1.44L53.83,92c.39-.23,9.68-5.81,18.92-17.71A86.93,86.93,0,0,0,84.46,54.07l9-.25a8.59,8.59,0,0,0,7-5.47,21.38,21.38,0,0,0,1.29-8.19,24.29,24.29,0,0,0-1.25-8.75c-1.3-3.31-3.64-5-7-5.05,0,.37,0,.75-.09,1.12,2.36-.09,4.1,1.16,5.25,3.76A20.61,20.61,0,0,1,100,39.53a21.28,21.28,0,0,1-1,7.21,7.22,7.22,0,0,1-2.89,3.84,11.61,11.61,0,0,1-4.81,1.5l-6.15.22-.58,0-3.46,0H78.94l-55.26-.43-2.19,0-4,0-4.39,0c-.8-.1-1.22.39-1.22,1.4a3.16,3.16,0,0,0,1,2.3,3.29,3.29,0,0,0,2.31.94A5.74,5.74,0,0,0,16.85,56a7.45,7.45,0,0,1-.94-2.2ZM87.77,38.59l.17.14.18.28v7.73h7.24c.32,0,.46.14.49.39V44.34l-.28.31-.17.28H90.31V43.4h3.07l.45.38v-2H90.31V40.44h5l.35.21.14.14V38.24l-.17.24-.32.11ZM16.19,36l-.49.42-.53.14-1.84-.38L12,36.43a1.49,1.49,0,0,0-.56,1.6h.87l.32-.52a.57.57,0,0,1,.48-.21l2.2.56a1.94,1.94,0,0,0,1.08-.28A1.31,1.31,0,0,0,17,36Zm2.89,2.65H16.29a9.5,9.5,0,0,1,.14,2.3l-.07,2.09-3.59-4,.38-.42H9.42l.56.42v7.18l-.45.41a13,13,0,0,0,2.65,0,27.8,27.8,0,0,1,0-5.16l4.33,4.92-.35.2H19l-.45-.41v-7Zm3,.42v5.4c0,.87.59,1.53,1.74,1.92a7.76,7.76,0,0,0,2.44.38,7.4,7.4,0,0,0,2.44-.38A2.42,2.42,0,0,0,30.58,44V39.15c0-.32.1-.49.35-.52H28.17l.07,5c-.17.84-.8,1.26-1.91,1.26-1.36,0-2.06-.45-2.06-1.39V39.08l.56-.42H21.48Zm11.54-.49.17.14c.1,0,.17.1.17.28v7.73h6.56a1.75,1.75,0,0,0,1.36-.62,2.17,2.17,0,0,0,.8-1.57A1.82,1.82,0,0,0,42,43.4L41,42.6l1.12-1a2.24,2.24,0,0,0,.17-.87,2,2,0,0,0-.76-1.54,2.53,2.53,0,0,0-1.57-.59Zm14.25.07H44.69a.4.4,0,0,0,.28.1l.11.25v7.7H53.2V44.93H47.45V39.15c0-.32.14-.45.38-.49M63,38.48c0,.07-.14.11-.32.11H55.11l.18.14.17.28v7.73h7.21c.32,0,.49.14.49.39V44.45l-.42.48H57.66V43.4h3l.45.38v-2H57.66V40.44h5c.32,0,.49.14.53.38V38.24Zm11.92.18H72.19a25.74,25.74,0,0,1,0,4.39l-3.59-4,.35-.42H65.29l.56.63v7l-.49.41,2.68,0a28.67,28.67,0,0,1,0-5.16l4.32,4.92a.7.7,0,0,1-.38.2h2.89l-.46-.41V39.08Zm3.1,5a7.8,7.8,0,0,0-1.19,2.72l4.33.45c3,0,4.56-.91,4.56-2.72,0-1.36-.91-2.23-2.68-2.54l-2.16-.25a4.51,4.51,0,0,1-1.68-.38l.18-.28a3.1,3.1,0,0,1,1.78-.52l1.84.38a5.39,5.39,0,0,1,1.5.73,10.86,10.86,0,0,0,1-2.19l-4.42-.42a6,6,0,0,0-2.37.42,2.28,2.28,0,0,0-1.54,2.19,1.6,1.6,0,0,0,1,1.54,7.35,7.35,0,0,0,2.16.45l2.16.24c.66.11,1,.35,1,.74,0,.59-.7.9-2.13.9l-1.7-.28A2.48,2.48,0,0,1,78,43.61"/><path class="cls-1" d="M91.05,13.5a45.4,45.4,0,0,1,.29,4.68,98.78,98.78,0,0,1-1,13.91l-3.11-.29.08.14h-.74a96.43,96.43,0,0,0,1-13.75,12.77,12.77,0,0,0-.47-3,1,1,0,0,0-1.24-.69c-.09,0-8.67,2.34-15.24,2.34-10,0-18.46-7.7-18.54-7.78a1,1,0,0,0-1.38,0c-.08.08-8.57,7.78-18.54,7.78-6.57,0-15.15-2.32-15.24-2.34a1,1,0,0,0-1.24.69,12.77,12.77,0,0,0-.47,3,95.61,95.61,0,0,0,.88,13.11l-2,0-1.75.23a98.76,98.76,0,0,1-.88-13.32,45.4,45.4,0,0,1,.29-4.68,28.67,28.67,0,0,1,.81-4.08l5.36,1.45c.08,0,8.2,2.22,14.25,2.22,8.45,0,15.93-6.73,16-6.8L51.4,3.38l3.22,2.91c.08.07,7.57,6.8,16,6.8,6.05,0,14.17-2.2,14.25-2.22l5.36-1.45a28.67,28.67,0,0,1,.81,4.08M84.46,54.07A86.72,86.72,0,0,1,72.75,74.32C63.51,86.22,54.22,91.8,53.83,92L51.4,93.47,49,92c-.39-.23-9.68-5.81-18.92-17.71A87,87,0,0,1,18.22,53.79H22.3A82.64,82.64,0,0,0,33,72c8.8,11.34,17.5,16.56,17.86,16.78a1.07,1.07,0,0,0,1,0C52.28,88.58,61,83.36,69.79,72a83.36,83.36,0,0,0,10.57-17.9h1.73Zm-6.31,0A81.08,81.08,0,0,1,68.24,70.7a72.42,72.42,0,0,1-16.84,16,72.42,72.42,0,0,1-16.84-16,80.82,80.82,0,0,1-10-16.89Zm-60-22.8a94,94,0,0,1-.91-13.13,8,8,0,0,1,.18-1.47,68.44,68.44,0,0,0,14.75,2.16c9.22,0,16.95-5.82,19.23-7.72,2.28,1.9,10,7.72,19.23,7.72a68.55,68.55,0,0,0,14.76-2.16,8.94,8.94,0,0,1,.17,1.47,93,93,0,0,1-1,13.73Z"/><path class="cls-2" d="M100.42,31.41a24.29,24.29,0,0,1,1.25,8.75,21.38,21.38,0,0,1-1.29,8.19,8.59,8.59,0,0,1-7,5.47l-11.32.31H80.36A83.36,83.36,0,0,1,69.79,72C61,83.36,52.28,88.58,51.92,88.8a1.07,1.07,0,0,1-1,0C50.52,88.58,41.82,83.36,33,72A82.64,82.64,0,0,1,22.3,53.79H15.91a7.45,7.45,0,0,0,.94,2.2,5.74,5.74,0,0,1-1.74.42,3.29,3.29,0,0,1-2.31-.94,3.16,3.16,0,0,1-1-2.3c0-1,.42-1.5,1.22-1.4l8.44.07,2.19,0,55.26.43h2.19l3.46,0,6.73-.24a11.61,11.61,0,0,0,4.81-1.5A7.22,7.22,0,0,0,99,46.74a21.28,21.28,0,0,0,1-7.21,20.61,20.61,0,0,0-1.43-8.29c-1.15-2.6-2.89-3.85-5.25-3.76,0-.37.06-.75.09-1.12,3.37.07,5.71,1.74,7,5.05M78.15,54.11l-53.63-.3a80.82,80.82,0,0,0,10,16.89,72.42,72.42,0,0,0,16.84,16,72.42,72.42,0,0,0,16.84-16,81.08,81.08,0,0,0,9.91-16.59M94,30.71a1.74,1.74,0,0,1,.81,1.22c0,.74-.6,1.19-1.78,1.29l-6.6-.07-2.05,0-23.83-.28L18.41,33h-3.3c-4.6-.52-7.74.49-9.38,3A9.68,9.68,0,0,0,4.34,40a30,30,0,0,0-.28,4.5c0,4.21.49,7.35,1.5,9.4,1.49,3.07,4.25,4.6,8.33,4.6L17.35,58l.54,1.16a13.11,13.11,0,0,1-1.39.31l-2.06.28c-4.77,0-8.08-1.36-9.93-4.11-1.43-2.12-2.12-5.4-2.12-9.9,0-7.77,2-12.37,6.09-13.72l5.61-.74,2,0a95.61,95.61,0,0,1-.88-13.11,12.77,12.77,0,0,1,.47-3,1,1,0,0,1,1.24-.7c.09,0,8.67,2.35,15.24,2.35,10,0,18.46-7.7,18.54-7.78a1,1,0,0,1,1.38,0c.08.08,8.57,7.78,18.54,7.78,6.58,0,15.15-2.32,15.24-2.35a1,1,0,0,1,1.24.7,12.77,12.77,0,0,1,.47,3,96.43,96.43,0,0,1-1,13.75h.74l-.08-.13,3.32.31.09-.18h2.15c.08-.58.14-1.18.21-1.77a2.78,2.78,0,0,1,1,.55m-75.85.6,66.41.6a93,93,0,0,0,1-13.73,8.94,8.94,0,0,0-.17-1.47,68.66,68.66,0,0,1-14.76,2.16c-9.21,0-16.95-5.82-19.23-7.72-2.28,1.9-10,7.72-19.23,7.72a68.44,68.44,0,0,1-14.75-2.16,8,8,0,0,0-.18,1.47,94,94,0,0,0,.91,13.13m69.62,7.28h7.59l.32-.11.17-.24v2.55l-.14-.14-.35-.21h-5v1.32h3.52v2l-.45-.38H90.31v1.53H95.4l.17-.28.28-.31v2.79c0-.25-.17-.35-.49-.39H88.12V39l-.18-.28ZM16.19,36H17a1.31,1.31,0,0,1-.56,1.57,1.94,1.94,0,0,1-1.08.28l-2.2-.56a.57.57,0,0,0-.48.21l-.32.52h-.87a1.49,1.49,0,0,1,.56-1.6l1.29-.24,1.84.38.53-.14Zm2.89,2.65-.56.63v7l.45.41H16.12l.35-.2-4.33-4.92a27.8,27.8,0,0,0,0,5.16,13,13,0,0,1-2.65,0l.45-.41V39.08l-.56-.42h3.73l-.38.42,3.59,4L16.43,41a9.5,9.5,0,0,0-.14-2.3Zm3,.42-.56-.42h3.35l-.56.42v4.43c0,.94.7,1.39,2.06,1.39,1.11,0,1.74-.42,1.91-1.26l-.07-5h2.76c-.25,0-.35.2-.35.52V44a2.42,2.42,0,0,1-1.92,2.37,7.4,7.4,0,0,1-2.44.38,7.76,7.76,0,0,1-2.44-.38C22.63,46,22,45.35,22,44.48Zm14.08,2.68H39.4a.66.66,0,1,0,0-1.32H36.12Zm0,3.17h3.61a.77.77,0,0,0,0-1.53H36.12Zm-2.54-6.34h6.34a2.53,2.53,0,0,1,1.57.59,2,2,0,0,1,.76,1.54,2.24,2.24,0,0,1-.17.87L41,42.6l1.08.8a1.82,1.82,0,0,1,.6,1.15,2.17,2.17,0,0,1-.8,1.57,1.75,1.75,0,0,1-1.36.62H33.92V39c0-.18-.07-.25-.17-.28Zm14.25.07c-.24,0-.35.17-.38.49v5.78H53.2v1.78H45.08V39L45,38.76a.4.4,0,0,1-.28-.1ZM63,38.48l.21-.24v2.58c0-.24-.21-.38-.53-.38h-5v1.32h3.48v2l-.45-.38h-3v1.53h5.08l.42-.48v2.68c0-.25-.17-.35-.49-.39H55.46V39l-.17-.28-.18-.14h7.56c.18,0,.28,0,.32-.11m11.92.18-.53.42v7.18l.46.41H72a.7.7,0,0,0,.38-.2L68,41.55a28.67,28.67,0,0,0,0,5.16l-2.68,0,.49-.41v-7l-.56-.63H69l-.35.42,3.59,4a25.74,25.74,0,0,0,0-4.39Zm3.1,5a2.48,2.48,0,0,0,1.64,1.18l1.7.28c1.43,0,2.13-.31,2.13-.9,0-.39-.35-.63-1-.74l-2.16-.24a7.35,7.35,0,0,1-2.16-.45,1.6,1.6,0,0,1-1-1.54A2.28,2.28,0,0,1,78.71,39a6,6,0,0,1,2.37-.42L85.5,39a10.86,10.86,0,0,1-1,2.19,5.39,5.39,0,0,0-1.5-.73l-1.84-.38a3.1,3.1,0,0,0-1.78.52l-.18.28a4.51,4.51,0,0,0,1.68.38l2.16.25c1.77.31,2.68,1.18,2.68,2.54,0,1.81-1.53,2.72-4.56,2.72l-4.33-.45A7.8,7.8,0,0,1,78,43.61"/></g></g></svg>