<svg xmlns="http://www.w3.org/2000/svg" viewBox="0 0 62.59 104.88"><defs><style>.cls-1{fill:#3aaa35;}.cls-2{fill:#ffed00;}.cls-3{fill:#94cbf0;}.cls-4{fill:#fed234;fill-rule:evenodd;}.cls-5{fill:#fff;}</style></defs><g id="Capa_2" data-name="Capa 2"><g id="Capa_1-2" data-name="Capa 1"><path d="M51.12,43.09a2.52,2.52,0,0,1,2.15-.88h4.31V44c-1.48,0-3-.05-4.43,0-1,.09-1.23,1.94-.25,2.27,1.21.19,2.48-.12,3.67.2a1.93,1.93,0,0,1,1.3,1.73,4.37,4.37,0,0,1-.47,3,2.66,2.66,0,0,1-2.17.85H50.89V50.29c1.39,0,2.78,0,4.17,0,.4,0,.93-.08,1.09-.53a1.32,1.32,0,0,0-.37-1.59c-1.31-.32-2.73.16-4-.39a2.17,2.17,0,0,1-1.15-1.89,4.27,4.27,0,0,1,.49-2.79M43,42.21H45c1,2.35,2.11,4.68,3.14,7,0-2.34,0-4.69,0-7H49.8c-.07,3.28,0,6.55,0,9.83H47.9c-1.08-2.47-2.21-4.92-3.29-7.39,0,2.46,0,4.93,0,7.4H43Zm-2.74,0,1.71,0c0,3.28,0,6.56,0,9.84H40.23c0-3.28,0-6.55,0-9.82m-7.74,2.23a3.07,3.07,0,0,1,2.57-2.2c1.39-.1,2.78,0,4.18,0,0,.55,0,1.11,0,1.66-1.27,0-2.55-.07-3.82.05S34,45.46,33.93,46.45s-.15,2.48.65,3.4c.84.7,2,.31,3,.4,0-.77,0-1.54,0-2.31h-2.2V46.2c1.28,0,2.57-.07,3.84,0,0,1.93,0,3.86,0,5.79-1.43,0-2.87.05-4.3,0a3.3,3.3,0,0,1-2.65-2.76,9.72,9.72,0,0,1,.2-4.79m-7.73.25a3.14,3.14,0,0,1,2.55-2.43c1.43-.13,2.86,0,4.29-.06v1.66c-1.31.05-2.64-.1-4,.08-.95.19-1.26,1.26-1.35,2.11a6.26,6.26,0,0,0,.42,3.53c.71,1,2.15.56,3.2.66V47.94H27.75V46.2H31.6V52c-1.41,0-2.83,0-4.23,0a3.09,3.09,0,0,1-2.59-2.27,9.64,9.64,0,0,1,0-5m-2.58-2.49h1.71c0,3.28,0,6.56,0,9.84H22.18V42.21m-7.27,0h1.62c0,1.33,0,2.65,0,4,1,0,2,0,3,0,0-1.32,0-2.64,0-4h1.61c0,3.28,0,6.55,0,9.83H19.54c0-1.37,0-2.74,0-4.11h-3c0,1.37,0,2.75,0,4.12H14.91q0-4.92,0-9.83m-2.16,0H14a4.07,4.07,0,0,1-.66,3q0-.64,0-1.29h-.59ZM7.92,43.77c-1,.26-1.36,1.38-1.45,2.3a7.21,7.21,0,0,0,.4,3.54,1.91,1.91,0,0,0,2.67.67,3.34,3.34,0,0,0,1.06-2.64,6.08,6.08,0,0,0-.49-3.07,1.87,1.87,0,0,0-2.19-.8M7,42.25a4.61,4.61,0,0,1,3.62.28,3.79,3.79,0,0,1,1.61,2.7A10.58,10.58,0,0,1,12,49.71a3.27,3.27,0,0,1-2.23,2.36,3.91,3.91,0,0,1-4.32-1.22,8.42,8.42,0,0,1-.79-5c.11-1.47.78-3.12,2.28-3.62M2.08,56.73V88.94l18.54,8.63V56.73Zm22-20A10,10,0,0,1,27.8,35c0-.47,0-.93,0-1.4a3.75,3.75,0,0,1-1.34.77l-.12-.76a13.59,13.59,0,0,0-1.6.85L24.55,34c-.63.06-1.07.64-1.66.82-.05-1.43,1-2.53,1.62-3.7.21-.48-.38-.65-.73-.65a22.66,22.66,0,0,0-2.82.45l.07-.79-.34-.25c-.67.32-1.27.74-2,1-.08-.35-.15-.7-.25-1-.86-.13-1.43.83-2.28.9a2.73,2.73,0,0,0-.09-1.33A5.13,5.13,0,0,1,14,30.72c0-.43.12-.86.14-1.3-.77.23-1.24.94-1.85,1.42l-.24-.21c0-.41,0-.83-.06-1.24-.72.4-1,1.21-1.63,1.76-.32-.59-.06-1.36-.53-1.87-.5.67-.61,1.55-1.22,2.15-.29-.59,0-1.47-.65-1.87-.55.63-1,1.37-1.51,2-.06-.62,0-1.25-.08-1.87l-.26-.11c-.76.72-1,1.91-1.89,2.46-.07-.79.07-1.58,0-2.37-.83.67-1.17,1.75-2,2.45a17.2,17.2,0,0,1,1-6,25.4,25.4,0,0,1,3.05-6.26c2.54-3.51,6.15-6.43,10.43-7.32a6,6,0,0,1,4,.2,4.64,4.64,0,0,1,1.67,3.9c.09,1.3-.35,2.62,0,3.9a2.77,2.77,0,0,0,1.83,2.09,3.25,3.25,0,0,0,3.13-.91,6.91,6.91,0,0,0,1.85-4.14,1.22,1.22,0,0,0-.39-1.23c-.55-.42-1.21,0-1.76.2,0-.5-.07-1.08.3-1.47s1.3-.4,1.95-.47a2.36,2.36,0,0,1,2.32-1.31,2.33,2.33,0,0,1,1.82,2,32.84,32.84,0,0,1,.37,4.31,3.54,3.54,0,0,0,1.59,2.83,3,3,0,0,0,3.23-.06,3.4,3.4,0,0,0,1.4-2.22,14.79,14.79,0,0,0-.09-2.9,5.73,5.73,0,0,1,1.12-4c.9-1.1,2.48-.94,3.74-.84,4.61.64,8.55,3.7,11.25,7.41a25.57,25.57,0,0,1,3.19,6.64,17,17,0,0,1,.94,5.69c-.73-.68-1.08-1.66-1.79-2.35l-.23.05a12.57,12.57,0,0,1,.07,2.21c-.8-.52-1.08-1.49-1.65-2.22a.39.39,0,0,0-.48-.21c-.14.63,0,1.28-.14,1.91-.58-.66-.91-1.54-1.66-2-.2.64-.26,1.32-.51,1.95a22.69,22.69,0,0,1-1.06-2h-.35a4.38,4.38,0,0,1-.34,1.68c-.56-.56-.85-1.41-1.61-1.73,0,.47,0,.95-.09,1.42-.78-.29-1.19-1.12-2-1.45,0,.45,0,.89,0,1.34a7.06,7.06,0,0,1-2.13-1.29c0,.45,0,.9,0,1.35-.81-.18-1.39-.94-2.24-1l-.27,1.12c-.77-.27-1.39-1-2.25-.92,0,.31,0,.63,0,1-1.21-.1-2.47-.82-3.64-.19a10.88,10.88,0,0,0,1.18,2.14,7.18,7.18,0,0,1,.61,1.64l-.23.3c-.47-.31-.93-.63-1.42-.9l-.29.57a5.42,5.42,0,0,0-1.61-.81l-.11.72a4.05,4.05,0,0,1-1.33-.78c0,.47,0,.93,0,1.4a10.23,10.23,0,0,1,3.71,1.7H62.58V90.39l-31.3,14.49L0,90.48V36.73ZM60.5,88.92V56.73H42V97.55q9.28-4.29,18.54-8.63M22,56.73v41.5l9.28,4.31,9.27-4.32V56.73ZM2.08,55.34H60.51V38.91H2.08ZM31.29,7.77,28.06,10,29.14,6.2,26.06,3.8,30,3.67,31.29,0l1.34,3.67,3.9.13L33.45,6.2,34.53,10Zm0-.59,2.4,1.62L32.89,6l2.28-1.78-2.89-.1-1-2.71-1,2.71-2.89.1L29.7,6,28.9,8.8Z"/><path class="cls-1" d="M22,56.73H40.57V98.22l-9.27,4.32L22,98.23Z"/><path class="cls-2" d="M60.5,88.92Q51.25,93.26,42,97.55V56.73H60.5Z"/><path class="cls-3" d="M7.92,43.77a1.87,1.87,0,0,1,2.19.8,6.19,6.19,0,0,1,.49,3.07,3.34,3.34,0,0,1-1.06,2.64,1.91,1.91,0,0,1-2.67-.67,7.09,7.09,0,0,1-.4-3.54c.09-.92.46-2,1.45-2.3m43.2-.68a4.27,4.27,0,0,0-.49,2.79,2.17,2.17,0,0,0,1.15,1.89c1.27.55,2.69.07,4,.38a1.33,1.33,0,0,1,.37,1.6c-.16.45-.69.53-1.09.53-1.39,0-2.78,0-4.17,0V52h4.34a2.66,2.66,0,0,0,2.17-.85,4.37,4.37,0,0,0,.47-3,1.93,1.93,0,0,0-1.3-1.73c-1.2-.32-2.46,0-3.67-.2-1-.33-.8-2.18.25-2.27,1.47-.09,3,0,4.43,0V42.21H53.27a2.52,2.52,0,0,0-2.15.88M43,42.21V52h1.69c0-2.47-.08-4.94,0-7.4,1.07,2.47,2.2,4.92,3.28,7.39h1.87c0-3.27,0-6.54,0-9.82H48.13c0,2.34.08,4.69,0,7-1-2.35-2.1-4.68-3.14-7Zm-2.74,0c0,3.27,0,6.54,0,9.81h1.71c0-3.28,0-6.56,0-9.84l-1.71,0m-7.74,2.23a9.72,9.72,0,0,0-.2,4.79A3.28,3.28,0,0,0,34.94,52c1.43.09,2.87,0,4.3,0,0-1.93,0-3.86,0-5.79-1.27-.12-2.56,0-3.84,0v1.74h2.2c0,.77,0,1.54,0,2.31-1-.1-2.17.3-3-.4-.8-.92-.67-2.26-.65-3.4s.32-2.36,1.49-2.53,2.54,0,3.82-.05c0-.55,0-1.11,0-1.66-1.4,0-2.79-.06-4.18,0a3.07,3.07,0,0,0-2.57,2.2m-7.73.25a9.64,9.64,0,0,0,0,5A3.09,3.09,0,0,0,27.37,52c1.4.08,2.82,0,4.23,0V46.2H27.75v1.74h2.17v2.31c-1.05-.1-2.49.39-3.2-.66a6.26,6.26,0,0,1-.42-3.53c.09-.85.4-1.92,1.35-2.11,1.31-.18,2.64,0,4-.08V42.21c-1.43,0-2.86-.07-4.29.06a3.14,3.14,0,0,0-2.55,2.43m-2.58-2.49V52h1.71c0-3.28,0-6.56,0-9.84Zm-7.27,0q0,4.9,0,9.83h1.62c0-1.37,0-2.75,0-4.12h3c0,1.37,0,2.74,0,4.11h1.61c0-3.28,0-6.55,0-9.83H19.54c0,1.32,0,2.64,0,4-1,0-2,0-3,0,0-1.33,0-2.65,0-4Zm-2.16,0v1.71h.59q0,.65,0,1.29a4.07,4.07,0,0,0,.66-3ZM7,42.25c-1.5.5-2.17,2.15-2.28,3.62a8.42,8.42,0,0,0,.79,5,3.91,3.91,0,0,0,4.32,1.22A3.27,3.27,0,0,0,12,49.71a10.58,10.58,0,0,0,.17-4.48,3.79,3.79,0,0,0-1.61-2.7A4.61,4.61,0,0,0,7,42.25M2.08,55.34V38.91H60.51V55.34Z"/><polygon class="cls-4" points="31.29 7.18 28.9 8.8 29.7 6.02 27.42 4.24 30.31 4.14 31.29 1.43 32.28 4.14 35.17 4.24 32.89 6.02 33.69 8.8 31.29 7.18"/><path class="cls-5" d="M2.08,56.73V88.94l18.54,8.63V56.73Z"/></g></g></svg>