<svg xmlns="http://www.w3.org/2000/svg" viewBox="0 0 89.79 118.45"><defs><style>.cls-1,.cls-2,.cls-3,.cls-4{fill-rule:evenodd;}.cls-2{fill:#fff;}.cls-3{fill:#e52826;}.cls-4{fill:#00883d;}.cls-5{fill:#f8aa3c;}</style></defs><g id="Capa_2" data-name="Capa 2"><g id="Capa_1-2" data-name="Capa 1"><path class="cls-1" d="M87.51,21.73l-.25-1-.93.42c-8.1,3.63-15.61,5.49-22.44,5.07a28.17,28.17,0,0,1-18.4-8.27l-.59-.59-.59.59a28.19,28.19,0,0,1-18.4,8.27c-6.84.42-14.35-1.44-22.45-5.07l-.93-.42-.17,1A94.75,94.75,0,0,0,0,41.65v1.27A78.47,78.47,0,0,0,5.65,71.78c6.42,16.12,18.82,31.56,38.74,46.33l.51.34.5-.34c20-14.77,32.33-30.21,38.82-46.33a78.73,78.73,0,0,0,5.57-29V41.9a96.93,96.93,0,0,0-2.28-20.17"/><path class="cls-2" d="M28.27,40.55V27.67c-.72.1-1.45.18-2.19.23-6.92.42-14.35-1.36-22.37-4.82a95.4,95.4,0,0,0-2,20c8.36-2.32,17.27-2.8,26.58-2.48"/><path class="cls-2" d="M3.77,60.4a75.82,75.82,0,0,0,3.4,10.7c4.27,10.6,11.13,21,21.1,31V57.63A72.69,72.69,0,0,0,3.77,60.4"/><path class="cls-3" d="M62.53,64.69l-.84-.08v37.32c9.9-10,16.74-20.29,20.93-30.83a75.16,75.16,0,0,0,3.19-9.84,73.44,73.44,0,0,1-23.28,3.43"/><path class="cls-3" d="M64.05,48.32c7,.24,16-2.12,24-4.71a94.9,94.9,0,0,0-2-20.53c-8,3.46-15.44,5.24-22.28,4.81-.71,0-1.41-.12-2.11-.21V48.13c.79.09,1.58.16,2.36.19"/><path class="cls-4" d="M44.9,116.25a.08.08,0,0,0,.08-.08c2.79-2,5.4-4.14,7.85-6.16,2.53-2.2,5-4.39,7.17-6.5V64.43C50.57,63.14,40.68,58,30,57.7v46.05l.4.38c2.16,2,4.39,4.06,6.77,6.05s5.06,4,7.77,6.07"/><path class="cls-4" d="M60,47.9V27.41a29.89,29.89,0,0,1-15.1-7.7A29.84,29.84,0,0,1,30,27.38V40.66c10.7.81,20.65,5.73,30,7.24"/><polygon class="cls-2" points="66.08 62.16 65.15 52.03 66.92 51.86 70.89 58.45 70.3 51.52 72.07 51.44 72.92 61.57 71.23 61.74 67.18 54.98 67.85 61.99 66.08 62.16"/><polygon class="cls-2" points="60.93 61.99 61.78 51.86 63.55 52.03 62.62 62.16 60.93 61.99"/><polygon class="cls-2" points="53.25 60.3 55.53 52.28 53.08 51.52 53.59 49.84 60 51.61 59.5 53.38 57.22 52.7 54.85 60.81 53.25 60.3"/><path class="cls-2" d="M44.14,54.39l1.68.42A1.49,1.49,0,0,0,46,56.17a1.52,1.52,0,0,0,1.1.76,2.7,2.7,0,0,0,1.35.08,1.8,1.8,0,0,0,.68-.84.65.65,0,0,0-.09-.68,1.48,1.48,0,0,0-.42-.59c-.25-.17-.59-.42-1-.68a4.4,4.4,0,0,0-.76-.42,6.08,6.08,0,0,1-1.1-1,2.26,2.26,0,0,1-.42-1.18,2.61,2.61,0,0,1,0-1.18,4.81,4.81,0,0,1,.59-1.1,2.58,2.58,0,0,1,.93-.76A2.7,2.7,0,0,1,48,48.23a3.41,3.41,0,0,1,1.52.17,2.84,2.84,0,0,1,2,1.52,3.94,3.94,0,0,1,0,2.45L50,52a1.33,1.33,0,0,0-.08-1.27,1.87,1.87,0,0,0-1.1-.67c-.93-.26-1.44-.09-1.69.5a1.22,1.22,0,0,0,.08.93,2.77,2.77,0,0,0,1,.93A7.94,7.94,0,0,1,50,53.63a2.67,2.67,0,0,1,.76,1.44,2.56,2.56,0,0,1,0,1.6,4.31,4.31,0,0,1-.93,1.44,2.58,2.58,0,0,1-1.35.67,4.13,4.13,0,0,1-2-.08,3,3,0,0,1-1-.51,4.77,4.77,0,0,1-.92-.93A3.11,3.11,0,0,1,44,56a5.2,5.2,0,0,1,.17-1.61"/><polygon class="cls-2" points="34.85 55.49 37.13 45.53 43.13 46.88 42.7 48.66 38.48 47.73 38.06 49.75 41.86 50.68 41.44 52.45 37.64 51.61 37.05 54.06 41.44 55.07 41.02 56.93 34.85 55.49"/><polygon class="cls-2" points="26.67 55.07 27.43 44.86 29.2 44.94 28.61 53.3 32.66 53.55 32.49 55.41 26.67 55.07"/><path class="cls-2" d="M74.43,56.33a8,8,0,0,1-.16-2.44A5,5,0,0,1,75,51.61a3.77,3.77,0,0,1,4.21-1.35,4.79,4.79,0,0,1,1.86,1.43,7.27,7.27,0,0,1,1.35,2.79,9.32,9.32,0,0,1,.25,2,6.53,6.53,0,0,1-.25,1.86,3.8,3.8,0,0,1-.93,1.43,4.47,4.47,0,0,1-1.69.85,5.36,5.36,0,0,1-1.6,0,2.83,2.83,0,0,1-1.6-.59,5.48,5.48,0,0,1-1.27-1.44,6.18,6.18,0,0,1-.93-2.28m3-4.21a1.92,1.92,0,0,0-1,.84A3.54,3.54,0,0,0,76,54.39a6.33,6.33,0,0,0,.17,1.78,3.93,3.93,0,0,0,.67,1.51,3.17,3.17,0,0,0,1.1,1,1.83,1.83,0,0,0,1.35.08,1.69,1.69,0,0,0,.93-.5,1.77,1.77,0,0,0,.5-.85,2.49,2.49,0,0,0,.17-1.1,3.23,3.23,0,0,0-.17-1.26,7,7,0,0,0-.42-1.27,5.2,5.2,0,0,0-.76-1,3.13,3.13,0,0,0-1-.59,1.61,1.61,0,0,0-1.1-.08"/><path class="cls-2" d="M16.29,55.24,19,45l2.11-.09,3.12,10.21H22.36L21.69,53l-3,.09-.51,2.11Zm2.95-3.89h1.94l-1-3.71Z"/><path class="cls-2" d="M8.44,56.5l-1.52-10,3.88-.67a1.78,1.78,0,0,1,1.35.25,2.6,2.6,0,0,1,1,1.1,3.51,3.51,0,0,1,.59,1.52,3.83,3.83,0,0,1-.09,1.68,2.18,2.18,0,0,1-.59,1.27,1.88,1.88,0,0,1-1.27.67l-2.19.34.59,3.63Zm.93-5.74,1.6-.25a1,1,0,0,0,.84-.5,2.32,2.32,0,0,0,.17-1.1,1.9,1.9,0,0,0-.5-1,1,1,0,0,0-.93-.26l-1.69.26Z"/><polygon class="cls-5" points="29.73 14.93 24.88 11.41 20.03 14.93 21.88 9.23 17.03 5.71 23.03 5.71 24.88 0 26.73 5.71 32.73 5.71 27.88 9.23 29.73 14.93"/><polygon class="cls-5" points="70.22 14.93 65.37 11.41 60.52 14.93 62.37 9.23 57.52 5.71 63.52 5.71 65.37 0 67.22 5.71 73.22 5.71 68.37 9.23 70.22 14.93"/></g></g></svg>