<svg xmlns="http://www.w3.org/2000/svg" viewBox="0 0 69.7 113.39"><defs><style>.cls-1{fill:#007a3f;}.cls-2{fill:#fff;}</style></defs><g id="Capa_2" data-name="Capa 2"><g id="Capa_1-2" data-name="Capa 1"><path class="cls-1" d="M10.85,21.54c-.53,1.79,1.52,1.85,2.27,3S26,61,31.66,77.3c1.5-2.68,2.09-5.78,3.22-8.62,1.08,2.94,2,5.95,3.15,8.87q9-25.92,18-51.84A4.69,4.69,0,0,1,58.87,23c0-.48,0-1,0-1.44-4.19,0-8.38,0-12.57,0-.49,1.94,1.85,2,2.67,3.28A2.13,2.13,0,0,1,49.21,27C45.54,37.81,41.67,48.57,38,59.41c-1.14-2.93-2-5.95-3.15-8.89-1.17,2.84-1.81,5.89-3.21,8.63-3.62-10.56-7.31-21.1-10.95-31.64-.21-.75-.59-1.57-.14-2.3.6-1.62,3.41-1.53,2.87-3.66-4.2,0-8.4,0-12.61,0M29.78,13c-3.64,2.63-4.05,8.48-1.15,11.8,2.46,2.4,6,2.93,8.93,4.51a2.91,2.91,0,0,1,1.69,3.44c-.61,2-3.16,2.2-4.8,1.51-2.9-1.2-4.51-4.2-5.5-7-.88.31-1.77.62-2.66.91.5,3.43.94,6.87,1.44,10.29h2.15c.2-.62.41-1.23.61-1.84A8,8,0,0,0,39.77,38c4.45-2.45,5.52-9.22,2.14-13-2.46-2.59-6.24-3-9.23-4.66-1.17-.64-1.89-2.37-1-3.5,1.06-1.31,3-1.11,4.38-.42,2.18,1.14,3.41,3.41,4.38,5.57.88-.35,1.78-.69,2.68-1-.6-2.86-1.07-5.74-1.68-8.59-.43-.7-1.39-.26-2-.41l-.66,1.34a7.4,7.4,0,0,0-9-.27M27,7.53A12.91,12.91,0,0,1,39.7,5.8a14.2,14.2,0,0,1,8.54,11.8c4.91,0,9.82,0,14.73,0-9.39,27-18.68,54-28.1,81-8.64-25-27.43-78.91-28-80.94,4.87,0,9.74,0,14.61,0A14.65,14.65,0,0,1,27,7.53m-.75-3a17.09,17.09,0,0,0-7.2,10.16c-5.47.06-10.94,0-16.4,0q16.13,46.37,32.2,92.79C45.67,76.56,56.32,45.59,67.1,14.68c-5.48,0-11,.07-16.46-.06a16.68,16.68,0,0,0-11-12A15.75,15.75,0,0,0,26.29,4.49M33.21,0h3.55A18.86,18.86,0,0,1,52.19,12.74c5.84,0,11.68,0,17.51,0v.41C58.06,46.55,46.55,80,34.92,113.39h-.11Q17.45,63.18,0,13v-.24c5.86,0,11.71,0,17.57,0A18.81,18.81,0,0,1,33.21,0"/><path class="cls-2" d="M10.85,21.54c-.53,1.79,1.52,1.85,2.27,3S26,61,31.66,77.3c1.5-2.67,2.09-5.78,3.22-8.62,1.08,2.94,2,5.95,3.15,8.87q9-25.92,18-51.84A4.69,4.69,0,0,1,58.87,23c0-.48,0-1,0-1.44-4.19,0-8.38,0-12.57,0-.49,1.94,1.85,2,2.67,3.28A2.11,2.11,0,0,1,49.21,27C45.54,37.81,41.67,48.57,38,59.41c-1.14-2.93-2-5.95-3.15-8.89-1.17,2.84-1.81,5.89-3.21,8.63-3.62-10.56-7.31-21.1-10.95-31.64-.21-.75-.59-1.57-.14-2.3.6-1.62,3.41-1.53,2.87-3.66-4.2,0-8.4,0-12.61,0M29.78,13c-3.64,2.63-4.05,8.48-1.15,11.8,2.46,2.4,6,2.93,8.93,4.5a2.92,2.92,0,0,1,1.69,3.45c-.61,2-3.16,2.2-4.8,1.51-2.9-1.2-4.51-4.2-5.5-7-.88.31-1.77.62-2.66.91.5,3.43.94,6.87,1.44,10.29h2.15c.2-.62.41-1.23.61-1.84A8,8,0,0,0,39.77,38c4.46-2.45,5.52-9.22,2.14-13-2.46-2.59-6.24-3-9.23-4.66-1.17-.64-1.89-2.37-1-3.51,1.06-1.3,3-1.1,4.38-.41,2.19,1.14,3.41,3.41,4.38,5.57l2.68-1c-.6-2.86-1.06-5.74-1.68-8.59-.43-.7-1.39-.26-2-.41l-.66,1.34a7.4,7.4,0,0,0-9-.27M27.05,7.53A12.89,12.89,0,0,1,39.7,5.8a14.23,14.23,0,0,1,8.55,11.8c4.9,0,9.81,0,14.72,0-9.39,27-18.68,54-28.1,81-8.64-25-27.43-78.91-28-80.94,4.87,0,9.74,0,14.61,0A14.62,14.62,0,0,1,27.05,7.53m-.76-3a17.09,17.09,0,0,0-7.2,10.16c-5.47.06-10.94,0-16.4,0q16.13,46.38,32.2,92.79C45.68,76.56,56.32,45.59,67.1,14.68c-5.48,0-11,.07-16.46-.06a16.68,16.68,0,0,0-11-12A15.75,15.75,0,0,0,26.29,4.49"/></g></g></svg>