<svg xmlns="http://www.w3.org/2000/svg" viewBox="0 0 88.12 93.78"><defs><style>.cls-1{fill:#ffed00;}.cls-2{fill:#e30613;}</style></defs><g id="Capa_2" data-name="Capa 2"><g id="Capa_1-2" data-name="Capa 1"><path d="M28.17,35.4V30.89c0-2.14.73-3.9,2.43-3.9h7.32a.39.39,0,0,1,.44.41,18.65,18.65,0,0,0-10.19,8M60,35.4a18.65,18.65,0,0,0-10.19-8s0-.41.44-.41h7.31c1.71,0,2.44,1.76,2.44,3.9ZM26.41,30.89V43.61a36.2,36.2,0,0,1,1.86-5,18.36,18.36,0,0,1,12.11-10c0-2.49-.18-3.41-2.23-3.41H30.6c-3.48,0-4.19,3.63-4.19,5.65M41.56,6.46c-.48.57.51,3.15,1.42,3.22A1.69,1.69,0,0,0,44.82,7.8c-.28-1.08-2.75-2-3.26-1.34m2.5,24.13A15.4,15.4,0,1,0,59.45,46,15.4,15.4,0,0,0,44.06,30.59m17.64.3c0-2-.7-5.65-4.19-5.65H50c-2,0-2.22.92-2.22,3.41a18.38,18.38,0,0,1,12.11,10,37.05,37.05,0,0,1,1.85,5Zm12.75-3.7,1,56a27,27,0,0,1-3.12-2.28l-1-54.54L69,25.78l1,53a45.18,45.18,0,0,1-3.6-4.15l.45.21L66,25l-2.35-.61L64.48,72A87.78,87.78,0,0,1,57.4,59.29a19.36,19.36,0,0,1-10,5S48,74,53.78,76.83c0,0-5-.23-6.8-3.26,0,0,1.65,5.48,8.41,10.23,0,0-6-1.22-7.83-3.82,0,0,1.16,5.83,8.53,10.76,0,0-8.92-1.48-12-7.66C41,89.26,32,90.74,32,90.74,39.39,85.81,40.55,80,40.55,80c-1.8,2.6-7.82,3.82-7.82,3.82,6.76-4.75,8.41-10.23,8.41-10.23-1.8,3-6.8,3.26-6.8,3.26,5.81-2.88,6.41-12.52,6.41-12.52a19.39,19.39,0,0,1-10-5A87.83,87.83,0,0,1,23.64,72l.86-47.58L22.15,25l-.88,49.82.45-.21a46.76,46.76,0,0,1-3.6,4.15l1-53-2.35.62-1,54.54a26.13,26.13,0,0,1-3.11,2.28l1-56-2.35.61-1,56.69a11,11,0,0,1-5.1,1.23c1.92-3.23.48-13.88.48-43.57s9-31.3,12.26-31.3c4,0,6.16,3.66,7.9,6.51,2.27,3.71,3.24,5.26,7.11,5.26a5.46,5.46,0,0,0,5.71-5.81c0-3.18-1.62-7.1-5.85-7.1a27.64,27.64,0,0,0-4.34.44s1.67-5.26,5.9-5.26A7,7,0,0,1,38.28,6a6.79,6.79,0,0,1,5.78-2.79c5.41,0,6.14,5.57,6.14,10.64,0,3.38,1,8.82,5,8.82,3.67,0,4.83-1.55,7.1-5.26,1.74-2.85,3.86-6.51,7.91-6.51,3.22,0,12.25,1.6,12.25,31.3S81,82.49,82.91,85.72a11,11,0,0,1-5.1-1.23l-1-56.69Zm-19,52.74c2.94,2.39,6.79,4,10.14,5.69,0,0-8.49,1.23-9.82,1.23h-.23c2.61,2.26,6.34,3.71,9.41,5.22,0,0-5.71,1.42-6.26,1.51a13.18,13.18,0,0,1-2.12.2c-4.07,0-9.27-2.41-12.54-5.52-3.27,3.11-8.47,5.52-12.55,5.52-2.48,0-6.13-1.15-8.37-1.71,0,0,6.46-3.18,7.7-3.95a14.45,14.45,0,0,0,1.72-1.27h-.24c-1.33,0-9.83-1.23-9.83-1.23,3.36-1.69,7.21-3.3,10.15-5.69-2.43-.25-4.79-1.65-6.94-2.66,5.86-2.49,9.74-3.06,11.49-10.58a22.9,22.9,0,0,1-5.34-2.51C27.29,73.12,17.28,89.31,4.76,88.77c-.95,0-4.76-.51-4.76-.51l2.5-4.17c.37-.62.64-2.87.51-10.18C2.89,67.13,2.53,57,2.53,42.15c0-30,9.32-34.46,15.42-34.46a9,9,0,0,1,7.08,3c.4-1.24.78-2.37.89-2.63,1.33-2.94,4.09-6.3,8.46-6.3a11,11,0,0,1,3.16.45A10.58,10.58,0,0,1,44.06,0c8,0,9.3,7.66,9.3,13.8,0,1,.39,5.66,1.8,5.66,5.21,0,5.4-11.77,15-11.77,6.09,0,15.41,4.42,15.41,34.46,0,14.87-.36,25-.48,31.76-.13,7.31.14,9.56.52,10.18l2.5,4.17s-3.81.47-4.77.51c-12.52.54-22.52-15.65-27.09-24.59a22.76,22.76,0,0,1-5.32,2.51c1.81,7.55,5.57,8.07,11.47,10.58-2.15,1-4.51,2.41-6.93,2.66M27.12,13.63C28.83,16.55,30,19.46,33,19.46a2.33,2.33,0,0,0,2.55-2.65c0-2.6-1.18-3.94-2.69-3.94a38.83,38.83,0,0,0-5.66.75ZM51.79,84.68a10.9,10.9,0,0,0,4,.71c1.27,0,5-.55,5-.55-3.62-1.83-6.33-3.29-9.06-6.57a10.53,10.53,0,0,0,2.33.26,9.3,9.3,0,0,0,4.76-1.19,32.45,32.45,0,0,1-4.26-2c-3-1.88-4.72-6-5.32-9.54l0-.15A21.14,21.14,0,0,0,56.82,62c4.28,8.77,14.34,25.82,26.47,25.3.91,0,2.41-.23,2.41-.23l-1.34-2.23c-.64-1.09-.85-3.9-.72-11,.12-6.79.48-16.88.48-31.74,0-29.89-9.19-33-14-33-8.8,0-8.48,11.77-15,11.77-2.78,0-3.26-5.21-3.26-7.12,0-4.77-.64-12.34-7.84-12.34a9,9,0,0,0-6.2,2.38,9.45,9.45,0,0,0-3.48-.65c-3.51,0-5.89,2.71-7.12,5.44C27,9.21,26,12.35,26,12.35a45.63,45.63,0,0,1,6.81-.95c2.76,0,4.15,2.52,4.15,5.41a3.77,3.77,0,0,1-4,4.11,4.3,4.3,0,0,1-3.06-.83C25.85,16.67,25.54,9.15,18,9.15,13.19,9.15,4,12.26,4,42.15,4,57,4.36,67.1,4.48,73.89c.12,7.06-.08,9.87-.73,11L2.41,87.08s1.51.19,2.42.23C17,87.83,27,70.78,31.3,62a21.06,21.06,0,0,0,7.58,3.64c-.57,3.57-2.26,7.78-5.34,9.69a32.45,32.45,0,0,1-4.26,2A9.25,9.25,0,0,0,34,78.53a10.39,10.39,0,0,0,2.32-.26c-2.73,3.28-5.43,4.74-9.06,6.57,0,0,3.74.55,5,.55a10.85,10.85,0,0,0,4-.71,14.83,14.83,0,0,1-4.71,4.68c-1.28.79-4.24,2.26-4.24,2.26a17.67,17.67,0,0,0,4.14.7c4.1,0,9.7-2.82,12.55-6.18,2.84,3.36,8.45,6.18,12.54,6.18a11.41,11.41,0,0,0,1.87-.18c.53-.09,2.28-.52,2.28-.52-4-2-6.48-3.19-9-6.94"/><path class="cls-1" d="M28.17,35.4a18.65,18.65,0,0,1,10.19-8,.39.39,0,0,0-.44-.41H30.6c-1.7,0-2.43,1.76-2.43,3.9Zm-1.76-4.51c0-2,.71-5.65,4.19-5.65h7.55c2.05,0,2.23.92,2.23,3.41a18.36,18.36,0,0,0-12.11,10,36.2,36.2,0,0,0-1.86,5ZM41.56,6.46c.51-.62,3,.26,3.26,1.34A1.69,1.69,0,0,1,43,9.68c-.91-.07-1.9-2.65-1.42-3.22M60,35.4V30.89c0-2.14-.73-3.9-2.44-3.9H50.2c-.48,0-.44.41-.44.41A18.65,18.65,0,0,1,60,35.4m1.75-4.51V43.61a37.05,37.05,0,0,0-1.85-5,18.38,18.38,0,0,0-12.11-10c0-2.49.18-3.41,2.22-3.41h7.55c3.49,0,4.19,3.63,4.19,5.65m-22,20.18V39.41H43V54H35.75a10.11,10.11,0,0,1-4.19-8.1,9.62,9.62,0,0,1,2.29-6.51h3.47a10.1,10.1,0,0,0-2.59,6.4,7.68,7.68,0,0,0,2,5.26Zm15-11.66a11.8,11.8,0,0,1,1.19,2.18H48.39v2.55h8.14c0,.23,0,.46,0,.7a11.21,11.21,0,0,1-.12,1.64h-8v4.59H55a9.55,9.55,0,0,1-2.47,3H45.13V39.41ZM44.06,30.59A15.4,15.4,0,1,1,28.66,46a15.39,15.39,0,0,1,15.4-15.39m0,1.84A13.55,13.55,0,1,0,57.6,46,13.55,13.55,0,0,0,44.06,32.43m30.39-5.24,2.35.61,1,56.69a11,11,0,0,0,5.1,1.23c-1.93-3.23-.49-13.88-.49-43.57s-9-31.3-12.25-31.3c-4,0-6.17,3.66-7.91,6.51-2.27,3.71-3.43,5.26-7.1,5.26-4,0-5-5.44-5-8.82,0-5.07-.73-10.64-6.14-10.64A6.79,6.79,0,0,0,38.28,6a7,7,0,0,0-3.9-1.06c-4.23,0-5.9,5.26-5.9,5.26a27.64,27.64,0,0,1,4.34-.44c4.23,0,5.85,3.92,5.85,7.1A5.46,5.46,0,0,1,33,22.62c-3.87,0-4.84-1.55-7.11-5.26C24.11,14.51,22,10.85,18,10.85c-3.22,0-12.26,1.6-12.26,31.3s1.44,40.34-.48,43.57a11,11,0,0,0,5.1-1.23l1-56.69,2.35-.61-1,56a26.13,26.13,0,0,0,3.11-2.28l1-54.54,2.35-.62-1,53a46.76,46.76,0,0,0,3.6-4.15l-.45.21L22.15,25l2.35-.61L23.64,72a87.83,87.83,0,0,0,7.07-12.67,19.39,19.39,0,0,0,10,5s-.6,9.64-6.41,12.52c0,0,5-.23,6.8-3.26,0,0-1.65,5.48-8.41,10.23,0,0,6-1.22,7.82-3.82,0,0-1.16,5.83-8.52,10.76,0,0,8.92-1.48,12-7.66,3.11,6.18,12,7.66,12,7.66C48.72,85.81,47.56,80,47.56,80c1.8,2.6,7.83,3.82,7.83,3.82C48.63,79.05,47,73.57,47,73.57c1.8,3,6.8,3.26,6.8,3.26C48,74,47.37,64.31,47.37,64.31a19.36,19.36,0,0,0,10-5A87.78,87.78,0,0,0,64.48,72l-.87-47.58L66,25l.89,49.82-.45-.21A45.18,45.18,0,0,0,70,78.75l-1-53,2.35.62,1,54.54a27,27,0,0,0,3.12,2.28ZM51.79,84.68c2.48,3.75,5,5,9,6.94,0,0-1.75.43-2.28.52a11.41,11.41,0,0,1-1.87.18c-4.09,0-9.7-2.82-12.54-6.18-2.85,3.36-8.45,6.18-12.55,6.18a17.67,17.67,0,0,1-4.14-.7s3-1.47,4.24-2.26a14.83,14.83,0,0,0,4.71-4.68,10.85,10.85,0,0,1-4,.71c-1.28,0-5-.55-5-.55,3.63-1.83,6.33-3.29,9.06-6.57a10.39,10.39,0,0,1-2.32.26,9.25,9.25,0,0,1-4.76-1.19,32.45,32.45,0,0,0,4.26-2c3.08-1.91,4.77-6.12,5.34-9.69A21.06,21.06,0,0,1,31.3,62C27,70.78,17,87.83,4.83,87.31c-.91,0-2.42-.23-2.42-.23l1.34-2.23c.65-1.09.85-3.9.73-11C4.36,67.1,4,57,4,42.15c0-29.89,9.19-33,14-33,7.59,0,7.9,7.52,12,10.94a4.3,4.3,0,0,0,3.06.83,3.77,3.77,0,0,0,4-4.11c0-2.89-1.39-5.41-4.15-5.41a45.63,45.63,0,0,0-6.81.95s1-3.14,1.25-3.72c1.23-2.73,3.61-5.44,7.12-5.44a9.45,9.45,0,0,1,3.48.65,9,9,0,0,1,6.2-2.38c7.2,0,7.84,7.57,7.84,12.34,0,1.91.48,7.12,3.26,7.12,6.53,0,6.21-11.77,15-11.77,4.76,0,14,3.11,14,33,0,14.86-.36,24.95-.48,31.74-.13,7.06.08,9.87.72,11l1.34,2.23s-1.5.19-2.41.23C71.16,87.83,61.1,70.78,56.82,62a21.14,21.14,0,0,1-7.58,3.64l0,.15c.6,3.55,2.28,7.66,5.32,9.54a32.45,32.45,0,0,0,4.26,2,9.3,9.3,0,0,1-4.76,1.19,10.53,10.53,0,0,1-2.33-.26c2.73,3.28,5.44,4.74,9.06,6.57,0,0-3.74.55-5,.55a10.9,10.9,0,0,1-4-.71"/><path class="cls-2" d="M39.74,51.08h-3a7.72,7.72,0,0,1-2-5.27,10.1,10.1,0,0,1,2.59-6.4H33.85a9.62,9.62,0,0,0-2.29,6.51A10.13,10.13,0,0,0,35.75,54H43V39.41H39.74Zm15-11.67H45.13V54h7.44A11.69,11.69,0,0,0,54,52.58a12.31,12.31,0,0,0,1-1.5H48.39v-4.6h8a11.11,11.11,0,0,0,.12-1.64c0-.24,0-.47,0-.7H48.39V41.59H55.9a11.8,11.8,0,0,0-1.19-2.18m-10.65-7A13.55,13.55,0,1,1,30.51,46,13.55,13.55,0,0,1,44.06,32.43"/></g></g></svg>