<svg xmlns="http://www.w3.org/2000/svg" viewBox="0 0 96.44 96.45"><defs><style>.cls-1{fill:none;stroke:#dc80b3;stroke-miterlimit:3.86;stroke-width:1.13px;}.cls-2{fill:#dd583c;}.cls-3{fill:#bd1d1d;}.cls-4{fill:#0077b3;}.cls-5{fill:#23ae84;}.cls-6{fill:#d50911;}.cls-7{fill:#fff;}</style></defs><g id="Capa_2" data-name="Capa 2"><g id="Capa_1-2" data-name="Capa 1"><path class="cls-1" d="M.56,48.22A47.66,47.66,0,1,1,48.22,95.88,47.66,47.66,0,0,1,.56,48.22Z"/><path class="cls-2" d="M85.56,18.6A47.66,47.66,0,1,1,10.45,77.29Z"/><path class="cls-3" d="M.56,48.22a47.66,47.66,0,0,1,85-29.61L10.45,77.29A47.48,47.48,0,0,1,.56,48.22"/><path class="cls-4" d="M21,48.22a27.25,27.25,0,0,1,48.51-17L26.53,64.72A27.13,27.13,0,0,1,21,48.22"/><path class="cls-5" d="M69.48,31.17A27.25,27.25,0,1,1,26.53,64.72Z"/><path class="cls-6" d="M0,48.22A48.19,48.19,0,1,1,48.22,96.41,48.2,48.2,0,0,1,0,48.22m1.57,0A46.63,46.63,0,1,0,48.22,1.6,46.62,46.62,0,0,0,1.6,48.22"/><path class="cls-7" d="M35.48,14.5C35,13.28,34.22,11.33,34,10.85c-.06-.15,0-.22.13-.3s.57-.25.73-.31.29-.11.39.13c.5,1.15.9,2.19,1.37,3.32a2.62,2.62,0,0,1,.21,1.8,2.23,2.23,0,0,1-1.26,1.33,2.54,2.54,0,0,1-2,.2,2.28,2.28,0,0,1-1.27-1.33c-.46-1.12-.86-2.12-1.4-3.45a.32.32,0,0,1,.15-.39c.2-.11.49-.2.73-.3a.26.26,0,0,1,.37.12c.49,1.2,1,2.43,1.49,3.58a.87.87,0,0,0,.74.55,1.23,1.23,0,0,0,1-.43.9.9,0,0,0,.1-.87M42.7,8.6l.91-.16c.13,0,.2,0,.21.12.34,1.94.65,3.71,1,5.6,0,.15,0,.22-.17.25a9.38,9.38,0,0,1-1,.15.39.39,0,0,1-.34-.11c-1-1.15-2.65-3.33-2.65-3.33s.42,2,.73,3.6a.18.18,0,0,1-.11.24c-.41.1-.5.1-1,.21-.16,0-.22-.07-.25-.24-.29-1.8-.63-3.73-.94-5.57a.15.15,0,0,1,.13-.18c.43-.09.71-.12,1.1-.18a.27.27,0,0,1,.21.1c1,1.26,2.67,3.43,2.67,3.43S42.71,10,42.5,8.79c0-.15.1-.18.2-.19m5.19-.36h1c.17,0,.17.13.17.24,0,1.88-.06,3.71-.1,5.59,0,.2-.16.25-.28.25s-.63,0-.88-.05a.23.23,0,0,1-.22-.26c0-1.85.09-3.67.13-5.58,0-.12.08-.18.2-.19M54.48,8l1-1a.48.48,0,0,1,.4,0l.63.18c.21,0,.21.18.15.23a15,15,0,0,1-1.34,1,.4.4,0,0,1-.38,0l-.39-.14c-.15-.06-.18-.18-.11-.25m-.48.7a3.43,3.43,0,0,1,1.92.3A2.06,2.06,0,0,1,57,10.35a6.23,6.23,0,0,1-.18,2.27A2.71,2.71,0,0,1,56,14.44a2.52,2.52,0,0,1-2.21.42,2.35,2.35,0,0,1-1.69-1.13,2.94,2.94,0,0,1-.15-2,5.61,5.61,0,0,1,.65-2.28A2,2,0,0,1,54,8.68m.25,1.3a1,1,0,0,0-.66.73c-.1.42-.14.85-.22,1.28a1.75,1.75,0,0,0,0,1.13,1.22,1.22,0,0,0,1.23.5,1,1,0,0,0,.78-.83c.1-.54.19-1.08.28-1.63a1,1,0,0,0-.33-1,1.52,1.52,0,0,0-1.1-.21m10.27,1.66c.33.14.49.19.87.34a.16.16,0,0,1,.11.21c-.7,1.84-1.35,3.52-2,5.3-.06.15-.14.17-.28.13-.4-.16-.48-.18-.91-.38A.35.35,0,0,1,62,17c-.27-1.5-.56-4.22-.56-4.22s-.66,1.91-1.22,3.47c0,.07-.09.19-.22.15l-1-.32c-.15-.05-.15-.17-.09-.33.68-1.7,1.38-3.52,2.07-5.27a.14.14,0,0,1,.2-.08c.42.14.68.26,1,.41a.27.27,0,0,1,.14.19c.22,1.6.52,4.32.52,4.32s.83-2.4,1.3-3.59c0-.14.18-.09.27-.06m4.37,41.64H65v1.34a2.77,2.77,0,0,1-.82,2.17,2.44,2.44,0,0,1-1.62.57,2.14,2.14,0,0,1-1.84-.81,3.27,3.27,0,0,1-.52-2V40.73a4.26,4.26,0,0,1,.47-2.27,2.08,2.08,0,0,1,1.93-.89,2.19,2.19,0,0,1,1.75.83,3.2,3.2,0,0,1,.65,2v1.3h3.87V40.16a6.54,6.54,0,0,0-1.78-4.65,6.12,6.12,0,0,0-4.46-1.82,6.34,6.34,0,0,0-4.57,1.79,6.26,6.26,0,0,0-1.74,4.45V54.85a6.88,6.88,0,0,0,1,3.85,5.29,5.29,0,0,0,2.41,2,7.72,7.72,0,0,0,3,.55,6.06,6.06,0,0,0,4.38-1.88A6.32,6.32,0,0,0,68.89,55ZM40.11,33.92H36.23V54.54a3,3,0,0,1-.69,2.12,2.44,2.44,0,0,1-3.42,0,3,3,0,0,1-.69-2.12V33.92H27.55v21a6.27,6.27,0,0,0,6.28,6.31,6.23,6.23,0,0,0,4.44-1.83,6.31,6.31,0,0,0,1.84-4.48ZM43.29,61H54.85V57.13H47.17V33.92H43.29ZM18.8,48.22A29.43,29.43,0,1,1,48.22,77.65,29.42,29.42,0,0,1,18.8,48.22m38,33.44c0-.11,0-.34.14-.4l3.14-1a.29.29,0,0,1,.36.15,3.84,3.84,0,0,1,.25.72c.06.2,0,.27-.26.35l-2.05.62c.11.33.22.7.34,1.05l1.83-.54c.23-.07.34-.06.4.14a3.75,3.75,0,0,1,.2.65.29.29,0,0,1-.21.33l-1.86.58c.21.68.37,1.18.37,1.18s1.48-.45,2.22-.66c.23-.07.34-.06.4.14a4.64,4.64,0,0,1,.2.73.29.29,0,0,1-.21.33l-3.31,1a.3.3,0,0,1-.35-.27c-.56-1.77-1-3.36-1.6-5.13M45.3,86l1.34,0c-.2-.75-.38-1.52-.58-2.28-.27.74-.51,1.48-.76,2.23m-.07-3.42c.06-.12.16-.3.34-.3.4,0,.68,0,1.14,0a.23.23,0,0,1,.23.2c.55,1.87,1.11,3.74,1.65,5.61a.25.25,0,0,1-.23.35,3.24,3.24,0,0,1-.92-.06.35.35,0,0,1-.28-.3c-.07-.29-.13-.59-.21-.87l-2.06-.09c-.11.28-.22.64-.33.93a.41.41,0,0,1-.38.21,3.49,3.49,0,0,1-.83-.16.29.29,0,0,1-.13-.39c.66-1.73,1.35-3.45,2-5.18M23.87,73.35a.3.3,0,0,1,.41-.1c.24.18.51.39.69.55s.07.26,0,.41c-.91,1.13-2.85,3.46-2.85,3.46s1,.85,1.63,1.35c.18.17.23.26.1.42a3.92,3.92,0,0,1-.51.57.3.3,0,0,1-.39,0c-.83-.7-1.49-1.22-2.5-2.08a.31.31,0,0,1,0-.44c1.18-1.44,2.26-2.7,3.44-4.14m4.34,7.35c.39.21.78.44,1.17.66.16-.77.36-1.53.52-2.3-.57.54-1.13,1.09-1.69,1.64m1.49-3.07c.11-.09.28-.21.44-.12.35.19.6.31,1,.56a.24.24,0,0,1,.12.28c-.36,1.92-.71,3.84-1.08,5.76a.25.25,0,0,1-.36.2,3.48,3.48,0,0,1-.8-.47.37.37,0,0,1-.1-.4c.06-.28.14-.57.2-.87-.6-.34-1.2-.67-1.79-1-.23.21-.5.48-.72.69a.43.43,0,0,1-.44,0,3.49,3.49,0,0,1-.66-.51.29.29,0,0,1,.06-.41c1.37-1.25,2.76-2.47,4.14-3.7m34.79,2.1c.25.47.5.93.74,1.4a4.34,4.34,0,0,0,1.13-.69.79.79,0,0,0-.1-1,.61.61,0,0,0-.68-.26,5.73,5.73,0,0,0-1.09.52m.09-1.48a2.53,2.53,0,0,1,1.84-.32,2.18,2.18,0,0,1,1.41,1.66,1.81,1.81,0,0,1-.46,1.54l2.07,1.14c.07,0,.18.18,0,.25L68.6,83c-.12.07-.25.17-.39.09l-1.95-1.15-.47.25s.52,1,.83,1.59c.1.19,0,.24-.09.31l-.8.43c-.09,0-.2.08-.28-.07-.71-1.24-1.28-2.41-2-3.67-.24-.49-.41-.77-.65-1.26-.08-.15-.07-.3.06-.37l1.68-.9M37.53,82a2,2,0,0,1,1.56-.8,3.4,3.4,0,0,1,2.52,1,.24.24,0,0,1,0,.33c-.2.18-.32.32-.53.5a.35.35,0,0,1-.42,0,2.12,2.12,0,0,0-1.4-.51.89.89,0,0,0-.76.66c-.14.5-.25,1-.38,1.51a1.24,1.24,0,0,0,0,.89,1.21,1.21,0,0,0,1,.61,2,2,0,0,0,.85-.06.31.31,0,0,1,.41.17c.08.23.17.45.24.68a.24.24,0,0,1-.16.35,3.4,3.4,0,0,1-2.8-.28,2,2,0,0,1-1-1.46,4.46,4.46,0,0,1,.27-1.84A4.75,4.75,0,0,1,37.53,82M51,82.64c0-.11,0-.34.21-.37s.64-.1.87-.12.24.12.27.31c.21,1.43.59,4.44.59,4.44s1.33-.18,2.1-.26c.24,0,.35,0,.37.2a4.88,4.88,0,0,1,.07.76.29.29,0,0,1-.27.29c-1.07.13-1.91.26-3.22.41a.29.29,0,0,1-.3-.32c-.25-1.84-.44-3.49-.69-5.34m21.1-4.75,1-.86c-.66-.43-1.3-.88-2-1.31.29.73.61,1.44.92,2.17m-2.33-2.5c0-.13-.09-.33,0-.45.3-.26.5-.45.87-.73a.26.26,0,0,1,.31,0c1.66,1,3.33,2,5,3.08a.24.24,0,0,1,.06.4,3.21,3.21,0,0,1-.72.58.37.37,0,0,1-.41,0c-.24-.17-.48-.35-.74-.5L72.58,79c.11.28.27.62.38.91a.41.41,0,0,1-.15.41,3.6,3.6,0,0,1-.71.44.29.29,0,0,1-.36-.21c-.67-1.72-1.31-3.46-2-5.19M1.27,48.22a47,47,0,1,1,46.95,47,46.95,46.95,0,0,1-46.95-47m1.83,0A45.13,45.13,0,1,0,48.22,3.1,45.12,45.12,0,0,0,3.1,48.22"/></g></g></svg>