<svg xmlns="http://www.w3.org/2000/svg" viewBox="0 0 40.06 138.9"><defs><style>.cls-1{fill:#fff;fill-rule:evenodd;}.cls-2{fill:#e30613;}.cls-3{fill:#0071b8;}</style></defs><g id="Capa_2" data-name="Capa 2"><g id="Capa_1-2" data-name="Capa 1"><polygon class="cls-1" points="0.21 0.19 39.85 0.19 20.04 138.87 0.21 0.19"/><path class="cls-2" d="M15.75,25.58V31c0,2.18-1.32,3.12-3.41,3.12a3.55,3.55,0,0,1-2.63-1,3,3,0,0,1-.65-2v-5.5h1.77V31c0,1.16.67,1.67,1.48,1.67C13.5,32.63,14,32.05,14,31V25.58ZM26.19,10v5.44h1.68c1.41,0,1.89-1.42,1.89-2.79,0-2.45-1.17-2.65-1.91-2.65Zm-1.7,6.87V8.52h3.66c2.8,0,3.38,2.38,3.38,4,0,1.78-.71,4.35-3.45,4.35Zm-8.6-5.57H14.16a1.7,1.7,0,0,0-1.84-1.44c-.83,0-2.06.56-2.06,2.9,0,1.5.59,2.84,2.06,2.84A1.78,1.78,0,0,0,14.16,14h1.73a3.46,3.46,0,0,1-3.61,3.06c-2.2,0-3.79-1.49-3.79-4.36s1.68-4.38,3.82-4.38a3.3,3.3,0,0,1,3.58,2.94m15.86,17H30a1.69,1.69,0,0,0-1.84-1.44c-.83,0-2.05.56-2.05,2.91,0,1.49.59,2.83,2.05,2.83A1.78,1.78,0,0,0,30,31h1.74a3.46,3.46,0,0,1-3.61,3.06c-2.21,0-3.79-1.49-3.79-4.36s1.67-4.38,3.81-4.38a3.31,3.31,0,0,1,3.59,2.94"/><path class="cls-3" d="M18.85,1.57h2.4V20H35.62l-.33,2.38h-14v98.26L20,129.08l-1.19-8.44V22.38H4.78L4.43,20H18.85ZM39.63.37H.43L20,137.55ZM40.06,0,20.22,138.9h-.37L0,0Z"/></g></g></svg>