<svg xmlns="http://www.w3.org/2000/svg" viewBox="0 0 73.75 97.41"><defs><style>.cls-1{fill:#212b55;}.cls-2{fill:#fff;}.cls-3{fill:#b2311e;}</style></defs><g id="Capa_2" data-name="Capa 2"><g id="Capa_1-2" data-name="Capa 1"><path class="cls-1" d="M36.87,95.89A76.16,76.16,0,0,1,15.61,80,52,52,0,0,1,3.36,59.1a49.76,49.76,0,0,1-1.94-11c2.88-1.63,9.41-4.94,11.75-10.78h4.16c-1.47-.81-5.57-5.52-5.47-11.33.12-7.39,4.47-9.68,4.39-15.78a16.65,16.65,0,0,0-1.71-7.34c3,1.4,4.93,2.61,9.24,2.62,5.11,0,6.64-2,13.09-2.12,6.46.11,8,2.14,13.1,2.12,4.31,0,6.28-1.22,9.23-2.62a16.79,16.79,0,0,0-1.71,7.34c-.07,6.1,4.27,8.39,4.39,15.78.11,5.81-4,10.52-5.47,11.33h4.17c2.34,5.84,8.86,9.15,11.74,10.78a49.76,49.76,0,0,1-1.93,11A52,52,0,0,1,58.13,80,76,76,0,0,1,36.87,95.89"/><path class="cls-2" d="M36.87,97.41l-.6-.29A77.65,77.65,0,0,1,14.61,81,52.83,52.83,0,0,1,2,59.49a51.62,51.62,0,0,1-2-11.3l0-.85.75-.43.66-.37c3-1.65,8.49-4.73,10.48-9.72l.35-.86H14a16.39,16.39,0,0,1-3.52-10A20.21,20.21,0,0,1,13,16.82a13.67,13.67,0,0,0,1.88-6.57A15.3,15.3,0,0,0,13.3,3.49L11.63,0l3.5,1.65,1,.47a15.18,15.18,0,0,0,7.68,2h.06a17.37,17.37,0,0,0,5.38-.9A26.82,26.82,0,0,1,36.85,2h0a26.75,26.75,0,0,1,7.63,1.22,17.49,17.49,0,0,0,5.39.9H50a15.09,15.09,0,0,0,7.69-2l1-.46L62.11,0,60.44,3.48a15.36,15.36,0,0,0-1.58,6.77c0,2.62.86,4.45,1.88,6.57A20,20,0,0,1,63.26,26a16.33,16.33,0,0,1-3.53,10h1.78l.34.87c2,5,7.53,8.06,10.5,9.72l.65.36.75.43-.06.86a51.64,51.64,0,0,1-2,11.29A52.83,52.83,0,0,1,59.13,81,77.6,77.6,0,0,1,37.47,97.12Z"/><path class="cls-1" d="M36.87,95.89A76.16,76.16,0,0,1,15.61,80,52,52,0,0,1,3.36,59.1a49.76,49.76,0,0,1-1.94-11c2.88-1.63,9.41-4.94,11.75-10.78h4.16c-1.47-.81-5.57-5.52-5.47-11.33.12-7.39,4.47-9.68,4.39-15.78a16.65,16.65,0,0,0-1.71-7.34c3,1.4,4.93,2.61,9.24,2.62,5.11,0,6.64-2,13.09-2.12,6.46.11,8,2.14,13.1,2.12,4.31,0,6.28-1.22,9.23-2.62a16.79,16.79,0,0,0-1.71,7.34c-.07,6.1,4.27,8.39,4.39,15.78.11,5.81-4,10.52-5.47,11.33h4.17c2.34,5.84,8.86,9.15,11.74,10.78a49.76,49.76,0,0,1-1.93,11A52,52,0,0,1,58.13,80,76,76,0,0,1,36.87,95.89"/><path class="cls-2" d="M36.87,93.89C27.06,88.62,17.42,81,11,71.29A45.26,45.26,0,0,1,3.39,49.14c2.68-1.55,8.4-4.51,10.9-10.1h3.39L19,37.87V36.4c-1.48-.81-5.43-5.15-5.34-10.65.1-6,4.42-9,4.39-15.41a17.81,17.81,0,0,0-.41-4.09A18,18,0,0,0,24,7.32c4.56,0,8.33-2.1,12.84-2.13s8.28,2.13,12.84,2.14a18.37,18.37,0,0,0,6.4-1.07,17.93,17.93,0,0,0-.42,4.09c0,6.43,4.3,9.42,4.4,15.4.08,5.51-3.86,9.84-5.35,10.66v1.47L56.06,39h3.39c2.5,5.58,8.23,8.55,10.9,10.09A45.28,45.28,0,0,1,62.74,71.3C56.32,81,46.69,88.63,36.87,93.89"/><path class="cls-1" d="M36.87,91a64.56,64.56,0,0,1-24-21.47A42.9,42.9,0,0,1,6,50.39a24,24,0,0,0,9.34-8.19l21.56,4.9,21.56-4.91a24,24,0,0,0,9.35,8.2C66,68.72,51.17,83.53,36.87,91"/><path class="cls-2" d="M30.89,82.13l-8-7.81V55.77H19.7V49.53h15v6.24H31.81V71.5c0,2.25,1.34,3.57,3.68,3.54h2.78c2.34,0,3.69-1.29,3.69-3.54V55.76H39V49.52H54v6.23H50.83V74.32l-8,7.81Z"/><path class="cls-3" d="M36.87,16.46c-5.42-3.83-9.64-5.12-13.4-5.61a24.24,24.24,0,0,1,26.8,0c-3.76.49-8,1.78-13.4,5.61"/><path class="cls-3" d="M36.87,41.89l-8.86-2c1.48-.92,4.35-4.89,4.15-9a12.76,12.76,0,0,1-7.23,2.39c-4.25,0-8.16-2.28-8.16-7.8,0-4.86,4-6.1,3.88-10.29a8,8,0,0,0-.41-2.32c7.74-.2,12.93,3.65,16.63,7.64,3.71-4,8.9-7.84,16.63-7.64a8.74,8.74,0,0,0-.41,2.32C53,19.37,57,20.61,57,25.47c0,5.52-3.9,7.82-8.15,7.8a12.74,12.74,0,0,1-7.23-2.39c-.21,4.1,2.66,8.07,4.15,9Z"/><path class="cls-2" d="M26.79,19.25a5,5,0,1,1-5.18,5,5.12,5.12,0,0,1,5.18-5"/><path class="cls-2" d="M47,19.25a5,5,0,1,0,5.18,5,5.12,5.12,0,0,0-5.18-5"/><polygon class="cls-3" points="36.87 43.03 19.55 39.09 18.43 40.15 16.86 40.15 16.23 41.1 36.87 45.8 57.52 41.1 56.88 40.14 55.31 40.14 54.19 39.08 36.87 43.03"/></g></g></svg>